<svg width="360" height="116" viewBox="0 0 360 116" fill="none" xmlns="http://www.w3.org/2000/svg">
<g clip-path="url(#clip0_137_128)">
<path d="M14.3074 62.7739C23.177 62.7739 29.4301 59.7079 29.4301 52.8288C29.4301 48.0115 26.7401 44.7612 18.3696 42.5102C13.4937 41.1955 12.2481 39.9487 12.2481 37.882C12.2481 36.6304 13.4937 35.7572 15.2435 35.7572C17.6814 35.7572 19.3051 36.8196 20.3665 38.8183C21.68 41.3215 22.9935 41.8213 24.6172 41.8213C26.8031 41.8213 27.8646 40.1961 27.8646 38.4447C27.8646 36.7565 27.1182 35.3206 25.8677 34.1319C24.7432 33.0695 23.1777 32.2545 21.4329 31.6287C19.1209 30.8137 16.368 30.3771 13.6198 30.3771C7.24628 30.3771 0.935302 33.6323 0.935302 39.2597C0.935302 44.761 3.74642 47.764 11.1814 49.8888C16.0573 51.2666 17.5549 52.7025 17.5549 54.7061C17.5549 56.3944 16.1833 57.3938 13.3721 57.3938C11.0602 57.3938 9.05844 56.2052 7.93405 54.0803C6.49946 51.3297 5.18597 50.7038 3.49925 50.7038C1.25034 50.7038 -0.00012207 52.2659 -0.00012207 54.3908C-0.00012207 56.2682 0.81414 57.8303 2.18576 59.019C3.31022 60.0183 4.74971 60.8333 6.37339 61.4591C8.81128 62.3323 11.6853 62.7739 14.3074 62.7739Z" fill="black"/>
<path d="M47.1025 62.7739C55.788 62.7739 59.9706 57.8935 61.0948 53.8913C61.3468 53.0811 61.1578 51.5141 59.4711 51.5141C59.0979 51.5141 58.7829 51.6403 58.4097 52.0138C57.2852 53.3285 54.6631 55.2059 50.9747 55.2059C46.1036 55.2059 43.4136 51.7033 43.4136 49.5154C43.4136 48.8896 43.7286 48.6373 44.7271 48.5161L55.5354 46.9491C59.471 46.3864 61.0317 45.1978 61.0317 41.5739C61.0317 37.1302 56.5338 30.5033 47.3496 30.5033C38.3539 30.5033 30.4824 36.7566 30.4824 46.513C30.4824 55.2695 36.7927 62.7739 47.1025 62.7739ZM43.8503 43.6358C42.5417 43.8881 42.0425 43.825 42.0425 41.2587C42.0425 37.3194 43.3511 35.3789 45.9151 35.3789C48.4742 35.3789 50.2869 38.6972 50.2869 40.822C50.2869 41.9475 49.7246 42.5103 48.353 42.7625L43.8503 43.6358Z" fill="black"/>
<path d="M70.0855 62.4586H73.9629C80.8357 62.4586 81.8342 61.5853 81.8342 59.8971C81.8342 58.7716 81.1459 58.2719 80.3317 57.7674C77.8356 56.2684 77.7096 54.454 77.7096 50.704V20.3737C77.7096 18.4332 76.8372 17.8705 74.7094 17.8705C72.0872 17.8705 67.9626 19.2483 64.8995 20.4368C63.1498 21.1208 61.8412 21.6836 61.8412 23.1244C61.8412 24.3761 63.2129 24.7496 64.5264 25.0601C65.9029 25.3754 66.1501 26.7532 66.1501 28.5627V50.7671C66.1501 54.3279 66.0871 56.4576 63.4649 57.8305C62.6507 58.272 62.0884 58.8347 62.0884 59.8972C62.0884 61.5855 63.4648 62.4586 70.0855 62.4586Z" fill="black"/>
<path d="M99.1979 62.7739C107.883 62.7739 112.066 57.8935 113.19 53.8913C113.442 53.0811 113.253 51.5141 111.567 51.5141C111.193 51.5141 110.878 51.6403 110.505 52.0138C109.381 53.3285 106.759 55.2059 103.07 55.2059C98.199 55.2059 95.509 51.7033 95.509 49.5154C95.509 48.8896 95.824 48.6373 96.8225 48.5161L107.631 46.9491C111.566 46.3864 113.127 45.1978 113.127 41.5739C113.127 37.1302 108.629 30.5033 99.445 30.5033C90.4493 30.5033 82.5778 36.7566 82.5778 46.513C82.5778 55.2695 88.8881 62.7739 99.1979 62.7739ZM95.9457 43.6358C94.6371 43.8881 94.1379 43.825 94.1379 41.2587C94.1379 37.3194 95.4465 35.3789 98.0105 35.3789C100.57 35.3789 102.382 38.6972 102.382 40.822C102.382 41.9475 101.82 42.5103 100.448 42.7625L95.9457 43.6358Z" fill="black"/>
<path d="M131.186 62.7739C139.62 62.7739 143.991 58.2088 145.053 53.8913C145.305 52.7658 144.932 51.5141 143.43 51.5141C143.12 51.5141 142.678 51.7033 142.179 52.203C140.992 53.5177 138.244 55.206 134.996 55.206C129.059 55.206 126.311 49.7629 126.311 42.3844C126.311 37.6932 128.313 35.3792 130.625 35.3792C132.995 35.3792 134.371 36.883 135.496 39.7598C136.557 42.4474 137.933 43.8882 140.808 43.8882C143.245 43.8882 144.244 41.9477 144.244 39.9489C144.244 34.5058 137.434 30.5035 130.562 30.5035C122.187 30.5035 114.442 37.1934 114.442 46.7019C114.442 56.0794 121.188 62.7739 131.186 62.7739Z" fill="black"/>
<path d="M160.908 62.7108C167.471 62.7108 171.532 59.771 172.594 54.2696C172.904 52.6396 171.096 51.8295 169.909 53.081C168.406 54.6431 166.472 55.0167 165.348 55.0167C162.91 55.0167 161.533 53.2653 161.533 50.2673V37.7562C161.533 36.5094 162.348 36.0679 163.283 36.0679H168.658C170.282 36.0679 171.469 35.0055 171.469 32.9437C171.469 31.1924 170.97 31.1294 169.72 31.1294H162.91C161.659 31.1294 161.533 30.8771 161.533 27.879V24.4976C161.533 22.6882 161.223 21.81 159.662 21.81C157.535 21.81 155.412 22.7511 153.41 24.1872C151.476 25.628 149.663 27.4375 148.229 29.2519L147.041 30.7557C146.038 32.0025 145.665 33.128 145.665 33.943C145.665 34.9423 146.227 36.0678 147.54 36.0678H148.602C149.663 36.0678 150.036 36.6936 150.036 37.6347V52.0137C150.036 59.834 154.287 62.7108 160.908 62.7108Z" fill="black"/>
<path d="M189.898 62.7739C198.583 62.7739 202.766 57.8935 203.89 53.8913C204.142 53.0811 203.953 51.5141 202.266 51.5141C201.893 51.5141 201.578 51.6403 201.205 52.0138C200.08 53.3285 197.458 55.2059 193.77 55.2059C188.899 55.2059 186.209 51.7033 186.209 49.5154C186.209 48.8896 186.524 48.6373 187.522 48.5161L198.331 46.9491C202.266 46.3864 203.827 45.1978 203.827 41.5739C203.827 37.1302 199.329 30.5033 190.145 30.5033C181.149 30.5033 173.278 36.7566 173.278 46.513C173.278 55.2695 179.588 62.7739 189.898 62.7739ZM186.646 43.6358C185.337 43.8881 184.838 43.825 184.838 41.2587C184.838 37.3194 186.146 35.3789 188.71 35.3789C191.269 35.3789 193.082 38.6972 193.082 40.822C193.082 41.9475 192.52 42.5103 191.148 42.7625L186.646 43.6358Z" fill="black"/>
<path d="M216.81 62.7739C224.245 62.7739 226.557 56.3945 227.182 56.3945C227.497 56.3945 227.56 57.2677 227.56 59.5187V59.8971C227.56 61.8328 228.433 62.3955 230.556 62.3955C233.183 62.3955 237.307 60.8965 240.366 59.7709C242.115 59.1451 243.429 58.5824 243.429 57.1464C243.429 55.7055 242.052 55.4532 240.744 55.2059C239.43 54.9536 239.115 53.5176 239.115 51.7033V20.3732C239.115 18.4327 238.243 17.87 236.12 17.87C233.493 17.87 229.368 19.3109 226.31 20.4946C224.56 21.1834 223.247 21.8093 223.247 23.124C223.247 24.4387 224.623 24.623 225.932 25.0596C227.308 25.5011 227.56 26.7527 227.56 28.5622V30.1922C227.56 31.6282 227.56 32.8168 227.061 32.8168C226.184 32.8168 224.808 30.4396 219.999 30.4396C210.752 30.4396 205.13 38.0077 205.13 47.1373C205.13 56.2044 209.753 62.7739 216.81 62.7739ZM223 55.269C219.311 55.269 217.125 50.0781 217.125 42.384C217.125 37.3193 219.5 35.2575 221.875 35.2575C225.37 35.2575 227.56 39.1967 227.56 46.9491V48.8265C227.56 53.018 225.312 55.269 223 55.269Z" fill="black"/>
<path d="M46.224 115.687H50.1015C56.9743 115.687 57.9727 114.814 57.9727 113.126C57.9727 112 57.2845 111.501 56.4703 110.996C53.9742 109.497 53.8481 107.683 53.8481 103.933V73.6026C53.8481 71.6621 52.9757 71.0994 50.8479 71.0994C48.2258 71.0994 44.1012 72.4772 41.0381 73.6657C39.2883 74.3497 37.9798 74.9124 37.9798 76.3533C37.9798 77.6049 39.3515 77.9785 40.665 78.289C42.0415 78.6043 42.2887 79.9821 42.2887 81.7916V103.996C42.2887 107.557 42.2256 109.686 39.6035 111.059C38.7892 111.501 38.227 112.064 38.227 113.126C38.227 114.814 39.6034 115.687 46.224 115.687Z" fill="black"/>
<path d="M75.3377 116.003C84.0232 116.003 88.2058 111.122 89.33 107.12C89.582 106.31 89.393 104.743 87.7063 104.743C87.3331 104.743 87.0181 104.869 86.6449 105.243C85.5204 106.557 82.8983 108.435 79.2099 108.435C74.3388 108.435 71.6488 104.932 71.6488 102.744C71.6488 102.119 71.9638 101.866 72.9623 101.745L83.7706 100.178C87.7062 99.6153 89.2669 98.4267 89.2669 94.8029C89.2669 90.3591 84.769 83.7322 75.5848 83.7322C66.5891 83.7322 58.7176 89.9856 58.7176 99.7419C58.7176 108.498 65.0279 116.003 75.3377 116.003ZM72.0855 96.8648C70.7769 97.1171 70.2777 97.054 70.2777 94.4876C70.2777 90.5484 71.5863 88.6079 74.1503 88.6079C76.7094 88.6079 78.5221 91.9261 78.5221 94.051C78.5221 95.1765 77.9598 95.7392 76.5882 95.9915L72.0855 96.8648Z" fill="black"/>
<path d="M100.89 116.003C110.384 116.003 111.262 110.812 112.134 110.812C112.386 110.812 112.633 111.122 112.759 111.501C113.758 114.062 115.634 115.751 119.632 115.751C124.13 115.751 127.382 112.185 127.382 109.187C127.382 107.746 126.568 107.435 125.943 107.435C125.254 107.435 124.944 107.998 123.757 107.998C122.821 107.998 122.254 107.62 121.944 105.306L120.51 94.5503C119.632 87.8604 117.257 83.6058 107.947 83.6058C99.6393 83.6058 92.5771 87.2346 92.5771 92.4885C92.5771 94.7394 94.3898 95.928 96.0135 95.928C98.8246 95.928 100.39 94.6764 101.015 92.11C101.641 89.6747 103.385 88.6074 105.198 88.6074C107.762 88.6074 108.513 90.1744 108.824 92.6146L108.95 93.6771C109.197 95.6758 108.324 96.1124 104.452 96.4277C96.3285 97.0535 90.2646 100.803 90.2646 106.994C90.2646 111.622 92.8294 116.003 100.89 116.003ZM106.202 109.749C103.701 109.749 101.951 108.246 101.951 105.058C101.951 102.245 103.201 100.115 106.764 100.115C109.134 100.115 109.948 100.493 110.2 102.366L110.258 102.807C110.884 107.183 108.824 109.749 106.202 109.749Z" fill="black"/>
<path d="M139.429 115.687C146.302 115.687 147.3 114.814 147.3 113.126C147.3 112.001 146.617 111.438 145.803 110.996C143.302 109.623 143.18 107.683 143.18 103.933V91.4267C143.18 89.7967 144.053 89.2971 145.177 89.2971H147.426C148.803 89.2971 149.864 87.735 149.864 85.7945C149.864 84.3586 148.987 84.3586 147.988 84.3586H142.177C140.743 81.7292 138.431 79.9828 138.431 77.1641C138.431 75.4758 139.681 74.2873 141.305 74.2873C143.365 74.2873 144.552 75.5389 145.303 77.3534C146.239 79.5413 147.237 80.7929 149.801 80.7929C152.239 80.7929 153.301 78.9786 153.301 77.4794C153.301 72.6621 147.615 69.4749 141.305 69.4749C133.933 69.4749 129.556 72.9144 129.556 77.2903C129.556 80.7929 130.618 82.355 131.243 84.3586H128.684C127.869 84.3586 126.498 85.4841 126.498 87.672C126.498 88.5501 127.06 89.2972 127.806 89.2972H129.682C130.244 89.2972 131.621 89.4233 131.621 91.3008V103.997C131.621 107.558 131.558 109.809 128.931 111.06C128.121 111.439 127.559 112.065 127.559 113.127C127.559 114.815 128.931 115.689 135.556 115.689L139.429 115.687Z" fill="black"/>
<path d="M164.907 116.003C173.777 116.003 180.03 112.937 180.03 106.058C180.03 101.24 177.34 97.9901 168.969 95.7391C164.093 94.4244 162.848 93.1776 162.848 91.1109C162.848 89.8593 164.093 88.9861 165.843 88.9861C168.281 88.9861 169.905 90.0485 170.966 92.0472C172.28 94.5504 173.593 95.0502 175.217 95.0502C177.403 95.0502 178.464 93.425 178.464 91.6736C178.464 89.9854 177.718 88.5494 176.467 87.3608C175.343 86.2984 173.777 85.4834 172.033 84.8576C169.721 84.0426 166.968 83.606 164.22 83.606C157.846 83.606 151.535 86.8612 151.535 92.4886C151.535 97.9899 154.346 100.993 161.781 103.118C166.657 104.496 168.155 105.931 168.155 107.935C168.155 109.623 166.783 110.623 163.972 110.623C161.66 110.623 159.658 109.434 158.534 107.309C157.099 104.559 155.786 103.933 154.099 103.933C151.85 103.933 150.6 105.495 150.6 107.62C150.6 109.497 151.414 111.059 152.785 112.248C153.91 113.247 155.349 114.062 156.973 114.688C159.411 115.561 162.285 116.003 164.907 116.003Z" fill="black"/>
<path d="M188.019 115.94C191.828 115.94 194.703 113.436 195.013 109.871C195.328 106.058 192.89 103.433 189.08 103.433C185.392 103.433 182.644 106.058 182.334 109.871C182.019 113.436 184.33 115.94 188.019 115.94Z" fill="black"/>
<path d="M214.257 116.003C222.69 116.003 227.062 111.438 228.124 107.12C228.376 105.995 228.003 104.743 226.5 104.743C226.19 104.743 225.749 104.932 225.25 105.432C224.062 106.747 221.314 108.435 218.067 108.435C212.129 108.435 209.381 102.992 209.381 95.6132C209.381 90.9221 211.383 88.608 213.695 88.608C216.065 88.608 217.441 90.1119 218.566 92.9887C219.627 95.6763 221.004 97.1171 223.878 97.1171C226.316 97.1171 227.314 95.1766 227.314 93.1778C227.314 87.7347 220.504 83.7324 213.632 83.7324C205.257 83.7324 197.512 90.4222 197.512 99.9308C197.512 109.308 204.258 116.003 214.257 116.003Z" fill="black"/>
<path d="M247.805 116.003C258.613 116.003 266.048 109.245 266.048 99.8044C266.048 90.3589 258.613 83.606 247.805 83.606C236.934 83.606 229.435 90.3589 229.435 99.8044C229.435 109.187 236.933 116.003 247.805 116.003ZM248.803 111.122C244.054 111.122 241.62 101.182 241.62 95.3028C241.62 90.9851 243.743 88.6081 246.554 88.6081C251.367 88.6081 253.863 98.6793 253.863 104.307C253.863 108.746 251.803 111.122 248.803 111.122Z" fill="black"/>
<path d="M275.038 115.503H278.915C285.1 115.503 285.725 114.562 285.725 113.189C285.725 112.311 285.347 111.438 284.6 110.938C282.851 109.808 282.725 107.435 282.725 103.807V99.2416C282.725 93.2987 285.725 91.4844 287.533 91.4844C289.597 91.4844 291.473 92.5517 291.473 97.238V103.807C291.473 107.057 291.41 109.749 289.597 110.996C288.972 111.438 288.599 112.122 288.599 113.126C288.599 114.688 289.471 115.503 292.598 115.503H302.156C304.904 115.503 305.965 114.814 305.965 113.189C305.965 112.311 305.655 111.874 305.277 111.559C303.028 109.997 303.028 107.309 303.028 103.744V99.1785C303.028 93.8615 305.529 91.4844 307.589 91.4844C309.716 91.4844 311.151 93.1144 311.529 96.9275L312.213 103.554C312.775 109.06 312.339 109.686 310.405 110.812C309.591 111.312 309.028 111.937 309.028 113.063C309.028 114.814 310.526 115.44 315.775 115.44H322.522C327.02 115.44 327.897 114.436 327.897 113.063C327.897 111.874 327.335 111.311 326.457 110.686C324.523 109.371 324.334 108.871 323.772 103.744L322.774 94.9239C321.775 86.1722 317.399 83.6058 312.465 83.6058C304.53 83.6058 303.343 89.9222 302.592 89.9222C302.344 89.9222 302.218 89.8591 301.782 88.9859C300.154 85.5463 297.343 83.6058 293.533 83.6058C285.536 83.6058 283.534 89.9221 283.098 89.9221C282.851 89.9221 282.725 89.6117 282.725 88.6705V86.5457C282.725 84.6052 281.847 83.9843 279.787 83.9843C277.039 83.9843 272.915 85.4202 269.667 86.6088C267.855 87.2977 266.856 87.9235 266.856 89.3594C266.856 90.6741 268.291 90.9846 269.478 91.2368C270.976 91.5473 271.165 92.7989 271.165 94.8025V103.87C271.165 107.557 271.102 109.56 268.543 111.059C267.666 111.559 267.103 112.063 267.103 113.126C267.103 114.814 268.417 115.503 275.038 115.503Z" fill="black"/>
<mask id="mask0_137_128" style="mask-type:luminance" maskUnits="userSpaceOnUse" x="277" y="21" width="84" height="48">
<path d="M277.705 21.113H360.838V68.3061H277.705V21.113Z" fill="white"/>
</mask>
<g mask="url(#mask0_137_128)">
<mask id="mask1_137_128" style="mask-type:luminance" maskUnits="userSpaceOnUse" x="224" y="-40" width="137" height="135">
<path d="M277.966 -39.1638L360.104 32.3735L306.349 94.2077L224.215 22.6753L277.966 -39.1638Z" fill="white"/>
</mask>
<g mask="url(#mask1_137_128)">
<mask id="mask2_137_128" style="mask-type:luminance" maskUnits="userSpaceOnUse" x="224" y="-40" width="137" height="135">
<path d="M360.006 32.2903L277.868 -39.2421L224.112 22.5921L306.251 94.1295L360.006 32.2903Z" fill="white"/>
</mask>
<g mask="url(#mask2_137_128)">
<path d="M278.574 68.0578C302.803 38.8192 323.27 40.2548 323.27 40.2548C308.051 38.5375 291.049 48.8658 279.233 60.4696C306.453 -4.49795 359.99 32.2742 360.01 32.2928C353.53 33.7967 343.182 46.8755 337.492 52.1835C330.416 58.7812 320.742 62.2062 311.281 61.8909C305.402 61.692 290.561 59.6447 278.575 68.0568" fill="#21453A"/>
</g>
</g>
</g>
<mask id="mask3_137_128" style="mask-type:luminance" maskUnits="userSpaceOnUse" x="251" y="0" width="36" height="63">
<path d="M251.649 0.000244141H286.391V62.0965H251.649V0.000244141Z" fill="white"/>
</mask>
<g mask="url(#mask3_137_128)">
<mask id="mask4_137_128" style="mask-type:luminance" maskUnits="userSpaceOnUse" x="224" y="-40" width="137" height="135">
<path d="M277.966 -39.1639L360.104 32.3735L306.349 94.2077L224.215 22.6753L277.966 -39.1639Z" fill="white"/>
</mask>
<g mask="url(#mask4_137_128)">
<mask id="mask5_137_128" style="mask-type:luminance" maskUnits="userSpaceOnUse" x="224" y="-40" width="137" height="135">
<path d="M360.006 32.2903L277.868 -39.2421L224.112 22.5921L306.251 94.1294L360.006 32.2903Z" fill="white"/>
</mask>
<g mask="url(#mask5_137_128)">
<path d="M271.762 60.9166C261.768 34.1718 270.405 17.7113 270.405 17.7113C260.958 30.4261 261.642 45.4944 264.787 57.5448C233.046 12.5101 274.176 -0.0010376 274.176 -0.0010376C273.284 5.45176 282.614 23.3186 284.189 29.2612C289.118 47.8466 277.656 57.3697 271.761 60.9154" fill="#326757"/>
</g>
</g>
</g>
</g>
<defs>
<clipPath id="clip0_137_128">
<rect width="360" height="116" fill="white"/>
</clipPath>
</defs>
</svg>
