<svg xmlns="http://www.w3.org/2000/svg" style="display:none">
  <symbol id="discord" viewBox="0 0 640 640">
    <path fill="currentColor" d="M524.5 133.8C524.3 133.5 524.1 133.2 523.7 133.1C485.6 115.6 445.3 103.1 404 96C403.6 95.9 403.2 96 402.9 96.1C402.6 96.2 402.3 96.5 402.1 96.9C396.6 106.8 391.6 117.1 387.2 127.5C342.6 120.7 297.3 120.7 252.8 127.5C248.3 117 243.3 106.8 237.7 96.9C237.5 96.6 237.2 96.3 236.9 96.1C236.6 95.9 236.2 95.9 235.8 95.9C194.5 103 154.2 115.5 116.1 133C115.8 133.1 115.5 133.4 115.3 133.7C39.1 247.5 18.2 358.6 28.4 468.2C28.4 468.5 28.5 468.7 28.6 469C28.7 469.3 28.9 469.4 29.1 469.6C73.5 502.5 123.1 527.6 175.9 543.8C176.3 543.9 176.7 543.9 177 543.8C177.3 543.7 177.7 543.4 177.9 543.1C189.2 527.7 199.3 511.3 207.9 494.3C208 494.1 208.1 493.8 208.1 493.5C208.1 493.2 208.1 493 208 492.7C207.9 492.4 207.8 492.2 207.6 492.1C207.4 492 207.2 491.8 206.9 491.7C191.1 485.6 175.7 478.3 161 469.8C160.7 469.6 160.5 469.4 160.3 469.2C160.1 469 160 468.6 160 468.3C160 468 160 467.7 160.2 467.4C160.4 467.1 160.5 466.9 160.8 466.7C163.9 464.4 167 462 169.9 459.6C170.2 459.4 170.5 459.2 170.8 459.2C171.1 459.2 171.5 459.2 171.8 459.3C268 503.2 372.2 503.2 467.3 459.3C467.6 459.2 468 459.1 468.3 459.1C468.6 459.1 469 459.3 469.2 459.5C472.1 461.9 475.2 464.4 478.3 466.7C478.5 466.9 478.7 467.1 478.9 467.4C479.1 467.7 479.1 468 479.1 468.3C479.1 468.6 479 468.9 478.8 469.2C478.6 469.5 478.4 469.7 478.2 469.8C463.5 478.4 448.2 485.7 432.3 491.6C432.1 491.7 431.8 491.8 431.6 492C431.4 492.2 431.3 492.4 431.2 492.7C431.1 493 431.1 493.2 431.1 493.5C431.1 493.8 431.2 494 431.3 494.3C440.1 511.3 450.1 527.6 461.3 543.1C461.5 543.4 461.9 543.7 462.2 543.8C462.5 543.9 463 543.9 463.3 543.8C516.2 527.6 565.9 502.5 610.4 469.6C610.6 469.4 610.8 469.2 610.9 469C611 468.8 611.1 468.5 611.1 468.2C623.4 341.4 590.6 231.3 524.2 133.7zM222.5 401.5C193.5 401.5 169.7 374.9 169.7 342.3C169.7 309.7 193.1 283.1 222.5 283.1C252.2 283.1 275.8 309.9 275.3 342.3C275.3 375 251.9 401.5 222.5 401.5zM417.9 401.5C388.9 401.5 365.1 374.9 365.1 342.3C365.1 309.7 388.5 283.1 417.9 283.1C447.6 283.1 471.2 309.9 470.7 342.3C470.7 375 447.5 401.5 417.9 401.5z"/>
  </symbol>
  <symbol id="facebook-f" viewBox="0 0 640 640">
    <path fill="currentColor" d="M240 363.3L240 576L356 576L356 363.3L442.5 363.3L460.5 265.5L356 265.5L356 230.9C356 179.2 376.3 159.4 428.7 159.4C445 159.4 458.1 159.8 465.7 160.6L465.7 71.9C451.4 68 416.4 64 396.2 64C289.3 64 240 114.5 240 223.4L240 265.5L174 265.5L174 363.3L240 363.3z"/>
  </symbol>
  <symbol id="instagram" viewBox="0 0 640 640">
    <path fill="currentColor" d="M320.3 205C256.8 204.8 205.2 256.2 205 319.7C204.8 383.2 256.2 434.8 319.7 435C383.2 435.2 434.8 383.8 435 320.3C435.2 256.8 383.8 205.2 320.3 205zM319.7 245.4C360.9 245.2 394.4 278.5 394.6 319.7C394.8 360.9 361.5 394.4 320.3 394.6C279.1 394.8 245.6 361.5 245.4 320.3C245.2 279.1 278.5 245.6 319.7 245.4zM413.1 200.3C413.1 185.5 425.1 173.5 439.9 173.5C454.7 173.5 466.7 185.5 466.7 200.3C466.7 215.1 454.7 227.1 439.9 227.1C425.1 227.1 413.1 215.1 413.1 200.3zM542.8 227.5C541.1 191.6 532.9 159.8 506.6 133.6C480.4 107.4 448.6 99.2 412.7 97.4C375.7 95.3 264.8 95.3 227.8 97.4C192 99.1 160.2 107.3 133.9 133.5C107.6 159.7 99.5 191.5 97.7 227.4C95.6 264.4 95.6 375.3 97.7 412.3C99.4 448.2 107.6 480 133.9 506.2C160.2 532.4 191.9 540.6 227.8 542.4C264.8 544.5 375.7 544.5 412.7 542.4C448.6 540.7 480.4 532.5 506.6 506.2C532.8 480 541 448.2 542.8 412.3C544.9 375.3 544.9 264.5 542.8 227.5zM495 452C487.2 471.6 472.1 486.7 452.4 494.6C422.9 506.3 352.9 503.6 320.3 503.6C287.7 503.6 217.6 506.2 188.2 494.6C168.6 486.8 153.5 471.7 145.6 452C133.9 422.5 136.6 352.5 136.6 319.9C136.6 287.3 134 217.2 145.6 187.8C153.4 168.2 168.5 153.1 188.2 145.2C217.7 133.5 287.7 136.2 320.3 136.2C352.9 136.2 423 133.6 452.4 145.2C472 153 487.1 168.1 495 187.8C506.7 217.3 504 287.3 504 319.9C504 352.5 506.7 422.6 495 452z"/>
  </symbol>
  <symbol id="kakao-talk" viewBox="0 0 640 640">
    <path fill="currentColor" d="M320 66.5C479.1 66.5 608 168.2 608 293.6C608 419 479.1 520.7 320 520.7C302.5 520.7 285.4 519.5 268.8 517.1C252.2 528.8 156.2 596.2 147.1 597.5C147.1 597.5 143.4 598.9 140.2 597.1C137 595.3 137.6 590.4 137.6 590.4C138.6 583.8 162.6 501.2 167 485.9C85.9 445.8 32 374.6 32 293.5C32 168.1 160.9 66.5 320 66.5zM118.2 225.7C109.2 225.7 101.9 233 101.9 242C101.9 251 109.2 258.3 118.2 258.3L144.1 258.3L144.1 357C144.1 365.8 151.6 372.9 160.7 372.9C169.8 372.9 177.3 365.8 177.3 357L177.3 258.3L203.2 258.3C212.2 258.3 219.5 251 219.5 242C219.5 233 212.2 225.7 203.2 225.7L118.1 225.7zM259 225.7C248.2 225.9 239.7 234.1 236.9 242.1L197.2 346.7C192.2 362.4 196.6 368.2 201.1 370.3C204.3 371.8 208 372.6 211.7 372.6C218.6 372.6 223.9 369.8 225.5 365.3L233.7 343.7L284.4 343.7L292.6 365.2C294.2 369.7 299.5 372.5 306.4 372.5C310.1 372.5 313.7 371.7 317 370.2C321.6 368.1 326 362.3 320.9 346.6L281.2 242.1C278.4 234.1 269.9 225.9 259 225.7zM439.9 225.7C430.7 225.7 423.3 233.2 423.3 242.3L423.3 356C423.3 365.2 430.8 372.6 439.9 372.6C449 372.6 456.5 365.1 456.5 356L456.5 319.8L462.3 314L501.2 365.6C504.4 369.8 509.2 372.2 514.5 372.2C518.1 372.2 521.6 371.1 524.5 368.9C528 366.2 530.3 362.3 530.9 357.9C531.5 353.5 530.4 349.1 527.7 345.6L486.8 291.4L524.7 253.6C527.3 251 528.6 247.4 528.4 243.5C528.2 239.6 526.4 235.9 523.5 233C520.4 229.9 516.2 228.1 512.1 228.1C508.5 228.1 505.3 229.4 502.9 231.8L456.6 278.2L456.6 242.5C456.6 233.3 449.1 225.9 440 225.9zM348.6 225.7C339.3 225.7 331.7 233.2 331.7 242.3L331.7 355.1C331.7 363.5 338.8 370.3 347.6 370.4L400.9 370.4C409.7 370.4 416.8 363.5 416.8 355.1C416.8 346.7 409.6 339.9 400.9 339.9L365.6 339.9L365.6 242.3C365.6 233.1 358 225.7 348.6 225.7zM275.6 314.3L242.4 314.3L259 267.2L275.6 314.3z"/>
  </symbol>
  <symbol id="line" viewBox="0 0 640 640">
    <path fill="currentColor" d="M375 260.8L375 342.1C375 344.2 373.4 345.8 371.3 345.8L358.3 345.8C357 345.8 355.9 345.1 355.3 344.3L318 294L318 342.2C318 344.3 316.4 345.9 314.3 345.9L301.3 345.9C299.2 345.9 297.6 344.3 297.6 342.2L297.6 260.9C297.6 258.8 299.2 257.2 301.3 257.2L314.2 257.2C315.3 257.2 316.6 257.8 317.2 258.8L354.5 309.1L354.5 260.9C354.5 258.8 356.1 257.2 358.2 257.2L371.2 257.2C373.3 257.1 375 258.8 375 260.7L375 260.8zM281.3 257.1L268.3 257.1C266.2 257.1 264.6 258.7 264.6 260.8L264.6 342.1C264.6 344.2 266.2 345.8 268.3 345.8L281.3 345.8C283.4 345.8 285 344.2 285 342.1L285 260.8C285 258.9 283.4 257.1 281.3 257.1zM249.9 325.2L214.3 325.2L214.3 260.8C214.3 258.7 212.7 257.1 210.6 257.1L197.6 257.1C195.5 257.1 193.9 258.7 193.9 260.8L193.9 342.1C193.9 343.1 194.2 343.9 194.9 344.6C195.6 345.2 196.4 345.6 197.4 345.6L249.6 345.6C251.7 345.6 253.3 344 253.3 341.9L253.3 328.9C253.3 327 251.7 325.2 249.8 325.2L249.9 325.2zM443.6 257.1L391.3 257.1C389.4 257.1 387.6 258.7 387.6 260.8L387.6 342.1C387.6 344 389.2 345.8 391.3 345.8L443.5 345.8C445.6 345.8 447.2 344.2 447.2 342.1L447.2 329C447.2 326.9 445.6 325.3 443.5 325.3L408 325.3L408 311.7L443.5 311.7C445.6 311.7 447.2 310.1 447.2 308L447.2 294.9C447.2 292.8 445.6 291.2 443.5 291.2L408 291.2L408 277.5L443.5 277.5C445.6 277.5 447.2 275.9 447.2 273.8L447.2 260.8C447.1 258.9 445.5 257.1 443.5 257.1L443.6 257.1zM576 157.4L576 483.4C575.9 534.6 533.9 576.1 482.6 576L156.6 576C105.4 575.9 63.9 533.8 64 482.6L64 156.6C64.1 105.4 106.2 63.9 157.4 64L483.4 64C534.6 64.1 576.1 106.1 576 157.4zM505.6 297.5C505.6 214.1 421.9 146.2 319.2 146.2C216.5 146.2 132.8 214.1 132.8 297.5C132.8 372.2 199.1 434.9 288.7 446.8C310.5 451.5 308 459.5 303.1 488.9C302.3 493.6 299.3 507.3 319.2 499C339.1 490.7 426.5 435.8 465.7 390.8C492.7 361.1 505.6 331 505.6 297.7L505.6 297.5z"/>
  </symbol>
  <symbol id="linkedin-in" viewBox="0 0 640 640">
    <path fill="currentColor" d="M196.3 512L103.4 512L103.4 212.9L196.3 212.9L196.3 512zM149.8 172.1C120.1 172.1 96 147.5 96 117.8C96 103.5 101.7 89.9 111.8 79.8C121.9 69.7 135.6 64 149.8 64C164 64 177.7 69.7 187.8 79.8C197.9 89.9 203.6 103.6 203.6 117.8C203.6 147.5 179.5 172.1 149.8 172.1zM543.9 512L451.2 512L451.2 366.4C451.2 331.7 450.5 287.2 402.9 287.2C354.6 287.2 347.2 324.9 347.2 363.9L347.2 512L254.4 512L254.4 212.9L343.5 212.9L343.5 253.7L344.8 253.7C357.2 230.2 387.5 205.4 432.7 205.4C526.7 205.4 544 267.3 544 347.7L544 512L543.9 512z"/>
  </symbol>
  <symbol id="pinterest-p" viewBox="0 0 640 640">
    <path fill="currentColor" d="M332 70.5C229.4 70.5 128 138.9 128 249.6C128 320 167.6 360 191.6 360C201.5 360 207.2 332.4 207.2 324.6C207.2 315.3 183.5 295.5 183.5 256.8C183.5 176.4 244.7 119.4 323.9 119.4C392 119.4 442.4 158.1 442.4 229.2C442.4 282.3 421.1 381.9 352.1 381.9C327.2 381.9 305.9 363.9 305.9 338.1C305.9 300.3 332.3 263.7 332.3 224.7C332.3 158.5 238.4 170.5 238.4 250.5C238.4 267.3 240.5 285.9 248 301.2C234.2 360.6 206 449.1 206 510.3C206 529.2 208.7 547.8 210.5 566.7C213.9 570.5 212.2 570.1 217.4 568.2C267.8 499.2 266 485.7 288.8 395.4C301.1 418.8 332.9 431.4 358.1 431.4C464.3 431.4 512 327.9 512 234.6C512 135.3 426.2 70.5 332 70.5z"/>
  </symbol>
  <symbol id="snapchat" viewBox="0 0 640 640">
    <path fill="currentColor" d="M561.1 430.6C557.7 421.4 551.3 416.5 544 412.4C542.6 411.6 541.4 410.9 540.3 410.5C538.1 409.4 535.9 408.3 533.7 407.1C510.9 395 493.1 379.8 480.7 361.7C477.2 356.6 474.1 351.2 471.6 345.6C470.5 342.6 470.6 340.9 471.4 339.3C472.2 338.1 473.1 337.1 474.3 336.3C478.2 333.7 482.3 331.1 485 329.3C489.9 326.1 493.8 323.6 496.2 321.9C505.6 315.4 512.1 308.4 516.2 300.6C519.1 295.2 520.7 289.3 521.1 283.2C521.5 277.1 520.5 271 518.3 265.4C512.1 249.1 496.7 239 478 239C474.1 239 470.1 239.4 466.3 240.2C465.3 240.4 464.2 240.7 463.2 240.9C463.4 229.7 463.1 218 462.1 206.4C458.6 165.6 444.3 144.3 429.4 127.2C419.9 116.5 408.7 107.5 396.2 100.5C373.6 87.6 348 81.1 320.1 81.1C292.2 81.1 266.7 87.6 244.1 100.5C231.6 107.5 220.4 116.6 210.8 127.3C195.9 144.3 181.6 165.7 178.1 206.5C177.1 218.1 176.9 229.9 177 241C176 240.7 175 240.5 173.9 240.3C170 239.5 166.1 239.1 162.2 239.1C143.5 239.1 128.1 249.2 121.9 265.5C119.7 271.2 118.7 277.3 119.1 283.3C119.5 289.3 121.1 295.3 124 300.7C128.1 308.5 134.7 315.4 144 322C146.5 323.7 150.4 326.2 155.2 329.4C157.8 331.1 161.7 333.6 165.5 336.1C166.8 337 167.9 338.1 168.8 339.4C169.6 341 169.6 342.8 168.4 346C165.9 351.5 162.9 356.8 159.5 361.8C147.4 379.5 130.1 394.4 108.1 406.4C96.4 412.6 84.2 416.7 79.1 430.7C75.2 441.2 77.8 453.2 87.6 463.3C91.2 467.1 95.4 470.2 100 472.7C109.6 478 119.8 482 130.3 484.8C132.5 485.4 134.6 486.3 136.4 487.5C140 490.6 139.5 495.4 144.2 502.3C146.6 505.9 149.6 509 153.2 511.4C163.2 518.3 174.5 518.8 186.4 519.2C197.2 519.6 209.4 520.1 223.3 524.7C229.1 526.6 235.1 530.3 242 534.6C258.7 544.9 281.6 558.9 319.8 558.9C358 558.9 381.1 544.8 397.9 534.5C404.8 530.3 410.8 526.6 416.4 524.7C430.3 520.1 442.6 519.6 453.3 519.2C465.2 518.7 476.5 518.3 486.5 511.4C490.7 508.5 494.2 504.7 496.7 500.2C500.1 494.4 500.1 490.3 503.3 487.4C505.1 486.2 507 485.3 509.1 484.8C519.8 482 530.1 477.9 539.9 472.6C544.8 470 549.2 466.5 552.9 462.4L553 462.2C562.2 452.3 564.5 440.7 560.8 430.4zM527.1 448.9C506.4 460.4 492.6 459.1 481.8 466C472.7 471.9 478.1 484.5 471.5 489.1C463.4 494.7 439.3 488.7 408.3 499C382.7 507.5 366.3 531.8 320.3 531.8C274.3 531.8 258.3 507.5 232.2 498.9C201.2 488.6 177.1 494.7 169 489C162.4 484.4 167.8 471.8 158.7 465.9C148 459 134.2 460.2 113.4 448.8C100.2 441.5 107.7 437 112.1 434.9C187.2 398.5 199.2 342.3 199.8 338.2C200.4 333.2 201.2 329.2 195.6 324.1C190.2 319.1 166.4 304.4 159.8 299.8C148.9 292.2 144.1 284.5 147.6 275.2C150.1 268.7 156.1 266.3 162.5 266.3C164.5 266.3 166.5 266.5 168.5 267C180.5 269.6 192.2 275.6 198.9 277.2C199.7 277.4 200.5 277.5 201.4 277.5C205 277.5 206.3 275.7 206 271.6C205.2 258.5 203.4 232.9 205.4 209C208.2 176.1 218.8 159.8 231.4 145.4C237.5 138.5 265.9 108.4 320.3 108.4C374.7 108.4 403 138.2 409 145.1C421.6 159.5 432.2 175.8 435 208.7C437.1 232.6 435.3 258.2 434.4 271.3C434.1 275.6 435.4 277.2 439 277.2C439.8 277.2 440.7 277.1 441.5 276.9C448.2 275.3 459.9 269.3 471.9 266.7C473.9 266.3 475.9 266 477.9 266C484.3 266 490.3 268.5 492.8 274.9C496.3 284.3 491.6 291.9 480.6 299.5C474 304.1 450.2 318.8 444.8 323.8C439.2 328.9 440 332.9 440.6 338C441.1 342.2 453.1 398.4 528.3 434.7C532.7 436.9 540.2 441.4 527 448.8z"/>
  </symbol>
  <symbol id="spotify" viewBox="0 0 640 640">
    <path fill="currentColor" d="M320 72C183 72 72 183 72 320C72 457 183 568 320 568C457 568 568 457 568 320C568 183 457 72 320 72zM420.7 436.9C416.5 436.9 413.9 435.6 410 433.3C347.6 395.7 275 394.1 203.3 408.8C199.4 409.8 194.3 411.4 191.4 411.4C181.7 411.4 175.6 403.7 175.6 395.6C175.6 385.3 181.7 380.4 189.2 378.8C271.1 360.7 354.8 362.3 426.2 405C432.3 408.9 435.9 412.4 435.9 421.5C435.9 430.6 428.8 436.9 420.7 436.9zM447.6 371.3C442.4 371.3 438.9 369 435.3 367.1C372.8 330.1 279.6 315.2 196.7 337.7C191.9 339 189.3 340.3 184.8 340.3C174.1 340.3 165.4 331.6 165.4 320.9C165.4 310.2 170.6 303.1 180.9 300.2C208.7 292.4 237.1 286.6 278.7 286.6C343.6 286.6 406.3 302.7 455.7 332.1C463.8 336.9 467 343.1 467 351.8C466.9 362.6 458.5 371.3 447.6 371.3zM478.6 295.1C473.4 295.1 470.2 293.8 465.7 291.2C394.5 248.7 267.2 238.5 184.8 261.5C181.2 262.5 176.7 264.1 171.9 264.1C158.7 264.1 148.6 253.8 148.6 240.5C148.6 226.9 157 219.2 166 216.6C201.2 206.3 240.6 201.4 283.5 201.4C356.5 201.4 433 216.6 488.9 249.2C496.7 253.7 501.8 259.9 501.8 271.8C501.8 285.4 490.8 295.1 478.6 295.1z"/>
  </symbol>
  <symbol id="threads" viewBox="0 0 640 640">
    <path fill="currentColor" d="M427.5 299.7C429.7 300.6 431.7 301.6 433.8 302.5C463 316.6 484.4 337.7 495.6 363.9C511.3 400.4 512.8 459.7 465.3 507.1C429.1 543.3 385 559.6 322.7 560.1L322.4 560.1C252.2 559.6 198.3 536 162 489.9C129.7 448.9 113.1 391.8 112.5 320.3L112.5 319.8C113 248.3 129.6 191.2 161.9 150.2C198.2 104.1 252.2 80.5 322.4 80L322.7 80C393 80.5 447.6 104 485 149.9C503.4 172.6 517 199.9 525.6 231.6L485.2 242.4C478.1 216.6 467.4 194.6 453 177C423.8 141.2 380 122.8 322.5 122.4C265.5 122.9 222.4 141.2 194.3 176.8C168.1 210.1 154.5 258.3 154 320C154.5 381.7 168.1 429.9 194.3 463.3C222.3 498.9 265.5 517.2 322.5 517.7C373.9 517.3 407.9 505.1 436.2 476.8C468.5 444.6 467.9 405 457.6 380.9C451.5 366.7 440.5 354.9 425.7 346C422 372.9 413.9 394.3 401 410.8C383.9 432.6 359.6 444.4 328.3 446.1C304.7 447.4 282 441.7 264.4 430.1C243.6 416.3 231.4 395.3 230.1 370.8C227.6 322.5 265.8 287.8 325.3 284.4C346.4 283.2 366.2 284.1 384.5 287.2C382.1 272.4 377.2 260.6 369.9 252C359.9 240.3 344.3 234.3 323.7 234.2L323 234.2C306.4 234.2 284 238.8 269.7 260.5L235.3 236.9C254.5 207.8 285.6 191.8 323.1 191.8L323.9 191.8C386.5 192.2 423.8 231.3 427.6 299.5L427.4 299.7L427.5 299.7zM271.5 368.5C272.8 393.6 299.9 405.3 326.1 403.8C351.7 402.4 380.7 392.4 385.6 330.6C372.4 327.7 357.8 326.2 342.2 326.2C337.4 326.2 332.6 326.3 327.8 326.6C284.9 329 270.6 349.8 271.6 368.4L271.5 368.5z"/>
  </symbol>
  <symbol id="tiktok" viewBox="0 0 640 640">
    <path fill="currentColor" d="M544.5 273.9C500.5 274 457.5 260.3 421.7 234.7L421.7 413.4C421.7 446.5 411.6 478.8 392.7 506C373.8 533.2 347.1 554 316.1 565.6C285.1 577.2 251.3 579.1 219.2 570.9C187.1 562.7 158.3 545 136.5 520.1C114.7 495.2 101.2 464.1 97.5 431.2C93.8 398.3 100.4 365.1 116.1 336C131.8 306.9 156.1 283.3 185.7 268.3C215.3 253.3 248.6 247.8 281.4 252.3L281.4 342.2C266.4 337.5 250.3 337.6 235.4 342.6C220.5 347.6 207.5 357.2 198.4 369.9C189.3 382.6 184.4 398 184.5 413.8C184.6 429.6 189.7 444.8 199 457.5C208.3 470.2 221.4 479.6 236.4 484.4C251.4 489.2 267.5 489.2 282.4 484.3C297.3 479.4 310.4 469.9 319.6 457.2C328.8 444.5 333.8 429.1 333.8 413.4L333.8 64L421.8 64C421.7 71.4 422.4 78.9 423.7 86.2C426.8 102.5 433.1 118.1 442.4 131.9C451.7 145.7 463.7 157.5 477.6 166.5C497.5 179.6 520.8 186.6 544.6 186.6L544.6 274z"/>
  </symbol>
  <symbol id="tumblr" viewBox="0 0 640 640">
    <path fill="currentColor" d="M469.9 544.3C456.3 558.8 419.9 576 372.5 576C251.7 576 225.5 487.2 225.5 435.4L225.5 291.4L178 291.4C172.5 291.4 168 286.9 168 281.4L168 213.4C168 206.2 172.5 199.8 179.3 197.4C241.3 175.6 260.8 121.4 263.6 80.3C264.4 69.3 270.1 64 279.7 64L350.6 64C356.1 64 360.6 68.5 360.6 74L360.6 189.2L443.6 189.2C449.1 189.2 453.6 193.6 453.6 199.1L453.6 280.8C453.6 286.3 449.1 290.8 443.6 290.8L360.2 290.8L360.2 424C360.2 458.2 383.9 477.6 428.2 459.8C433 457.9 437.2 456.6 440.9 457.6C444.4 458.5 446.7 461 448.3 465.5L470.3 529.8C472.1 534.8 473.6 540.4 469.9 544.3z"/>
  </symbol>
  <symbol id="twitch" viewBox="0 0 640 640">
    <path fill="currentColor" d="M455.4 167.5L416.8 167.5L416.8 277.2L455.4 277.2L455.4 167.5zM349.2 167L310.6 167L310.6 276.8L349.2 276.8L349.2 167zM185 64L88.5 155.4L88.5 484.6L204.3 484.6L204.3 576L300.8 484.6L378.1 484.6L551.9 320L551.9 64L185 64zM513.3 301.8L436.1 374.9L358.9 374.9L291.3 438.9L291.3 374.9L204.4 374.9L204.4 100.6L513.3 100.6L513.3 301.8z"/>
  </symbol>
  <symbol id="vimeo-v" viewBox="0 0 640 640">
    <path fill="currentColor" d="M543.8 217.6C541.8 261.2 511.4 320.9 452.4 396.7C391.5 475.9 340 515.5 297.8 515.5C271.7 515.5 249.6 491.4 231.5 443.2C196.3 314 181.3 238.3 152.2 238.3C148.8 238.3 137.1 245.4 117 259.4L96 232.2C147.6 186.9 196.9 136.5 227.8 133.7C262.7 130.3 284.1 154.2 292.2 205.2C320.9 386.7 333.6 414.1 385.8 331.9C404.5 302.3 414.6 279.8 416 264.3C420.8 218.4 380.2 221.5 352.7 233.3C374.7 161.2 416.8 126.2 478.9 128.2C524.7 129.4 546.4 159.3 543.8 217.6z"/>
  </symbol>
  <symbol id="whatsapp" viewBox="0 0 640 640">
    <path fill="currentColor" d="M476.9 161.1C435 119.1 379.2 96 319.9 96C197.5 96 97.9 195.6 97.9 318C97.9 357.1 108.1 395.3 127.5 429L96 544L213.7 513.1C246.1 530.8 282.6 540.1 319.8 540.1L319.9 540.1C442.2 540.1 544 440.5 544 318.1C544 258.8 518.8 203.1 476.9 161.1zM319.9 502.7C286.7 502.7 254.2 493.8 225.9 477L219.2 473L149.4 491.3L168 423.2L163.6 416.2C145.1 386.8 135.4 352.9 135.4 318C135.4 216.3 218.2 133.5 320 133.5C369.3 133.5 415.6 152.7 450.4 187.6C485.2 222.5 506.6 268.8 506.5 318.1C506.5 419.9 421.6 502.7 319.9 502.7zM421.1 364.5C415.6 361.7 388.3 348.3 383.2 346.5C378.1 344.6 374.4 343.7 370.7 349.3C367 354.9 356.4 367.3 353.1 371.1C349.9 374.8 346.6 375.3 341.1 372.5C308.5 356.2 287.1 343.4 265.6 306.5C259.9 296.7 271.3 297.4 281.9 276.2C283.7 272.5 282.8 269.3 281.4 266.5C280 263.7 268.9 236.4 264.3 225.3C259.8 214.5 255.2 216 251.8 215.8C248.6 215.6 244.9 215.6 241.2 215.6C237.5 215.6 231.5 217 226.4 222.5C221.3 228.1 207 241.5 207 268.8C207 296.1 226.9 322.5 229.6 326.2C232.4 329.9 268.7 385.9 324.4 410C359.6 425.2 373.4 426.5 391 423.9C401.7 422.3 423.8 410.5 428.4 397.5C433 384.5 433 373.4 431.6 371.1C430.3 368.6 426.6 367.2 421.1 364.5z"/>
  </symbol>
  <symbol id="x-twitter" viewBox="0 0 640 640">
    <path fill="currentColor" d="M453.2 112L523.8 112L369.6 288.2L551 528L409 528L297.7 382.6L170.5 528L99.8 528L264.7 339.5L90.8 112L236.4 112L336.9 244.9L453.2 112zM428.4 485.8L467.5 485.8L215.1 152L173.1 152L428.4 485.8z"/>
  </symbol>
  <symbol id="youtube" viewBox="0 0 640 640">
    <path fill="currentColor" d="M581.7 188.1C575.5 164.4 556.9 145.8 533.4 139.5C490.9 128 320.1 128 320.1 128C320.1 128 149.3 128 106.7 139.5C83.2 145.8 64.7 164.4 58.4 188.1C47 231 47 320.4 47 320.4C47 320.4 47 409.8 58.4 452.7C64.7 476.3 83.2 494.2 106.7 500.5C149.3 512 320.1 512 320.1 512C320.1 512 490.9 512 533.5 500.5C557 494.2 575.5 476.3 581.8 452.7C593.2 409.8 593.2 320.4 593.2 320.4C593.2 320.4 593.2 231 581.8 188.1zM264.2 401.6L264.2 239.2L406.9 320.4L264.2 401.6z"/>
  </symbol>
</svg>
