<svg xmlns="http://www.w3.org/2000/svg" style="display:none">
  <symbol id="angle-right" viewBox="0 0 640 640">
    <path fill="currentColor" d="M427.3 308.7C433.5 314.9 433.5 325.1 427.3 331.3L267.3 491.3C261.1 497.5 250.9 497.5 244.7 491.3C238.5 485.1 238.5 474.9 244.7 468.7L393.4 320L244.7 171.3C238.5 165.1 238.5 154.9 244.7 148.7C250.9 142.5 261.1 142.5 267.3 148.7L427.3 308.7z"/>
  </symbol>
  <symbol id="arrow-right" viewBox="0 0 640 640">
    <path fill="currentColor" d="M571.3 331.3C577.5 325.1 577.5 314.9 571.3 308.7L395.3 132.7C389.1 126.5 378.9 126.5 372.7 132.7C366.5 138.9 366.5 149.1 372.7 155.3L521.4 304L80 304C71.2 304 64 311.2 64 320C64 328.8 71.2 336 80 336L521.4 336L372.7 484.7C366.5 490.9 366.5 501.1 372.7 507.3C378.9 513.5 389.1 513.5 395.3 507.3L571.3 331.3z"/>
  </symbol>
  <symbol id="arrow-rotate-left" viewBox="0 0 640 640">
    <path fill="currentColor" d="M80 64C88.8 64 96 71.2 96 80L96 183.8L133 144.7C181.6 93.2 249.2 64 320 64C461.4 64 576 178.6 576 320C576 461.4 461.4 576 320 576C221.7 576 136.4 520.6 93.5 439.5C89.4 431.7 92.4 422 100.2 417.9C108 413.8 117.7 416.8 121.8 424.6C159.4 495.6 234.1 544 320 544C443.7 544 544 443.7 544 320C544 196.3 443.7 96 320 96C258 96 198.8 121.5 156.2 166.6L117.1 208L224 208C232.8 208 240 215.2 240 224C240 232.8 232.8 240 224 240L80 240C71.2 240 64 232.8 64 224L64 80C64 71.2 71.2 64 80 64z"/>
  </symbol>
  <symbol id="arrow-up-right-from-square" viewBox="0 0 640 640">
    <path fill="currentColor" d="M368 64C359.2 64 352 71.2 352 80C352 88.8 359.2 96 368 96L521.4 96L260.7 356.7C254.5 362.9 254.5 373.1 260.7 379.3C266.9 385.5 277.1 385.5 283.3 379.3L544 118.6L544 272C544 280.8 551.2 288 560 288C568.8 288 576 280.8 576 272L576 80C576 71.2 568.8 64 560 64L368 64zM144 160C99.8 160 64 195.8 64 240L64 496C64 540.2 99.8 576 144 576L400 576C444.2 576 480 540.2 480 496L480 400C480 391.2 472.8 384 464 384C455.2 384 448 391.2 448 400L448 496C448 522.5 426.5 544 400 544L144 544C117.5 544 96 522.5 96 496L96 240C96 213.5 117.5 192 144 192L240 192C248.8 192 256 184.8 256 176C256 167.2 248.8 160 240 160L144 160z"/>
  </symbol>
  <symbol id="arrows-rotate" viewBox="0 0 640 640">
    <path fill="currentColor" d="M96.5 305.1C100 252.8 121.7 201.6 161.6 161.6C205.3 117.9 262.6 96 320 96C382 96 441.2 121.5 483.8 166.6L522.9 208L416 208C407.2 208 400 215.2 400 224C400 232.8 407.2 240 416 240L560 240C568.8 240 576 232.8 576 224L576 80C576 71.2 568.8 64 560 64C551.2 64 544 71.2 544 80L544 183.8L507 144.7C458.4 93.2 390.8 64 320 64C254.5 64 189 89 139 139C93.3 184.6 68.5 243.2 64.6 302.9C64 311.8 70.7 319.4 79.5 320C88.3 320.6 95.9 313.9 96.5 305.1zM543.5 335C540 387.3 518.3 438.5 478.4 478.4C434.7 522.1 377.4 544 320 544C258 544 198.8 518.5 156.2 473.4L117.1 432L224 432C232.8 432 240 424.8 240 416C240 407.2 232.8 400 224 400L80 400C71.2 400 64 407.2 64 416L64 560C64 568.8 71.2 576 80 576C88.8 576 96 568.8 96 560L96 456.2L133 495.3C181.6 546.8 249.3 575.9 320 575.9C385.5 575.9 451 550.9 501 500.9C546.6 455.3 571.4 396.6 575.4 336.9C576 328.1 569.3 320.5 560.5 319.9C551.7 319.3 544.1 326 543.5 334.8z"/>
  </symbol>
  <symbol id="bag-shopping" viewBox="0 0 640 640">
    <path fill="currentColor" d="M256 128L256 192L384 192L384 128C384 92.7 355.3 64 320 64C284.7 64 256 92.7 256 128zM224 224L144 224C135.2 224 128 231.2 128 240L128 448C128 483.3 156.7 512 192 512L448 512C483.3 512 512 483.3 512 448L512 240C512 231.2 504.8 224 496 224L416 224L416 304C416 312.8 408.8 320 400 320C391.2 320 384 312.8 384 304L384 224L256 224L256 304C256 312.8 248.8 320 240 320C231.2 320 224 312.8 224 304L224 224zM224 192L224 128C224 75 267 32 320 32C373 32 416 75 416 128L416 192L496 192C522.5 192 544 213.5 544 240L544 448C544 501 501 544 448 544L192 544C139 544 96 501 96 448L96 240C96 213.5 117.5 192 144 192L224 192z"/>
  </symbol>
  <symbol id="check" viewBox="0 0 640 640">
    <path fill="currentColor" d="M537.4 131.1C544.5 136.3 546.1 146.3 540.9 153.5L260.9 537.5C258.1 541.3 253.9 543.7 249.2 544C244.5 544.3 240 542.7 236.6 539.4L100.6 403.4C94.4 397.2 94.4 387 100.6 380.8C106.8 374.6 117 374.6 123.2 380.8L246 503.6L515 134.7C520.2 127.6 530.2 126 537.4 131.2z"/>
  </symbol>
  <symbol id="delete-left" viewBox="0 0 640 640">
    <path fill="currentColor" d="M544 192C544 174.3 529.7 160 512 160L205.3 160C196.8 160 188.7 163.4 182.7 169.4L32 320L182.6 470.6C188.6 476.6 196.7 480 205.2 480L512 480C529.7 480 544 465.7 544 448L544 192zM512 128C547.3 128 576 156.7 576 192L576 448C576 483.3 547.3 512 512 512L205.3 512C188.3 512 172 505.3 160 493.3L9.4 342.6C3.4 336.6 0 328.5 0 320C0 311.5 3.4 303.4 9.4 297.4L160 146.7C172 134.7 188.3 128 205.3 128L512 128zM419.3 252.7C425.5 258.9 425.5 269.1 419.3 275.3L374.6 320L419.3 364.7C425.5 370.9 425.5 381.1 419.3 387.3C413.1 393.5 402.9 393.5 396.7 387.3L352 342.6L307.3 387.3C301.1 393.5 290.9 393.5 284.7 387.3C278.5 381.1 278.5 370.9 284.7 364.7L329.4 320L284.7 275.3C278.5 269.1 278.5 258.9 284.7 252.7C290.9 246.5 301.1 246.5 307.3 252.7L352 297.4L396.7 252.7C402.9 246.5 413.1 246.5 419.3 252.7z"/>
  </symbol>
  <symbol id="ellipsis-vertical" viewBox="0 0 640 640">
    <path fill="currentColor" d="M320 480C337.7 480 352 494.3 352 512C352 529.7 337.7 544 320 544C302.3 544 288 529.7 288 512C288 494.3 302.3 480 320 480zM320 288C337.7 288 352 302.3 352 320C352 337.7 337.7 352 320 352C302.3 352 288 337.7 288 320C288 302.3 302.3 288 320 288zM288 128C288 110.3 302.3 96 320 96C337.7 96 352 110.3 352 128C352 145.7 337.7 160 320 160C302.3 160 288 145.7 288 128z"/>
  </symbol>
  <symbol id="grip-lines" viewBox="0 0 640 640">
    <path fill="currentColor" d="M544 240C544 231.2 536.8 224 528 224L112 224C103.2 224 96 231.2 96 240C96 248.8 103.2 256 112 256L528 256C536.8 256 544 248.8 544 240zM544 400C544 391.2 536.8 384 528 384L112 384C103.2 384 96 391.2 96 400C96 408.8 103.2 416 112 416L528 416C536.8 416 544 408.8 544 400z"/>
  </symbol>
  <symbol id="minus" viewBox="0 0 640 640">
    <path fill="currentColor" d="M96 320C96 311.2 103.2 304 112 304L528 304C536.8 304 544 311.2 544 320C544 328.8 536.8 336 528 336L112 336C103.2 336 96 328.8 96 320z"/>
  </symbol>
  <symbol id="plus" viewBox="0 0 640 640">
    <path fill="currentColor" d="M336 112C336 103.2 328.8 96 320 96C311.2 96 304 103.2 304 112L304 304L112 304C103.2 304 96 311.2 96 320C96 328.8 103.2 336 112 336L304 336L304 528C304 536.8 311.2 544 320 544C328.8 544 336 536.8 336 528L336 336L528 336C536.8 336 544 328.8 544 320C544 311.2 536.8 304 528 304L336 304L336 112z"/>
  </symbol>
  <symbol id="sliders" viewBox="0 0 640 640">
    <path fill="currentColor" d="M64 480C64 471.2 71.2 464 80 464L145.6 464C153 427.5 185.3 400 224 400C262.7 400 295 427.5 302.4 464L560 464C568.8 464 576 471.2 576 480C576 488.8 568.8 496 560 496L302.4 496C295 532.5 262.7 560 224 560C185.3 560 153 532.5 145.6 496L80 496C71.2 496 64 488.8 64 480zM272 480C272 453.5 250.5 432 224 432C197.5 432 176 453.5 176 480C176 506.5 197.5 528 224 528C250.5 528 272 506.5 272 480zM464 320C464 293.5 442.5 272 416 272C389.5 272 368 293.5 368 320C368 346.5 389.5 368 416 368C442.5 368 464 346.5 464 320zM416 240C454.7 240 487 267.5 494.4 304L560 304C568.8 304 576 311.2 576 320C576 328.8 568.8 336 560 336L494.4 336C487 372.5 454.7 400 416 400C377.3 400 345 372.5 337.6 336L80 336C71.2 336 64 328.8 64 320C64 311.2 71.2 304 80 304L337.6 304C345 267.5 377.3 240 416 240zM256 112C229.5 112 208 133.5 208 160C208 186.5 229.5 208 256 208C282.5 208 304 186.5 304 160C304 133.5 282.5 112 256 112zM334.4 144L560 144C568.8 144 576 151.2 576 160C576 168.8 568.8 176 560 176L334.4 176C327 212.5 294.7 240 256 240C217.3 240 185 212.5 177.6 176L80 176C71.2 176 64 168.8 64 160C64 151.2 71.2 144 80 144L177.6 144C185 107.5 217.3 80 256 80C294.7 80 327 107.5 334.4 144z"/>
  </symbol>
  <symbol id="trash-can" viewBox="0 0 640 640">
    <path fill="currentColor" d="M256.5 91.4C258.5 84.6 264.8 80 271.8 80L368.2 80C375.3 80 381.5 84.6 383.5 91.4L394.5 128L245.5 128L256.5 91.4zM212.1 128L112 128C103.2 128 96 135.2 96 144C96 152.8 103.2 160 112 160L528 160C536.8 160 544 152.8 544 144C544 135.2 536.8 128 528 128L427.9 128L414.2 82.2C408.1 61.9 389.4 48 368.2 48L271.8 48C250.6 48 231.9 61.9 225.8 82.2L212.1 128zM128 208L128 512C128 547.3 156.7 576 192 576L448 576C483.3 576 512 547.3 512 512L512 208L480 208L480 512C480 529.7 465.7 544 448 544L192 544C174.3 544 160 529.7 160 512L160 208L128 208zM240 272C240 263.2 232.8 256 224 256C215.2 256 208 263.2 208 272L208 464C208 472.8 215.2 480 224 480C232.8 480 240 472.8 240 464L240 272zM336 272C336 263.2 328.8 256 320 256C311.2 256 304 263.2 304 272L304 464C304 472.8 311.2 480 320 480C328.8 480 336 472.8 336 464L336 272zM432 272C432 263.2 424.8 256 416 256C407.2 256 400 263.2 400 272L400 464C400 472.8 407.2 480 416 480C424.8 480 432 472.8 432 464L432 272z"/>
  </symbol>
  <symbol id="trash-can-slash" viewBox="0 0 640 640">
    <path fill="currentColor" d="M59.3 36.8C53.1 30.6 42.9 30.6 36.7 36.8C30.5 43 30.5 53.2 36.7 59.4L580.7 603.4C586.9 609.6 597.1 609.6 603.3 603.4C609.5 597.2 609.5 587 603.3 580.8L512 489.5L512 208L480 208L480 457.5L432 409.5L432 272C432 263.2 424.8 256 416 256C407.2 256 400 263.2 400 272L400 377.5L336 313.5L336 272C336 263.2 328.8 256 320 256C311.2 256 304 263.2 304 272L304 281.5L182.5 160L528 160C536.8 160 544 152.8 544 144C544 135.2 536.8 128 528 128L427.9 128L414.2 82.2C408.1 61.9 389.4 48 368.2 48L271.8 48C250.6 48 231.9 61.9 225.8 82.2L212.1 128L150.5 128L59.3 36.8zM128 512C128 547.3 156.7 576 192 576L448 576C458.9 576 469.1 573.3 478 568.5L453.1 543.6C451.4 543.9 449.7 544 448 544L192 544C174.3 544 160 529.7 160 512L160 250.5L128 218.5L128 512zM208 464C208 472.8 215.2 480 224 480C232.8 480 240 472.8 240 464L240 330.5L208 298.5L208 464zM304 464C304 472.8 311.2 480 320 480C328.8 480 336 472.8 336 464L336 426.5L304 394.5L304 464zM256.5 91.4C258.5 84.6 264.8 80 271.8 80L368.2 80C375.3 80 381.5 84.6 383.5 91.4L394.5 128L245.5 128L256.5 91.4z"/>
  </symbol>
  <symbol id="user" viewBox="0 0 640 640">
    <path fill="currentColor" d="M224 192C224 139 267 96 320 96C373 96 416 139 416 192C416 245 373 288 320 288C267 288 224 245 224 192zM448 192C448 121.3 390.7 64 320 64C249.3 64 192 121.3 192 192C192 262.7 249.3 320 320 320C390.7 320 448 262.7 448 192zM128 544C128 464.5 192.5 400 272 400L368 400C447.5 400 512 464.5 512 544L512 560C512 568.8 519.2 576 528 576C536.8 576 544 568.8 544 560L544 544C544 446.8 465.2 368 368 368L272 368C174.8 368 96 446.8 96 544L96 560C96 568.8 103.2 576 112 576C120.8 576 128 568.8 128 560L128 544z"/>
  </symbol>
  <symbol id="xmark" viewBox="0 0 640 640">
    <path fill="currentColor" d="M507.3 155.3C513.5 149.1 513.5 138.9 507.3 132.7C501.1 126.5 490.9 126.5 484.7 132.7L320 297.4L155.3 132.7C149.1 126.5 138.9 126.5 132.7 132.7C126.5 138.9 126.5 149.1 132.7 155.3L297.4 320L132.7 484.7C126.5 490.9 126.5 501.1 132.7 507.3C138.9 513.5 149.1 513.5 155.3 507.3L320 342.6L484.7 507.3C490.9 513.5 501.1 513.5 507.3 507.3C513.5 501.1 513.5 490.9 507.3 484.7L342.6 320L507.3 155.3z"/>
  </symbol>
  <symbol id="box-circle-check" viewBox="0 0 640 640">
    <path fill="currentColor" opacity=".4" d="M96 224L480 224L480 272.7C474.7 272.3 469.4 272 464 272C358 272 272 358 272 464C272 480.6 274.1 496.7 278 512L128 512C110.3 512 96 497.7 96 480L96 224zM103.3 192L150.9 125.4C156.9 117 166.6 112 176.9 112L272 112L272 192L103.3 192zM304 112L399.1 112C409.4 112 419.1 117 425.1 125.4L472.7 192L304 192L304 112z"/>
  <path fill="currentColor" d="M480 224L480 272.7C491 273.6 501.6 275.4 512 278.1L512 212.6C512 199.3 507.8 186.3 500.1 175.4L451.1 106.8C439.1 90 419.7 80 399.1 80L176.9 80C156.2 80 136.8 90 124.8 106.8L75.9 175.3C68.2 186.2 64 199.2 64 212.5L64 480C64 515.3 92.7 544 128 544L289.4 544C284.7 533.8 280.9 523.1 278 512L128 512C110.3 512 96 497.7 96 480L96 224L480 224zM103.3 192L150.9 125.4C156.9 117 166.6 112 176.9 112L272 112L272 192L103.3 192zM304 192L304 112L399.1 112C409.4 112 419.1 117 425.1 125.4L472.7 192L304 192zM464 352C525.9 352 576 402.1 576 464C576 525.9 525.9 576 464 576C402.1 576 352 525.9 352 464C352 402.1 402.1 352 464 352zM464 608C543.5 608 608 543.5 608 464C608 384.5 543.5 320 464 320C384.5 320 320 384.5 320 464C320 543.5 384.5 608 464 608zM521.4 403.1C514.3 397.9 504.2 399.5 499 406.6L446 479.5L419.2 452.7C413 446.5 402.8 446.5 396.6 452.7C390.4 458.9 390.4 469.1 396.6 475.3L436.6 515.3C439.9 518.6 444.5 520.3 449.2 519.9C453.9 519.5 458.1 517.1 460.9 513.4L524.9 425.4C530.1 418.3 528.5 408.2 521.4 403z"/>
  </symbol>
  <symbol id="briefcase-blank" viewBox="0 0 640 640">
    <path fill="currentColor" opacity=".4" d="M96 224L96 480C96 497.7 110.3 512 128 512L512 512C529.7 512 544 497.7 544 480L544 224C544 206.3 529.7 192 512 192L128 192C110.3 192 96 206.3 96 224z"/>
  <path fill="currentColor" d="M256 112L256 160L384 160L384 112C384 103.2 376.8 96 368 96L272 96C263.2 96 256 103.2 256 112zM224 160L224 112C224 85.5 245.5 64 272 64L368 64C394.5 64 416 85.5 416 112L416 160L512 160C547.3 160 576 188.7 576 224L576 480C576 515.3 547.3 544 512 544L128 544C92.7 544 64 515.3 64 480L64 224C64 188.7 92.7 160 128 160L224 160zM400 192L128 192C110.3 192 96 206.3 96 224L96 480C96 497.7 110.3 512 128 512L512 512C529.7 512 544 497.7 544 480L544 224C544 206.3 529.7 192 512 192L400 192z"/>
  </symbol>
  <symbol id="bullhorn" viewBox="0 0 640 640">
    <path fill="currentColor" opacity=".4" d="M96 320C96 373 139 416 192 416L272 416L272 224L264 224C240 224 216 224 192 224C139 224 96 267 96 320zM304 222.9L304 417C371.7 422.7 435.9 451 485.9 497.7L512 522.1L512 117.9L485.9 142.3C435.9 189 371.7 217.3 304 223z"/>
  <path fill="currentColor" d="M512 117.9L512 522.1L485.9 497.7C435.9 451 371.7 422.7 304 417L304 222.9C371.7 217.2 435.9 188.9 485.9 142.2L512 117.9zM304 449.2C363.6 454.8 420 480 464.1 521.2L497.8 552.7C502.9 557.4 509.6 560.1 516.5 560.1C531.7 560.1 544 547.8 544 532.6L544 107.6C544 92.4 531.7 80.1 516.5 80.1C509.5 80.1 502.8 82.7 497.8 87.5L464.1 118.8C413.9 165.7 347.8 191.8 279.2 192L192 192C121.3 192 64 249.3 64 320C64 379.6 104.8 429.8 160 444L160 528C160 554.5 181.5 576 208 576L256 576C282.5 576 304 554.5 304 528L304 449.2zM264 448L272 448L272 528C272 536.8 264.8 544 256 544L208 544C199.2 544 192 536.8 192 528L192 448L264 448zM264 224L272 224L272 416L192 416C139 416 96 373 96 320C96 267 139 224 192 224L264 224L264 224z"/>
  </symbol>
  <symbol id="circle-exclamation" viewBox="0 0 640 640">
    <path fill="currentColor" opacity=".4" d="M96 320C96 443.7 196.3 544 320 544C443.7 544 544 443.7 544 320C544 196.3 443.7 96 320 96C196.3 96 96 196.3 96 320zM344 424C344 437.3 333.3 448 320 448C306.7 448 296 437.3 296 424C296 410.7 306.7 400 320 400C333.3 400 344 410.7 344 424zM296.5 216.9C295.7 203.4 306.5 192 320 192C333.5 192 344.3 203.4 343.5 216.9L335.9 352.9C335.4 361.4 328.4 368 319.9 368C311.4 368 304.4 361.4 303.9 352.9L296.3 216.9z"/>
  <path fill="currentColor" d="M320 576C178.6 576 64 461.4 64 320C64 178.6 178.6 64 320 64C461.4 64 576 178.6 576 320C576 461.4 461.4 576 320 576zM320 96C196.3 96 96 196.3 96 320C96 443.7 196.3 544 320 544C443.7 544 544 443.7 544 320C544 196.3 443.7 96 320 96zM320 448C306.7 448 296 437.3 296 424C296 410.7 306.7 400 320 400C333.3 400 344 410.7 344 424C344 437.3 333.3 448 320 448zM320 192C333.5 192 344.3 203.4 343.5 216.9L335.9 352.9C335.4 361.4 328.4 368 319.9 368C311.4 368 304.4 361.4 303.9 352.9L296.3 216.9C295.5 203.4 306.3 192 319.8 192z"/>
  </symbol>
  <symbol id="circle-info" viewBox="0 0 640 640">
    <path fill="currentColor" opacity=".4" d="M96 320C96 443.7 196.3 544 320 544C443.7 544 544 443.7 544 320C544 196.3 443.7 96 320 96C196.3 96 96 196.3 96 320zM256 304C256 295.2 263.2 288 272 288L320 288C328.8 288 336 295.2 336 304L336 416L368 416C376.8 416 384 423.2 384 432C384 440.8 376.8 448 368 448L272 448C263.2 448 256 440.8 256 432C256 423.2 263.2 416 272 416L304 416L304 320L272 320C263.2 320 256 312.8 256 304zM344 224C344 237.3 333.3 248 320 248C306.7 248 296 237.3 296 224C296 210.7 306.7 200 320 200C333.3 200 344 210.7 344 224z"/>
  <path fill="currentColor" d="M320 96C443.7 96 544 196.3 544 320C544 443.7 443.7 544 320 544C196.3 544 96 443.7 96 320C96 196.3 196.3 96 320 96zM320 576C461.4 576 576 461.4 576 320C576 178.6 461.4 64 320 64C178.6 64 64 178.6 64 320C64 461.4 178.6 576 320 576zM272 416C263.2 416 256 423.2 256 432C256 440.8 263.2 448 272 448L368 448C376.8 448 384 440.8 384 432C384 423.2 376.8 416 368 416L336 416L336 304C336 295.2 328.8 288 320 288L272 288C263.2 288 256 295.2 256 304C256 312.8 263.2 320 272 320L304 320L304 416L272 416zM320 248C333.3 248 344 237.3 344 224C344 210.7 333.3 200 320 200C306.7 200 296 210.7 296 224C296 237.3 306.7 248 320 248z"/>
  </symbol>
  <symbol id="circle-question" viewBox="0 0 640 640">
    <path fill="currentColor" opacity=".4" d="M96 320C96 443.7 196.3 544 320 544C443.7 544 544 443.7 544 320C544 196.3 443.7 96 320 96C196.3 96 96 196.3 96 320zM240 272C240 227.8 275.8 192 320 192C364.2 192 400 227.8 400 272C400 311.6 374.3 332.3 353.8 342.1C342.3 347.6 336 356.6 336 364.3L336 370C336 378.8 328.8 386 320 386C311.2 386 304 378.8 304 370L304 364.3C304 339.7 322.3 321.7 340 313.3C354.5 306.4 368 294.5 368 272.1C368 245.6 346.5 224.1 320 224.1C293.5 224.1 272 245.6 272 272.1C272 280.9 264.8 288.1 256 288.1C247.2 288.1 240 280.9 240 272.1zM344 440C344 453.3 333.3 464 320 464C306.7 464 296 453.3 296 440C296 426.7 306.7 416 320 416C333.3 416 344 426.7 344 440z"/>
  <path fill="currentColor" d="M544 320C544 196.3 443.7 96 320 96C196.3 96 96 196.3 96 320C96 443.7 196.3 544 320 544C443.7 544 544 443.7 544 320zM64 320C64 178.6 178.6 64 320 64C461.4 64 576 178.6 576 320C576 461.4 461.4 576 320 576C178.6 576 64 461.4 64 320zM320 224C293.5 224 272 245.5 272 272C272 280.8 264.8 288 256 288C247.2 288 240 280.8 240 272C240 227.8 275.8 192 320 192C364.2 192 400 227.8 400 272C400 311.6 374.3 332.3 353.8 342.1C342.3 347.6 336 356.6 336 364.3L336 370C336 378.8 328.8 386 320 386C311.2 386 304 378.8 304 370L304 364.3C304 339.7 322.3 321.7 340 313.3C354.5 306.4 368 294.5 368 272.1C368 245.6 346.5 224.1 320 224.1zM296 440C296 426.7 306.7 416 320 416C333.3 416 344 426.7 344 440C344 453.3 333.3 464 320 464C306.7 464 296 453.3 296 440z"/>
  </symbol>
  <symbol id="dot" viewBox="0 0 640 640">
    <path fill="currentColor" d="M320 256C355.3 256 384 284.7 384 320C384 355.3 355.3 384 320 384C284.7 384 256 355.3 256 320C256 284.7 284.7 256 320 256z"/>
  </symbol>
  <symbol id="envelope" viewBox="0 0 640 640">
    <path fill="currentColor" opacity=".4" d="M96 186.5C96 194.9 100 202.9 106.8 207.9L291.6 343.3C308.5 355.7 331.5 355.7 348.4 343.3L533.2 207.8C540 202.8 544 194.9 544 186.4C544 171.8 532.1 159.9 517.5 159.9L122.5 159.9C107.9 160 96 171.9 96 186.5zM96 239.6L96 448C96 465.7 110.3 480 128 480L512 480C529.7 480 544 465.7 544 448L544 239.6L367.3 369.2C339.1 389.8 300.8 389.8 272.7 369.2L96 239.6z"/>
  <path fill="currentColor" d="M64 186.5L64 184L64.1 184C65.3 152.9 91 128 122.5 128L517.5 128C549 128 574.6 152.9 575.9 184L576 184L576 448C576 483.3 547.3 512 512 512L128 512C92.7 512 64 483.3 64 448L64 186.5zM544 239.6L367.3 369.1C339.1 389.7 300.8 389.7 272.7 369.1L96 239.6L96 448C96 465.7 110.3 480 128 480L512 480C529.7 480 544 465.7 544 448L544 239.6zM544 186.5C544 171.9 532.1 160 517.5 160L122.5 160C107.9 160 96 171.9 96 186.5C96 194.9 100 202.9 106.8 207.9L291.6 343.3C308.5 355.7 331.5 355.7 348.4 343.3L533.2 207.8C540 202.8 544 194.9 544 186.4z"/>
  </symbol>
  <symbol id="gift" viewBox="0 0 640 640">
    <path fill="currentColor" opacity=".4" d="M96 240L96 272C96 280.8 103.2 288 112 288L528 288C536.8 288 544 280.8 544 272L544 240C544 231.2 536.8 224 528 224L112 224C103.2 224 96 231.2 96 240zM128 320L128 480C128 497.7 142.3 512 160 512L304 512L304 320L128 320zM336 320L336 512L480 512C497.7 512 512 497.7 512 480L512 320L336 320z"/>
  <path fill="currentColor" d="M372.5 122.7L337.9 192L416 192C442.5 192 464 170.5 464 144C464 117.5 442.4 96 415.8 96C397.5 96 380.7 106.4 372.5 122.7zM224 224L112 224C103.2 224 96 231.2 96 240L96 272C96 280.8 103.2 288 112 288L528 288C536.8 288 544 280.8 544 272L544 240C544 231.2 536.8 224 528 224L224 224zM112 192L160 192C150 178.6 144 162 144 144C144 99.8 180 64 224.2 64C254.6 64 282.5 81.2 296.1 108.4L320 156.2L343.9 108.4C357.5 81.2 385.4 64 415.8 64C459.9 64 496 99.8 496 144C496 162 490 178.6 480 192L528 192C554.5 192 576 213.5 576 240L576 272C576 292.9 562.6 310.7 544 317.3L544 480C544 515.3 515.3 544 480 544L160 544C124.7 544 96 515.3 96 480L96 317.3C77.4 310.7 64 292.9 64 272L64 240C64 213.5 85.5 192 112 192zM302.1 192L267.5 122.7C259.3 106.4 242.5 96 224.2 96C197.6 96 176 117.5 176 144C176 170.5 197.5 192 224 192L302.1 192zM128 480C128 497.7 142.3 512 160 512L304 512L304 320L128 320L128 480zM336 512L480 512C497.7 512 512 497.7 512 480L512 320L336 320L336 512z"/>
  </symbol>
  <symbol id="heart" viewBox="0 0 640 640">
    <path fill="currentColor" opacity=".4" d="M96 229.1C96 284.1 130.4 336.2 167.8 381.6C209.9 432.8 261.2 477.6 296.3 504.5C302.5 509.3 310.7 512 320 512C329.3 512 337.4 509.3 343.7 504.5C378.8 477.7 430.1 432.8 472.2 381.6C509.5 336.2 544 284.1 544 229.1C544 173.2 498.7 128 442.9 128C410.5 128 380 143.6 361 169.9L333 208.6C330 212.8 325.2 215.2 320 215.2C314.8 215.2 310 212.7 307 208.6L279 169.9C260.1 143.6 229.6 128 197.1 128C141.3 128 96 173.3 96 229.1z"/>
  <path fill="currentColor" d="M442.9 128C410.5 128 380 143.6 361 169.9L333 208.6C330 212.8 325.2 215.2 320 215.2C314.8 215.2 310 212.7 307 208.6L279 169.9L279 169.9C260 143.6 229.5 128 197.1 128C141.2 128 96 173.3 96 229.1C96 284.1 130.4 336.2 167.8 381.6C209.9 432.8 261.2 477.6 296.3 504.5C302.5 509.3 310.7 512 320 512C329.3 512 337.4 509.3 343.7 504.5C378.8 477.7 430.1 432.8 472.2 381.6C509.5 336.2 544 284.1 544 229.1C544 173.2 498.7 128 442.9 128zM335 151.1C360 116.5 400.2 96 442.9 96C516.4 96 576 155.6 576 229.1C576 296.5 534.4 356.4 496.9 401.9C452.8 455.5 399.6 502 363.1 529.8C350.7 539.2 335.5 543.9 320 543.9C304.5 543.9 289.2 539.3 276.9 529.8C240.4 502 187.2 455.5 143.1 402C105.6 356.4 64 296.5 64 229.1C64 155.6 123.6 96 197.1 96C239.8 96 280 116.5 305 151.1L320 171.8L335 151.1z"/>
  </symbol>
  <symbol id="hearts" viewBox="0 0 640 640">
    <path fill="currentColor" opacity=".4" d="M257.2 326.2C253.8 365.5 272.6 408.6 305.3 452.1C332.6 488.2 367 521.3 398.3 548.3C433.8 527.1 473.5 500.5 506.6 469.7C546.4 432.6 572.4 393.4 575.9 354.1C579.2 316.8 551.6 283.9 514.2 280.6C492.5 278.7 471.2 287.3 457 303.8C451.4 310.3 437.5 326.3 415.5 351.8C398.2 322.9 387.4 304.7 382.9 297.3C371.7 278.6 352.3 266.4 330.6 264.5C293.3 261.2 260.4 288.8 257.1 326.2z"/>
  <path fill="currentColor" d="M195.9 174.3L224.9 207.8L257.5 153.3C268.7 134.6 288.1 122.4 309.8 120.5C347.1 117.2 380 144.8 383.3 182.2C383.7 186.9 383.8 191.6 383.6 196.4C394.4 201.1 404.6 207 414 214.1C415.7 202.6 416.2 191 415.2 179.4C410.4 124.5 362 83.8 307 88.6C279.8 91 255.1 104.3 238.1 125.2C235.1 128.9 232.4 132.7 230 136.8L220.2 153.3L207.6 138.8C204.5 135.2 201.1 131.8 197.6 128.7C177.3 111.1 150.6 102.2 123.4 104.6C68.5 109.4 27.8 157.8 32.6 212.8C39.7 293.7 118.1 362 190.7 409.9C185.2 394.7 181 378.9 178.8 362.7C163.2 351.2 147.9 338.8 133.8 325.7C94 288.6 68 249.4 64.5 210.1C61.2 172.8 88.8 139.9 126.2 136.6C147.9 134.7 169.2 143.3 183.4 159.8L196 174.3zM392.9 313.7L415.6 351.7C437.6 326.2 451.5 310.2 457.1 303.7C471.3 287.2 492.6 278.6 514.3 280.5C551.6 283.8 579.2 316.7 576 354C572.6 393.3 546.6 432.5 506.7 469.6C473.6 500.4 433.9 527.1 398.4 548.2C367.1 521.2 332.6 488.1 305.4 452C272.6 408.5 253.8 365.4 257.3 326.1C260.6 288.8 293.5 261.2 330.8 264.4C352.5 266.3 371.9 278.5 383.1 297.2L392.9 313.7zM225.4 323.3C216.5 425.5 323.1 527.7 395 587.2C476.2 541.1 599 458.9 607.9 356.7C612.7 301.8 572.1 253.3 517.1 248.5C489.9 246.1 463.2 255 442.9 272.6C439.3 275.7 436 279 432.9 282.7L420.3 297.2L410.4 280.7C408 276.6 405.2 272.7 402.3 269.1C385.4 248.2 360.6 234.9 333.4 232.5C278.5 227.7 230 268.3 225.2 323.3z"/>
  </symbol>
  <symbol id="lightbulb" viewBox="0 0 640 640">
    <path fill="currentColor" opacity=".4" d="M160 256C160 298.7 176.7 337.4 203.9 366.1C223.8 387 244.3 414.8 252.4 448L387.6 448C395.7 414.7 416.2 387 436.1 366.1C463.3 337.4 480 298.7 480 256C480 167.6 408.4 96 320 96C231.6 96 160 167.6 160 256zM208 240C208 187 251 144 304 144C312.8 144 320 151.2 320 160C320 168.8 312.8 176 304 176C268.7 176 240 204.7 240 240C240 248.8 232.8 256 224 256C215.2 256 208 248.8 208 240zM256 480L256 496C256 522.5 277.5 544 304 544L336 544C362.5 544 384 522.5 384 496L384 480L256 480z"/>
  <path fill="currentColor" d="M436.1 366.1C463.3 337.4 480 298.7 480 256C480 167.6 408.4 96 320 96C231.6 96 160 167.6 160 256C160 298.7 176.7 337.4 203.9 366.1C223.8 387 244.3 414.8 252.4 448L387.6 448C395.7 414.7 416.2 387 436.1 366.1zM256 496C256 522.5 277.5 544 304 544L336 544C362.5 544 384 522.5 384 496L384 480L256 480L256 496zM459.3 388.1C435.7 413 416 443.4 416 477.7L416 496C416 540.2 380.2 576 336 576L304 576C259.8 576 224 540.2 224 496L224 477.7C224 443.4 204.3 413 180.7 388.1C148 353.7 128 307.2 128 256C128 150 214 64 320 64C426 64 512 150 512 256C512 307.2 492 353.7 459.3 388.1zM240 240C240 248.8 232.8 256 224 256C215.2 256 208 248.8 208 240C208 187 251 144 304 144C312.8 144 320 151.2 320 160C320 168.8 312.8 176 304 176C268.7 176 240 204.7 240 240z"/>
  </symbol>
  <symbol id="message-smile" viewBox="0 0 640 640">
    <path fill="currentColor" opacity=".4" d="M96 192L96 416C96 451.3 124.7 480 160 480L200 480C213.3 480 224 490.7 224 504L224 572L336 488C342.9 482.8 351.3 480 360 480L480 480C515.3 480 544 451.3 544 416L544 192C544 156.7 515.3 128 480 128L160 128C124.7 128 96 156.7 96 192zM218.6 370.7C212.7 364.1 213.3 354 219.9 348.1C226.5 342.2 236.6 342.8 242.5 349.4C261.5 370.6 289.2 384 320 384C350.8 384 378.5 370.6 397.5 349.3C403.4 342.7 413.5 342.2 420.1 348C426.7 353.8 427.2 364 421.4 370.6C396.5 398.5 360.3 416 320 416C279.7 416 243.5 398.5 218.6 370.7zM280 256C280 269.3 269.3 280 256 280C242.7 280 232 269.3 232 256C232 242.7 242.7 232 256 232C269.3 232 280 242.7 280 256zM408 256C408 269.3 397.3 280 384 280C370.7 280 360 269.3 360 256C360 242.7 370.7 232 384 232C397.3 232 408 242.7 408 256z"/>
  <path fill="currentColor" d="M243.2 597.6L243.2 597.6L355.2 513.6C356.6 512.6 358.3 512 360 512L480 512C533 512 576 469 576 416L576 192C576 139 533 96 480 96L160 96C107 96 64 139 64 192L64 416C64 469 107 512 160 512L192 512L192 580C192 595.5 204.5 608 220 608C226.1 608 232 606 236.8 602.4L243.2 597.6zM224 512L224 504C224 490.7 213.3 480 200 480L160 480C124.7 480 96 451.3 96 416L96 192C96 156.7 124.7 128 160 128L480 128C515.3 128 544 156.7 544 192L544 416C544 451.3 515.3 480 480 480L360 480C351.3 480 342.9 482.8 336 488L224 572L224 512zM256 280C269.3 280 280 269.3 280 256C280 242.7 269.3 232 256 232C242.7 232 232 242.7 232 256C232 269.3 242.7 280 256 280zM384 280C397.3 280 408 269.3 408 256C408 242.7 397.3 232 384 232C370.7 232 360 242.7 360 256C360 269.3 370.7 280 384 280zM219.9 348.1C213.3 354 212.8 364.1 218.6 370.7C243.5 398.5 279.7 416 320 416C360.3 416 396.5 398.5 421.4 370.7C427.3 364.1 426.7 354 420.1 348.1C413.5 342.2 403.4 342.8 397.5 349.4C378.5 370.6 350.8 384 320 384C289.2 384 261.5 370.6 242.5 349.3C236.6 342.7 226.5 342.2 219.9 348z"/>
  </symbol>
  <symbol id="note-sticky" viewBox="0 0 640 640">
    <path fill="currentColor" opacity=".4" d="M128 160L128 480C128 497.7 142.3 512 160 512L352 512L352 416C352 380.7 380.7 352 416 352L512 352L512 160C512 142.3 497.7 128 480 128L160 128C142.3 128 128 142.3 128 160z"/>
  <path fill="currentColor" d="M352 512L160 512C142.3 512 128 497.7 128 480L128 160C128 142.3 142.3 128 160 128L480 128C497.7 128 512 142.3 512 160L512 352L416 352C380.7 352 352 380.7 352 416L352 512zM498.7 384L384 498.7L384 416C384 398.3 398.3 384 416 384L498.7 384zM96 480C96 515.3 124.7 544 160 544L357.5 544C374.5 544 390.8 537.3 402.8 525.3L525.3 402.7C537.3 390.7 544 374.4 544 357.4L544 160C544 124.7 515.3 96 480 96L160 96C124.7 96 96 124.7 96 160L96 480z"/>
  </symbol>
  <symbol id="phone" viewBox="0 0 640 640">
    <path fill="currentColor" opacity=".4" d="M98.2 221.4C131.6 382 258.1 508.4 418.7 541.9C476.9 554 527.1 512.2 541.6 458.9L543.4 452.2C545.7 443.8 541.4 435 533.3 431.6L440 392.7C432.9 389.8 424.8 391.8 419.9 397.7L383.3 442.4C378.6 448.1 370.7 449.9 364.1 446.7C289.1 411.1 229.1 349.1 196 272.7C193.2 266.1 195 258.5 200.6 254L242.2 219.9C248.1 215.1 250.2 206.9 247.2 199.8L208.4 106.7C205 98.7 196.2 94.4 187.8 96.6L181.1 98.4C127.9 113 86.1 163.1 98.2 221.4z"/>
  <path fill="currentColor" d="M208.4 106.7C205 98.7 196.2 94.4 187.8 96.6L181.1 98.4C127.9 113 86.1 163.1 98.2 221.4C131.6 382 258.1 508.4 418.7 541.9C476.9 554 527.1 512.2 541.6 458.9L543.4 452.2C545.7 443.8 541.4 435 533.3 431.6L440 392.7C432.9 389.8 424.8 391.8 419.9 397.7L383.3 442.4C378.6 448.1 370.7 449.9 364.1 446.7C289.1 411.1 229.1 349.1 196 272.7C193.2 266.1 195 258.5 200.6 254L242.2 219.9C248.1 215.1 250.2 206.9 247.2 199.8L208.4 106.7zM179.4 65.8C203.3 59.3 228.4 71.5 237.9 94.4L276.8 187.7C285.2 207.8 279.4 231.1 262.5 244.9L230.4 271.2C259.4 331.7 307.5 381.4 366.7 412.5L395.2 377.6C409 360.7 432.2 354.9 452.4 363.3L545.7 402.2C568.6 411.7 580.8 436.8 574.3 460.7L572.5 467.4C554.8 532.3 491.2 589.6 412.2 573.2C239.1 537.2 102.9 401 66.9 227.9C50.4 148.8 107.7 85.3 172.7 67.6L179.4 65.8z"/>
  </symbol>
  <symbol id="pipe" viewBox="0 0 640 640">
    <path fill="currentColor" d="M320 64C328.8 64 336 71.2 336 80L336 560C336 568.8 328.8 576 320 576C311.2 576 304 568.8 304 560L304 80C304 71.2 311.2 64 320 64z"/>
  </symbol>
  <symbol id="sack-dollar" viewBox="0 0 640 640">
    <path fill="currentColor" opacity=".4" d="M112 480.8C112 515.7 140.3 544 175.2 544L464.8 544C499.7 544 528 515.7 528 480.8C528 370.2 459 302.9 373 224L267 224C181 303 112 370.3 112 480.8zM224 101.9C224 102.9 224.3 103.9 224.8 104.8L274.6 191.9L365.5 191.9L415.3 104.8C415.8 103.9 416.1 102.9 416.1 101.9C416.1 98.6 413.4 96 410.2 96L229.9 96C226.6 96 224 98.7 224 101.9zM256 350.3C256 324.7 276.7 304 302.3 304L304 304L304 296C304 287.2 311.2 280 320 280C328.8 280 336 287.2 336 296L336 304L352 304C360.8 304 368 311.2 368 320C368 328.8 360.8 336 352 336L302.3 336C294.4 336 288 342.4 288 350.3C288 357.3 293.1 363.3 300 364.4L345.3 372C367.6 375.7 384 395 384 417.7C384 443.3 363.3 464 337.7 464L336 464L336 472C336 480.8 328.8 488 320 488C311.2 488 304 480.8 304 472L304 464L280 464C271.2 464 264 456.8 264 448C264 439.2 271.2 432 280 432L337.7 432C345.6 432 352 425.6 352 417.7C352 410.7 346.9 404.7 340 403.6L294.7 396C272.4 392.3 256 373 256 350.3z"/>
  <path fill="currentColor" d="M443 120.7L396.5 202.1C480.7 279.4 560 355.6 560 480.8C560 533.4 517.4 576 464.8 576L175.2 576C122.6 576 80 533.4 80 480.8C80 355.6 159.3 279.4 243.5 202.1L197 120.7C193.7 115 192 108.5 192 101.9C192 81 209 64 229.9 64L410.1 64C431 64 448 81 448 101.9C448 108.5 446.3 115 443 120.7zM267 224C181 303 112 370.3 112 480.8C112 515.7 140.3 544 175.2 544L464.8 544C499.7 544 528 515.7 528 480.8C528 370.2 459 302.9 373 224L267 224zM415.2 104.9C415.7 104 416 103 416 102C416 98.7 413.3 96.1 410.1 96.1L229.9 96C226.6 96 224 98.7 224 101.9C224 102.9 224.3 103.9 224.8 104.8L274.6 191.9L365.5 191.9L415.3 104.8zM320 280C328.8 280 336 287.2 336 296L336 304L352 304C360.8 304 368 311.2 368 320C368 328.8 360.8 336 352 336L302.3 336C294.4 336 288 342.4 288 350.3C288 357.3 293.1 363.3 300 364.4L345.3 372C367.6 375.7 384 395 384 417.7C384 443.3 363.3 464 337.7 464L336 464L336 472C336 480.8 328.8 488 320 488C311.2 488 304 480.8 304 472L304 464L280 464C271.2 464 264 456.8 264 448C264 439.2 271.2 432 280 432L337.7 432C345.6 432 352 425.6 352 417.7C352 410.7 346.9 404.7 340 403.6L294.7 396C272.4 392.3 256 373 256 350.3C256 324.7 276.7 304 302.3 304L304 304L304 296C304 287.2 311.2 280 320 280z"/>
  </symbol>
  <symbol id="shield-check" viewBox="0 0 640 640">
    <path fill="currentColor" opacity=".4" d="M112 203.8C112.5 297.8 151.3 463.6 307.4 538.3C315.3 542.1 324.6 542.1 332.5 538.3C488.6 463.6 527.5 297.9 528 203.8C528.1 191.7 520.5 181 509.2 176.2L332.5 101.2C324.5 97.8 315.5 97.8 307.5 101.2L130.7 176.2C119.5 181 112 191.7 112 203.8zM228.5 343.6C222.4 337.2 222.5 327.1 228.9 321C235.3 314.9 245.4 315.1 251.5 321.4L292.7 364L387.1 234.2C392.3 227.1 402.3 225.5 409.4 230.7C416.5 235.9 418.1 245.9 412.9 253L307.4 398.2C304.6 402 300.3 404.4 295.6 404.7C290.9 405 286.3 403.3 283 399.9L228.6 343.6z"/>
  <path fill="currentColor" d="M295.1 71.8C311.1 65 329.1 65 345.1 71.8L521.8 146.8C543.8 156.1 560.2 177.8 560.1 204C559.6 303.2 518.8 484.7 346.4 567.2C329.7 575.2 310.3 575.2 293.7 567.2C121.3 484.7 80.6 303.2 80.1 204C80 177.8 96.4 156.1 118.4 146.8L295.1 71.8zM332.6 101.2C324.6 97.8 315.6 97.8 307.6 101.2L130.8 176.2C119.5 181 112 191.7 112 203.8C112.5 297.8 151.3 463.6 307.4 538.3C315.3 542.1 324.6 542.1 332.5 538.3C488.6 463.6 527.5 297.9 528 203.8C528.1 191.7 520.5 181 509.2 176.2L332.5 101.2zM387.1 234.1C392.3 227 402.3 225.4 409.4 230.6C416.5 235.8 418.1 245.8 412.9 252.9L307.4 398.2C304.6 402 300.3 404.4 295.6 404.7C290.9 405 286.3 403.3 283 399.9L228.6 343.6C222.5 337.2 222.6 327.1 229 321C235.4 314.9 245.5 315.1 251.6 321.4L292.8 364L387.2 234.2z"/>
  </symbol>
  <symbol id="sparkles" viewBox="0 0 640 640">
    <path fill="currentColor" opacity=".4" d="M86.2 320L175.1 361.1C178.6 362.7 181.3 365.5 182.9 368.9L224 457.8L265.1 368.9C266.7 365.5 269.5 362.7 272.9 361.1L361.8 320L272.9 278.9C269.4 277.3 266.7 274.5 265.1 271.1L224 182.2L182.9 271.1C181.3 274.6 178.5 277.3 175.1 278.9L86.2 320z"/>
  <path fill="currentColor" d="M512 48C520.8 48 528 55.2 528 64L528 112L576 112C584.8 112 592 119.2 592 128C592 136.8 584.8 144 576 144L528 144L528 192C528 200.8 520.8 208 512 208C503.2 208 496 200.8 496 192L496 144L448 144C439.2 144 432 136.8 432 128C432 119.2 439.2 112 448 112L496 112L496 64C496 55.2 503.2 48 512 48zM224 128C230.2 128 235.9 131.6 238.5 137.3L291.6 252.3L406.6 305.4C412.3 308 415.9 313.7 415.9 319.9C415.9 326.1 412.3 331.8 406.6 334.4L291.6 387.5L238.5 502.5C235.9 508.2 230.2 511.8 224 511.8C217.8 511.8 212.1 508.2 209.5 502.5L156.4 387.5L41.4 334.4C35.6 331.9 32 326.2 32 320C32 313.8 35.6 308.1 41.3 305.5L156.3 252.4L209.4 137.4C212 131.7 217.7 128.1 223.9 128.1zM224 182.2L182.9 271.1C181.3 274.6 178.5 277.3 175.1 278.9L86.2 320L175.1 361.1C178.6 362.7 181.3 365.5 182.9 368.9L224 457.8L265.1 368.9C266.7 365.5 269.5 362.7 272.9 361.1L361.8 320L272.9 278.9C269.4 277.3 266.7 274.5 265.1 271.1L224 182.2zM496 448L496 496L544 496C552.8 496 560 503.2 560 512C560 520.8 552.8 528 544 528L496 528L496 576C496 584.8 488.8 592 480 592C471.2 592 464 584.8 464 576L464 528L416 528C407.2 528 400 520.8 400 512C400 503.2 407.2 496 416 496L464 496L464 448C464 439.2 471.2 432 480 432C488.8 432 496 439.2 496 448z"/>
  </symbol>
  <symbol id="star-sharp" viewBox="0 0 640 640">
    <path fill="currentColor" opacity=".4" d="M107.3 272L233.3 363C238.8 367 241.2 374.1 239.2 380.6L195.4 524.5L310.1 435.3C315.9 430.8 324 430.8 329.7 435.3L444.4 524.5L400.6 380.6C398.6 374.1 401 367 406.5 363L532.5 272L383.8 272C376.8 272 370.7 267.5 368.6 260.9L320 107.6L271.2 260.9C269.1 267.5 263 272 256 272L107.3 272z"/>
  <path fill="currentColor" d="M320 107.6L271.2 260.9C269.1 267.5 263 272 256 272L107.3 272L233.3 363C238.8 367 241.2 374.1 239.2 380.6L195.4 524.5L310.1 435.3C315.9 430.8 324 430.8 329.7 435.3L444.4 524.5L400.6 380.6C398.6 374.1 401 367 406.5 363L532.5 272L383.8 272C376.8 272 370.7 267.5 368.6 260.9L320 107.6zM294.3 82.8C297.9 71.6 308.3 64 320 64C331.7 64 342.1 71.6 345.7 82.8L395.7 240L549.4 240C564.1 240 576 251.9 576 266.6C576 275.1 571.9 283.2 565 288.2L434.7 382.3L485.5 549.3C489.6 562.6 479.6 576.1 465.7 576.1C461.1 576.1 456.6 574.6 453 571.7L320 468.3L187.1 571.6C183.5 574.4 179 576 174.4 576C160.5 576 150.5 562.6 154.6 549.2L205.4 382.2L75.1 288.1C68.2 283.1 64.1 275.1 64.1 266.5C64.1 251.8 76 239.9 90.7 239.9L244.4 239.9L294.4 82.7z"/>
  </symbol>
  <symbol id="store" viewBox="0 0 640 640">
    <path fill="currentColor" opacity=".4" d="M104.1 215.1L123 155.9C128.2 139.3 143.7 128 161.1 128L198.6 128C195.7 160 192.8 192.1 189.9 224.1L189.2 232.3C187.2 254.8 168.3 272 145.8 272C116.3 272 95.3 243.3 104.2 215.1zM128.1 416L512.1 416L512.1 472C512.1 494.1 494.2 512 472.1 512L168.1 512C146 512 128.1 494.1 128.1 472L128.1 416zM221.7 227L230.7 128L304.1 128L304.1 230.7C304.1 253.5 285.6 272 262.8 272C238.5 272 219.5 251.2 221.7 227zM336.1 128L409.5 128C412.5 161 415.5 194 418.5 227.1C420.6 251.2 401.6 272 377.4 272C354.6 272 336.1 253.5 336.1 230.7L336.1 128zM441.6 128L479.1 128C496.5 128 512 139.3 517.3 155.9L536.2 215.1C545.2 243.2 524.2 272 494.6 272C472 272 453.2 254.8 451.2 232.3C451 229.6 450.7 226.9 450.5 224.1L441.7 128z"/>
  <path fill="currentColor" d="M92.5 146.2C102 116.3 129.7 96 161.1 96L479.1 96C510.5 96 538.2 116.3 547.8 146.2L566.6 205.4C576.3 235.8 565.8 266.6 544.1 285.5L544.1 472C544.1 511.8 511.9 544 472.1 544L168.1 544C128.3 544 96.1 511.8 96.1 472L96.1 285.5C74.4 266.7 63.9 235.9 73.6 205.4L92.5 146.2zM441.7 128L450.4 224.1L450.4 224.2L451.1 232.3C453.1 254.8 472 272 494.5 272C524 272 545 243.3 536.1 215.1L517.3 155.9C512 139.3 496.6 128 479.2 128L441.7 128zM418.6 227.1C418.6 227.1 418.6 227 418.6 227L409.6 128L336.2 128L336.2 230.7C336.2 253.5 354.7 272 377.5 272C401.7 272 420.8 251.2 418.6 227.1zM320.2 276.5C306.8 293.3 286.1 304.1 262.9 304.1C239.2 304.1 218.2 292.9 204.9 275.6C191 293 169.6 304.1 145.7 304.1C139.6 304.1 133.8 303.4 128.2 302.1L128.2 384.1L512.2 384.1L512.2 302.1C506.6 303.4 500.7 304.1 494.7 304.1C470.9 304.1 449.5 293 435.5 275.6C422.2 292.9 401.2 304.1 377.5 304.1C354.3 304.1 333.6 293.3 320.2 276.5zM304.1 128L230.7 128L221.7 227C219.5 251.2 238.5 272 262.8 272C285.6 272 304.1 253.5 304.1 230.7L304.1 128zM161.1 128C143.7 128 128.2 139.3 123 155.9L104.1 215.1C95.1 243.2 116.1 272 145.7 272C168.3 272 187.1 254.8 189.1 232.3L189.8 224.1L189.8 224.1L198.5 128L161 128zM128.1 416L128.1 472C128.1 494.1 146 512 168.1 512L472.1 512C494.2 512 512.1 494.1 512.1 472L512.1 416L128.1 416z"/>
  </symbol>
  <symbol id="store-24" viewBox="0 0 640 640">
    <path fill="currentColor" opacity=".4" d=""/>
  <path fill="currentColor" d="M129.1 96C97.7 96 70 116.3 60.5 146.2L41.6 205.4C31.9 235.8 42.4 266.6 64.1 285.5L64.1 472C64.1 511.8 96.3 544 136.1 544L304.1 544L304.1 512L136.1 512C114 512 96.1 494.1 96.1 472L96.1 416L306.1 416C309.3 403.4 316.3 392.3 325.8 384L96.1 384L96.1 302C101.7 303.3 107.6 304 113.6 304C137.4 304 158.8 292.9 172.8 275.5C186.1 292.8 207.1 304 230.8 304C254 304 274.7 293.2 288.1 276.4C301.5 293.2 322.2 304 345.4 304C369.1 304 390.1 292.8 403.4 275.5C417.3 292.9 438.7 304 462.6 304C468.7 304 474.5 303.3 480.1 302L480.1 368L512.1 368L512.1 285.5C533.8 266.6 544.3 235.8 534.6 205.4L515.8 146.2C506.3 116.3 478.5 96 447.2 96L129.2 96zM418.4 224.1L409.7 128L447.2 128C464.6 128 480.1 139.3 485.4 155.9L504.3 215.1C513.3 243.2 492.3 272 462.7 272C440.1 272 421.3 254.8 419.3 232.3L418.6 224.2L418.6 224.1zM386.5 227L386.5 227.1C388.6 251.2 369.6 272 345.4 272C322.6 272 304.1 253.5 304.1 230.7L304.1 128L377.5 128L386.5 227zM198.7 128L272.1 128L272.1 230.7C272.1 253.5 253.6 272 230.8 272C206.5 272 187.5 251.2 189.7 227L198.7 128zM166.6 128L157.9 224.1L157.9 224.1L157.2 232.3C155.2 254.8 136.3 272 113.8 272C84.3 272 63.3 243.3 72.2 215.1L91 155.9C96.2 139.3 111.7 128 129.1 128L166.6 128zM352.1 464C352.1 472.8 359.3 480 368.1 480C376.9 480 384.1 472.8 384.1 464C384.1 455.2 391.3 448 400.1 448C408.9 448 416.1 455.2 416.1 464L416.1 465C416.1 470.8 414 476.3 410.2 480.6L357.7 539.7C354.2 543.7 352.2 548.8 352.2 554.2C352.2 566.2 362 576 374 576L432.2 576C441 576 448.2 568.8 448.2 560C448.2 551.2 441 544 432.2 544L396.7 544L434.1 501.9C443.1 491.7 448.1 478.6 448.1 465L448.1 464C448.1 437.5 426.6 416 400.1 416C373.6 416 352.1 437.5 352.1 464zM480.1 496C480.1 500.2 481.8 504.3 484.8 507.3C487.8 510.3 491.9 512 496.1 512L544.1 512L544.1 560C544.1 568.8 551.3 576 560.1 576C568.9 576 576.1 568.8 576.1 560L576.1 432C576.1 423.2 568.9 416 560.1 416C551.3 416 544.1 423.2 544.1 432L544.1 480L512.1 480L512.1 432C512.1 423.2 504.9 416 496.1 416C487.3 416 480.1 423.2 480.1 432L480.1 496z"/>
  </symbol>
  <symbol id="tag" viewBox="0 0 640 640">
    <path fill="currentColor" opacity=".4" d="M128.1 160C128.1 142.3 142.4 128 160.1 128L316.2 128C324.7 128 332.8 131.4 338.8 137.4L530.8 329.4C543.3 341.9 543.3 362.2 530.8 374.7L374.7 530.7C362.2 543.2 341.9 543.2 329.4 530.7L137.4 338.7C131.4 332.7 128 324.6 128 316.1L128.1 160zM184.1 208C184.1 221.3 194.8 232 208.1 232C221.4 232 232.1 221.3 232.1 208C232.1 194.7 221.4 184 208.1 184C194.8 184 184.1 194.7 184.1 208z"/>
  <path fill="currentColor" d="M128.1 160C128.1 142.3 142.4 128 160.1 128L316.2 128C324.7 128 332.8 131.4 338.8 137.4L530.8 329.4C543.3 341.9 543.3 362.2 530.8 374.7L374.7 530.7C362.2 543.2 341.9 543.2 329.4 530.7L137.4 338.7C131.4 332.7 128 324.6 128 316.1L128.1 160zM160.1 96C124.8 96 96.1 124.7 96.1 160L96.1 316.1C96.1 333.1 102.8 349.4 114.8 361.4L306.8 553.4C331.8 578.4 372.3 578.4 397.3 553.4L553.5 397.3C578.5 372.3 578.5 331.8 553.5 306.8L361.5 114.8C349.5 102.8 333.2 96.1 316.2 96.1L160.1 96zM208.1 232C221.4 232 232.1 221.3 232.1 208C232.1 194.7 221.4 184 208.1 184C194.8 184 184.1 194.7 184.1 208C184.1 221.3 194.8 232 208.1 232z"/>
  </symbol>
  <symbol id="tags" viewBox="0 0 640 640">
    <path fill="currentColor" opacity=".4" d="M96.3 160C96.3 142.3 110.6 128 128.3 128L265.1 128C271.5 128 277.6 130.5 282.1 135L436.5 289.4C449 301.9 449 322.2 436.5 334.7L303 468.1C290.5 480.6 270.2 480.6 257.7 468.1L103.4 313.8C98.9 309.3 96.4 303.2 96.4 296.8L96.3 160zM152.3 208C152.3 221.3 163 232 176.3 232C189.6 232 200.3 221.3 200.3 208C200.3 194.7 189.6 184 176.3 184C163 184 152.3 194.7 152.3 208z"/>
  <path fill="currentColor" d="M96.3 160C96.3 142.3 110.6 128 128.3 128L265.1 128C271.5 128 277.6 130.5 282.1 135L436.5 289.4C449 301.9 449 322.2 436.5 334.7L303 468.1C290.5 480.6 270.2 480.6 257.7 468.1L103.4 313.8C98.9 309.3 96.4 303.2 96.4 296.8L96.3 160zM64.3 160L64.3 296.8C64.3 311.7 70.2 325.9 80.7 336.4L235.1 490.7C260.1 515.7 300.6 515.7 325.6 490.7L459.1 357.3C484.1 332.3 484.1 291.8 459.1 266.8L304.7 112.4C294.2 101.9 280 96 265.1 96L128.3 96C93 96 64.3 124.7 64.3 160zM413.1 116.6C406.8 122.8 406.7 132.9 412.9 139.2L566.8 295.1C576 304.5 576 319.5 566.8 328.8L404.8 492.7C398.6 499 398.6 509.1 404.9 515.3C411.2 521.5 421.3 521.5 427.5 515.2L589.5 351.3C611 329.5 611.1 294.4 589.5 272.6L435.7 116.8C429.5 110.5 419.4 110.4 413.1 116.6zM176.3 232C189.6 232 200.3 221.3 200.3 208C200.3 194.7 189.6 184 176.3 184C163 184 152.3 194.7 152.3 208C152.3 221.3 163 232 176.3 232z"/>
  </symbol>
  <symbol id="trophy" viewBox="0 0 640 640">
    <path fill="currentColor" opacity=".4" d="M193.1 111C199.3 274.9 238 350.2 269.2 384.5C284.7 401.6 299.1 409.3 308.5 412.8C313.3 414.6 317 415.4 319.1 415.8C319.6 415.9 320 415.9 320.3 416C320.6 416 321 415.9 321.5 415.8C323.6 415.5 327.3 414.7 332.1 412.8C341.5 409.3 355.9 401.5 371.4 384.5C402.6 350.3 441.2 274.9 447.5 111C447.8 103.2 441.3 96 432.4 96L208.4 96C199.4 96 193 103.3 193.3 111z"/>
  <path fill="currentColor" d="M208.2 96L432.2 96C441.2 96 447.6 103.3 447.3 111C441.1 274.9 402.4 350.2 371.2 384.5C355.7 401.6 341.3 409.3 331.9 412.8C327.1 414.6 323.4 415.4 321.3 415.8C320.8 415.9 320.4 415.9 320.1 416C319.8 416 319.4 415.9 318.9 415.8C316.8 415.5 313.1 414.7 308.3 412.8C298.9 409.3 284.5 401.5 269 384.5C237.8 350.3 199.2 274.9 192.9 111C192.6 103.2 199.1 96 208 96zM432.2 64L208.2 64C181.7 64 160.1 85.8 161.1 112.2C161.3 117.5 161.5 122.8 161.8 128L112.2 128C86.1 128 63.1 149.5 65.7 177.5C71.8 243.3 96 289 127.8 320.4C156.7 349 191.1 364.7 221.4 373.4C251.3 422.8 284.9 439.5 304.3 445.2L304.3 544.1L208.3 544.1C199.5 544.1 192.3 551.3 192.3 560.1C192.3 568.9 199.5 576.1 208.3 576.1L432.3 576.1C441.1 576.1 448.3 568.9 448.3 560.1C448.3 551.3 441.1 544.1 432.3 544.1L336.3 544.1L336.3 445.2C356.1 439.4 390.8 422.1 421.3 369.9C452.3 360.1 486 343.5 514.2 315.2C545.2 284.1 568.6 239.8 574.8 177.6C577.6 149.5 554.5 128 528.4 128L478.8 128C479.1 122.8 479.3 117.6 479.5 112.2C480.5 85.7 458.9 64 432.4 64zM476.4 160L528.2 160C537.5 160 543.5 167.3 542.7 174.4C537.2 229.6 516.9 266.9 491.3 292.5C476.2 307.6 459 319 441.4 327.5C457.4 286.9 470.3 232.6 476.4 160zM200.7 331.8C183.1 323.8 165.7 312.8 150.2 297.6C124.2 272 103 233.4 97.5 174.5C96.8 167.3 102.9 160 112.1 160L164 160C170.3 235.2 184 290.8 200.7 331.8z"/>
  </symbol>
  <symbol id="truck-fast" viewBox="0 0 640 640">
    <path fill="currentColor" opacity=".4" d="M64 176L64 224L208 224C216.8 224 224 231.2 224 240C224 248.8 216.8 256 208 256L64 256L64 320L144 320C152.8 320 160 327.2 160 336C160 344.8 152.8 352 144 352L96 352L96 448C96 465.7 110.3 480 128 480L128.4 480C132.4 435.1 170.1 400 216 400C261.9 400 299.6 435.1 303.6 480L400.3 480C403.1 449.2 421.7 423 447.9 409.6L448 160C448 142.3 433.7 128 416 128L128 128C110.3 128 96 142.3 96 160L96 176L64 176zM480 352L480 400.4C482.6 400.2 485.3 400 488 400C533.9 400 571.6 435.1 575.6 480L576 480C593.7 480 608 465.7 608 448L608 352L480 352z"/>
  <path fill="currentColor" d="M416 128L128 128C110.3 128 96 142.3 96 160L96 176L64 176L64 160C64 124.7 92.7 96 128 96L416 96C451.3 96 480 124.7 480 160L480 192L540.1 192C557.1 192 573.4 198.7 585.4 210.7L621.3 246.6C633.3 258.6 640 274.9 640 291.9L640 448C640 483.3 611.3 512 576 512L572.7 512C562.3 548.9 528.3 576 488 576C447.7 576 413.8 548.9 403.3 512L300.7 512C290.3 548.9 256.3 576 216 576C175.7 576 141.8 548.9 131.3 512L128 512C92.7 512 64 483.3 64 448L64 352L16 352C7.2 352 0 344.8 0 336C0 327.2 7.2 320 16 320L144 320C152.8 320 160 327.2 160 336C160 344.8 152.8 352 144 352L96 352L96 448C96 465.7 110.3 480 128 480L128.4 480C132.4 435.1 170.1 400 216 400C261.9 400 299.6 435.1 303.6 480L400.3 480C403.1 449.2 421.7 423 447.9 409.6L448 160C448 142.3 433.7 128 416 128zM480 400.4C482.6 400.2 485.3 400 488 400C533.9 400 571.6 435.1 575.6 480L576 480C593.7 480 608 465.7 608 448L608 352L480 352L480 400.4zM608 291.9C608 283.4 604.6 275.3 598.6 269.3L562.7 233.4C556.7 227.4 548.6 224 540.1 224L480 224L480 320L608 320L608 291.9zM64 256L16 256C7.2 256 0 248.8 0 240C0 231.2 7.2 224 16 224L208 224C216.8 224 224 231.2 224 240C224 248.8 216.8 256 208 256L64 256zM272 488C272 457.1 246.9 432 216 432C185.1 432 160 457.1 160 488C160 518.9 185.1 544 216 544C246.9 544 272 518.9 272 488zM544 488C544 457.1 518.9 432 488 432C457.1 432 432 457.1 432 488C432 518.9 457.1 544 488 544C518.9 544 544 518.9 544 488z"/>
  </symbol>
</svg>
