<svg xmlns="http://www.w3.org/2000/svg" style="display:none">
  <symbol id="bicycle" viewBox="0 0 640 640">
    <path fill="currentColor" opacity=".4" d="M48 416C48 469 91 512 144 512C191.6 512 231.1 477.4 238.7 432L141.2 432C126.9 432 117.6 417 124 404.2L165 322.3C158.3 320.8 151.2 320 144 320C91 320 48 363 48 416zM400.3 408.5C400.1 410.9 400.1 413.4 400 415.9C400 418.5 400.1 421.2 400.3 423.8C404.4 473.2 445.7 511.9 496 511.9C549 511.9 592 468.9 592 415.9C592 362.9 549 319.9 496 319.9C485.5 319.9 475.5 321.6 466.1 324.7L510.2 408.5C514.3 416.3 511.3 426 503.5 430.1C495.7 434.2 486 431.2 481.9 423.4L437.8 339.6C416.7 355.7 402.5 380.4 400.3 408.4z"/>
  <path fill="currentColor" d="M322.3 103.7C325.2 98.9 330.4 96 336 96L448 96C456.8 96 464 103.2 464 112C464 120.8 456.8 128 448 128L362.5 128L451 296.1C465 290.8 480.2 288 496 288C566.7 288 624 345.3 624 416C624 486.7 566.7 544 496 544C425.3 544 368 486.7 368 416C368 372.6 389.6 334.2 422.7 311.1L402 271.8L326.3 423.2C323.6 428.6 318.1 432 312 432L271 432C263.1 495.1 209.3 544 144 544C73.3 544 16 486.7 16 416C16 345.3 73.3 288 144 288C156.4 288 168.3 289.8 179.6 293L206.1 240L182.1 192L144 192C135.2 192 128 184.8 128 176C128 167.2 135.2 160 144 160L192 160C198.1 160 203.6 163.4 206.3 168.8L233.9 224L376.9 224L321.9 119.5C319.3 114.5 319.5 108.6 322.4 103.8zM224 275.8L161.9 400L286.1 400L224 275.8zM312 380.2L374.1 256L249.9 256L312 380.2zM481.8 423.4L437.7 339.6C414.7 357.1 399.9 384.8 399.9 415.9C399.9 468.9 442.9 511.9 495.9 511.9C548.9 511.9 591.9 468.9 591.9 415.9C591.9 362.9 548.9 319.9 495.9 319.9C485.4 319.9 475.4 321.6 466 324.7L510.1 408.5C514.2 416.3 511.2 426 503.4 430.1C495.6 434.2 485.9 431.2 481.8 423.4zM144 512C191.6 512 231.1 477.4 238.7 432L141.2 432C126.9 432 117.6 417 124 404.2L165 322.3C158.3 320.8 151.2 320 144 320C91 320 48 363 48 416C48 469 91 512 144 512z"/>
  </symbol>
  <symbol id="box" viewBox="0 0 640 640">
    <path fill="currentColor" opacity=".4" d="M128 224L128 480C128 497.7 142.3 512 160 512L480 512C497.7 512 512 497.7 512 480L512 224L128 224zM135.3 192L304 192L304 112L208.9 112C198.6 112 188.9 117 182.9 125.4L135.3 192zM336 112L336 192L504.7 192L457.1 125.4C451.1 117 441.4 112 431.1 112L336 112z"/>
  <path fill="currentColor" d="M512 480C512 497.7 497.7 512 480 512L160 512C142.3 512 128 497.7 128 480L128 224L512 224L512 480zM135.3 192L182.9 125.4C188.9 117 198.6 112 208.9 112L304 112L304 192L135.3 192zM336 192L336 112L431.1 112C441.4 112 451.1 117 457.1 125.4L504.7 192L336 192zM107.9 175.3C100.2 186.2 96 199.2 96 212.5L96 480C96 515.3 124.7 544 160 544L480 544C515.3 544 544 515.3 544 480L544 212.5C544 199.2 539.8 186.2 532.1 175.3L483.1 106.8C471.1 90 451.7 80 431.1 80L208.9 80C188.3 80 168.9 90 156.9 106.8L107.9 175.3z"/>
  </symbol>
  <symbol id="car" viewBox="0 0 640 640">
    <path fill="currentColor" opacity=".4" d="M96 320C96 313.9 97.7 308.2 100.7 303.3C103.9 299.5 107.5 295.9 111.3 292.7C116.2 289.7 121.9 288 128 288L512 288C518.1 288 523.8 289.7 528.7 292.7C532.5 295.9 536.1 299.5 539.3 303.3C542.3 308.2 544 313.9 544 320L544 448L96 448L96 320zM144 368C144 381.3 154.7 392 168 392C181.3 392 192 381.3 192 368C192 354.7 181.3 344 168 344C154.7 344 144 354.7 144 368zM448 368C448 381.3 458.7 392 472 392C485.3 392 496 381.3 496 368C496 354.7 485.3 344 472 344C458.7 344 448 354.7 448 368z"/>
  <path fill="currentColor" d="M172.9 171.8L144.8 256L495.1 256L467 171.8C458.3 145.6 433.9 128 406.3 128L233.7 128C206.2 128 181.7 145.6 173 171.8zM110.3 258.5L142.6 161.6C155.7 122.4 192.3 96 233.7 96L406.4 96C447.7 96 484.4 122.4 497.5 161.6L529.8 258.4C556.5 266.1 576.1 290.7 576.1 319.9L576.1 527.9C576.1 536.7 568.9 543.9 560.1 543.9C551.3 543.9 544.1 536.7 544.1 527.9L544.1 479.9L96.1 479.9L96.1 527.9C96.1 536.7 88.9 543.9 80.1 543.9C71.3 543.9 64 536.8 64 528L64 320C64 290.8 83.6 266.2 110.3 258.5zM128 288C110.3 288 96 302.3 96 320L96 448L544 448L544 320C544 302.3 529.7 288 512 288L128 288zM168 344C181.3 344 192 354.7 192 368C192 381.3 181.3 392 168 392C154.7 392 144 381.3 144 368C144 354.7 154.7 344 168 344zM448 368C448 354.7 458.7 344 472 344C485.3 344 496 354.7 496 368C496 381.3 485.3 392 472 392C458.7 392 448 381.3 448 368z"/>
  </symbol>
  <symbol id="credit-card" viewBox="0 0 640 640">
    <path fill="currentColor" opacity=".4" d="M96 192L96 256L544 256L544 192C544 174.3 529.7 160 512 160L128 160C110.3 160 96 174.3 96 192zM96 288L96 448C96 465.7 110.3 480 128 480L512 480C529.7 480 544 465.7 544 448L544 288L96 288zM160 400C160 391.2 167.2 384 176 384L208 384C216.8 384 224 391.2 224 400C224 408.8 216.8 416 208 416L176 416C167.2 416 160 408.8 160 400zM256 400C256 391.2 263.2 384 272 384L304 384C312.8 384 320 391.2 320 400C320 408.8 312.8 416 304 416L272 416C263.2 416 256 408.8 256 400z"/>
  <path fill="currentColor" d="M512 160C529.7 160 544 174.3 544 192L544 256L96 256L96 192C96 174.3 110.3 160 128 160L512 160zM544 288L544 448C544 465.7 529.7 480 512 480L128 480C110.3 480 96 465.7 96 448L96 288L544 288zM128 128C92.7 128 64 156.7 64 192L64 448C64 483.3 92.7 512 128 512L512 512C547.3 512 576 483.3 576 448L576 192C576 156.7 547.3 128 512 128L128 128zM160 400C160 408.8 167.2 416 176 416L208 416C216.8 416 224 408.8 224 400C224 391.2 216.8 384 208 384L176 384C167.2 384 160 391.2 160 400zM256 400C256 408.8 263.2 416 272 416L304 416C312.8 416 320 408.8 320 400C320 391.2 312.8 384 304 384L272 384C263.2 384 256 391.2 256 400z"/>
  </symbol>
  <symbol id="diamond-turn-right" viewBox="0 0 640 640">
    <path fill="currentColor" opacity=".4" d="M96 320C96 326.9 98.7 333.5 103.6 338.3L301.7 536.4C306.6 541.3 313.2 544 320 544C326.8 544 333.5 541.3 338.3 536.4L536.4 338.3C541.3 333.4 544 326.8 544 320C544 313.2 541.3 306.5 536.4 301.7L338.3 103.6C333.5 98.7 326.9 96 320 96C313.1 96 306.5 98.7 301.7 103.6L103.6 301.7C98.7 306.5 96 313.1 96 320zM240 336C240 300.7 268.7 272 304 272L393.4 272L348.7 227.3C342.5 221.1 342.5 210.9 348.7 204.7C354.9 198.5 365.1 198.5 371.3 204.7L443.3 276.7C449.5 282.9 449.5 293.1 443.3 299.3L371.3 371.3C365.1 377.5 354.9 377.5 348.7 371.3C342.5 365.1 342.5 354.9 348.7 348.7L393.4 304L304 304C286.3 304 272 318.3 272 336L272 384C272 392.8 264.8 400 256 400C247.2 400 240 392.8 240 384L240 336z"/>
  <path fill="currentColor" d="M81 361C70.1 350.1 64 335.4 64 320C64 304.6 70.1 289.9 81 279L279 81C289.9 70.1 304.6 64 320 64C335.4 64 350.1 70.1 361 81L559 279C569.9 289.9 576 304.6 576 320C576 335.4 569.9 350.1 559 361L361 559C350.1 569.9 335.4 576 320 576C304.6 576 289.9 569.9 279 559L81 361zM338.3 103.6C333.5 98.7 326.9 96 320 96C313.1 96 306.5 98.7 301.7 103.6L103.6 301.7C98.7 306.5 96 313.1 96 320C96 326.9 98.7 333.5 103.6 338.3L301.7 536.4C306.6 541.3 313.2 544 320 544C326.8 544 333.5 541.3 338.3 536.4L536.4 338.3C541.3 333.4 544 326.8 544 320C544 313.2 541.3 306.5 536.4 301.7L338.3 103.6zM443.3 299.3L371.3 371.3C365.1 377.5 354.9 377.5 348.7 371.3C342.5 365.1 342.5 354.9 348.7 348.7L393.4 304L304 304C286.3 304 272 318.3 272 336L272 384C272 392.8 264.8 400 256 400C247.2 400 240 392.8 240 384L240 336C240 300.7 268.7 272 304 272L393.4 272L348.7 227.3C342.5 221.1 342.5 210.9 348.7 204.7C354.9 198.5 365.1 198.5 371.3 204.7L443.3 276.7C449.5 282.9 449.5 293.1 443.3 299.3z"/>
  </symbol>
  <symbol id="dog-leashed" viewBox="0 0 640 640">
    <path fill="currentColor" opacity=".4" d="M128 256L128 528C128 536.8 135.2 544 144 544L176 544C184.8 544 192 536.8 192 528L192 416C192 410.6 194.7 405.5 199.3 402.6C203.9 399.7 209.6 399.2 214.5 401.4L234.5 410.3C251.5 417.8 269.9 420.9 288 419.6L288 256L128 256zM320 256L320 412.5C321.8 411.8 323.7 411.1 325.5 410.3L345.5 401.4L347.4 400.7C351.9 399.3 356.8 400 360.7 402.6C365.2 405.6 368 410.6 368 416L368 528C368 536.8 375.2 544 384 544L416 544C424.8 544 432 536.8 432 528L432 292.8L346 256L320 256zM362.7 228.3L439.9 261.4L448.7 234.9L449.7 232.6C452.4 227.4 457.9 224 463.9 224L474.8 224L474.9 223.7L518.5 223.7C550.8 220.4 576 193.1 576 160L576 128L528 128C523.8 128 519.7 126.3 516.7 123.3L503.4 110.1C494.4 101.1 482.2 96 469.5 96L390.3 96L362.7 228.3zM484 144C484 155 475 164 464 164C453 164 444 155 444 144C444 133 453 124 464 124C475 124 484 133 484 144z"/>
  <path fill="currentColor" d="M387.3 32.3C394.8 33.9 400 40.6 400 48L399.7 51.2L397 63.9L469.5 63.9C490.7 63.9 511.1 72.3 526.1 87.3L534.7 95.9L584.1 95.9C597.4 95.9 608.1 106.6 608.1 119.9L608.1 159.9C608.1 212.9 565.1 255.9 512.1 255.9L475.6 255.9L464.1 290.5L464.1 527.9C464.1 554.4 442.6 575.9 416.1 575.9L384.1 575.9C357.6 575.9 336.1 554.4 336.1 527.9L336.1 440.4C300.3 455.5 259.9 455.5 224.1 440.4L224.1 527.9C224.1 554.4 202.6 575.9 176.1 575.9L144.1 575.9C117.6 575.9 96.1 554.4 96.1 527.9L96.1 254.3C59.5 247 32 214.7 32 176C32 167.2 39.2 160 48 160C56.8 160 64 167.2 64 176C64 200.8 82.9 221.3 107.1 223.8L112 224L273.7 224L133.1 91.7L131 89.3C126.6 83.1 127 74.7 132.3 69C137.6 63.3 146 62.4 152.4 66.3L155 68.3L315 218.9L320.4 224L331.1 224L368.4 44.8L369.4 41.7C372.3 34.9 379.8 30.8 387.3 32.4zM128 528C128 536.8 135.2 544 144 544L176 544C184.8 544 192 536.8 192 528L192 416C192 410.6 194.7 405.5 199.3 402.6C203.9 399.7 209.6 399.2 214.5 401.4L234.5 410.3C251.5 417.8 269.9 420.9 288 419.6L288 256L128 256L128 528zM320 412.5C321.8 411.8 323.7 411.1 325.5 410.3L345.5 401.4L347.4 400.7C351.9 399.3 356.8 400 360.7 402.6C365.2 405.6 368 410.6 368 416L368 528C368 536.8 375.2 544 384 544L416 544C424.8 544 432 536.8 432 528L432 292.8L346 256L320 256L320 412.5zM362.7 228.3L439.9 261.4L448.7 234.9L449.7 232.6C452.4 227.4 457.9 224 463.9 224L511.9 224C547.2 224 575.9 195.3 575.9 160L575.9 128L527.9 128C523.7 128 519.6 126.3 516.6 123.3L503.4 110.1C494.4 101.1 482.2 96 469.5 96L390.3 96L362.7 228.3zM464 164C453 164 444 155 444 144C444 133 453 124 464 124C475 124 484 133 484 144C484 155 475 164 464 164z"/>
  </symbol>
  <symbol id="heart" viewBox="0 0 640 640">
    <path fill="currentColor" opacity=".4" d="M96 229.1C96 284.1 130.4 336.2 167.8 381.6C209.9 432.8 261.2 477.6 296.3 504.5C302.5 509.3 310.7 512 320 512C329.3 512 337.4 509.3 343.7 504.5C378.8 477.7 430.1 432.8 472.2 381.6C509.5 336.2 544 284.1 544 229.1C544 173.2 498.7 128 442.9 128C410.5 128 380 143.6 361 169.9L333 208.6C330 212.8 325.2 215.2 320 215.2C314.8 215.2 310 212.7 307 208.6L279 169.9C260.1 143.6 229.6 128 197.1 128C141.3 128 96 173.3 96 229.1z"/>
  <path fill="currentColor" d="M442.9 128C410.5 128 380 143.6 361 169.9L333 208.6C330 212.8 325.2 215.2 320 215.2C314.8 215.2 310 212.7 307 208.6L279 169.9L279 169.9C260 143.6 229.5 128 197.1 128C141.2 128 96 173.3 96 229.1C96 284.1 130.4 336.2 167.8 381.6C209.9 432.8 261.2 477.6 296.3 504.5C302.5 509.3 310.7 512 320 512C329.3 512 337.4 509.3 343.7 504.5C378.8 477.7 430.1 432.8 472.2 381.6C509.5 336.2 544 284.1 544 229.1C544 173.2 498.7 128 442.9 128zM335 151.1C360 116.5 400.2 96 442.9 96C516.4 96 576 155.6 576 229.1C576 296.5 534.4 356.4 496.9 401.9C452.8 455.5 399.6 502 363.1 529.8C350.7 539.2 335.5 543.9 320 543.9C304.5 543.9 289.2 539.3 276.9 529.8C240.4 502 187.2 455.5 143.1 402C105.6 356.4 64 296.5 64 229.1C64 155.6 123.6 96 197.1 96C239.8 96 280 116.5 305 151.1L320 171.8L335 151.1z"/>
  </symbol>
  <symbol id="location-arrow" viewBox="0 0 640 640">
    <path fill="currentColor" opacity=".4" d="M96 288L272.8 346.9C282.4 350.1 289.9 357.6 293 367.1L352 544L512 128L96 288z"/>
  <path fill="currentColor" d="M272.8 346.9C282.4 350.1 289.9 357.6 293 367.1L352 544L512 128L96 288L272.8 346.9zM534.6 105.4C543.5 114.3 546.4 127.7 541.8 139.5L381.8 555.5C377 568.1 364.7 576.3 351.2 576C337.7 575.7 325.8 566.9 321.6 554.1L262.7 377.3L85.9 318.4C73.1 314.1 64.3 302.2 64 288.7C63.7 275.2 71.9 263 84.5 258.1L500.5 98.1C512.3 93.6 525.7 96.4 534.6 105.3z"/>
  </symbol>
  <symbol id="location-dot" viewBox="0 0 640 640">
    <path fill="currentColor" opacity=".4" d="M160 252.6C160 166.6 231.1 96 320 96C408.9 96 480 166.6 480 252.6C480 302.9 454.1 362 418.6 418.2C384.6 472 344.6 518.7 320 545.6C295.4 518.7 255.4 471.9 221.4 418.2C185.9 362 160 302.9 160 252.6zM240 256C240 300.2 275.8 336 320 336C364.2 336 400 300.2 400 256C400 211.8 364.2 176 320 176C275.8 176 240 211.8 240 256z"/>
  <path fill="currentColor" d="M160 252.6C160 166.6 231.1 96 320 96C408.9 96 480 166.6 480 252.6C480 302.9 454.1 362 418.6 418.2C384.6 472 344.6 518.7 320 545.6C295.4 518.7 255.4 471.9 221.4 418.2C185.9 362 160 302.9 160 252.6zM320 64C214 64 128 148.4 128 252.6C128 371.9 248.2 514.9 298.4 569.4C310.2 582.2 329.8 582.2 341.6 569.4C391.8 514.9 512 371.9 512 252.6C512 148.4 426 64 320 64zM368 256C368 282.5 346.5 304 320 304C293.5 304 272 282.5 272 256C272 229.5 293.5 208 320 208C346.5 208 368 229.5 368 256zM320 176C275.8 176 240 211.8 240 256C240 300.2 275.8 336 320 336C364.2 336 400 300.2 400 256C400 211.8 364.2 176 320 176z"/>
  </symbol>
  <symbol id="location-question" viewBox="0 0 640 640">
    <path fill="currentColor" opacity=".4" d="M160 252.6C160 166.6 231.1 96 320 96C408.9 96 480 166.6 480 252.6C480 302.9 454.1 362 418.6 418.2C384.6 472 344.6 518.7 320 545.6C295.4 518.7 255.4 471.9 221.4 418.2C185.9 362 160 302.9 160 252.6zM250.8 245.2C250.8 254 258 261.2 266.8 261.2C275.6 261.2 282.8 254 282.8 245.2C282.8 224.6 299.5 208 320 208C340.5 208 357.2 224.7 357.2 245.2C357.2 263 346.2 272.2 334 277.7C319.3 284.3 303.9 299.2 303.9 320C303.9 328.8 311.1 336 319.9 336C328.7 336 335.9 328.8 335.9 320C335.9 316.2 339.3 310.4 347 306.9C364.8 298.9 389.1 281 389.1 245.2C389.1 207 358.1 176 319.9 176C281.7 176 250.7 207 250.7 245.2zM300 384C300 395 309 404 320 404C331 404 340 395 340 384C340 373 331 364 320 364C309 364 300 373 300 384z"/>
  <path fill="currentColor" d="M160 252.6C160 166.6 231.1 96 320 96C408.9 96 480 166.6 480 252.6C480 302.9 454.1 362 418.6 418.2C384.6 472 344.6 518.7 320 545.6C295.4 518.7 255.4 471.9 221.4 418.2C185.9 362 160 302.9 160 252.6zM320 64C214 64 128 148.4 128 252.6C128 371.9 248.2 514.9 298.4 569.4C310.2 582.2 329.8 582.2 341.6 569.4C391.8 514.9 512 371.9 512 252.6C512 148.4 426 64 320 64zM320 208C340.6 208 357.2 224.7 357.2 245.2C357.2 263 346.2 272.2 334 277.7C319.3 284.3 303.9 299.2 303.9 320C303.9 328.8 311.1 336 319.9 336C328.7 336 335.9 328.8 335.9 320C335.9 316.2 339.3 310.4 347 306.9C364.8 298.9 389.1 281 389.1 245.2C389.1 207 358.1 176 319.9 176C281.7 176 250.7 207 250.7 245.2C250.7 254 257.9 261.2 266.7 261.2C275.5 261.2 282.7 254 282.7 245.2C282.7 224.6 299.4 208 319.9 208zM340 384C340 373 331 364 320 364C309 364 300 373 300 384C300 395 309 404 320 404C331 404 340 395 340 384z"/>
  </symbol>
  <symbol id="money-bill-1-wave" viewBox="0 0 640 640">
    <path fill="currentColor" opacity=".4" d="M96 173.5L96 240C128.6 240 155.5 215.6 159.5 184.2C141.1 182.2 121.7 178.4 101.1 172.3C99.6 171.9 98 172.1 96.7 173C96.3 173.3 96.1 173.5 96 173.6zM96 272L96 416C148.2 416 190.6 457.6 192 509.5C231.8 508.2 266.9 496.9 304.4 484.5L308.7 483.1C350 469.3 394.8 454.4 448.6 454.2C453.5 405.8 494.4 368 544.1 368L544.1 224C491.9 224 449.5 182.4 448.1 130.5C408.3 131.8 373.2 143.1 335.7 155.6L331.4 157C290.1 170.8 245.3 185.7 191.5 185.8C186.6 234.2 145.7 272 96 272zM96 448L96 483.6C96 490.6 100.2 495.1 104.1 496.4C124.1 502.8 142.6 506.6 159.9 508.4C158 474.7 130.1 448 96 448zM224 320C224 288.1 233.9 258.6 250.7 236.7C267.5 214.8 291.9 200 320 200C348.1 200 372.4 214.8 389.3 236.7C406.1 258.6 416 288.1 416 320C416 351.9 406.1 381.4 389.3 403.3C372.4 425.2 348.1 440 320 440C291.9 440 267.6 425.2 250.7 403.3C233.9 381.4 224 351.9 224 320zM480.1 131.6C482 165.3 509.9 192 544 192L544 156.4C544 149.4 539.8 144.9 535.9 143.6C515.9 137.2 497.4 133.4 480.1 131.6zM480.5 455.8C498.9 457.8 518.3 461.6 538.9 467.7C540.4 468.1 542 467.9 543.3 467C543.7 466.7 543.9 466.5 544 466.4L544 399.9C511.4 399.9 484.5 424.2 480.5 455.7z"/>
  <path fill="currentColor" d="M96 448C130.1 448 158 474.7 159.9 508.4C142.5 506.6 124.1 502.8 104.1 496.4C100.2 495.2 96 490.6 96 483.6L96 448zM96 416L96 272C145.7 272 186.6 234.2 191.5 185.8C245.3 185.7 290 170.8 331.4 157L335.7 155.6C373.1 143.1 408.2 131.9 448.1 130.5C449.4 182.4 491.9 224 544.1 224L544.1 368C494.4 368 453.5 405.8 448.6 454.2C394.8 454.3 350.1 469.2 308.7 483.1L304.4 484.5C267 497 231.9 508.2 192 509.5C190.7 457.6 148.2 416 96 416zM538.9 467.8C518.3 461.6 498.9 457.8 480.5 455.9C484.5 424.4 511.4 400.1 544 400.1L544 466.6C543.9 466.7 543.7 466.9 543.3 467.2C542.1 468 540.4 468.3 538.9 467.9zM544 156.4L544 192C509.9 192 482 165.3 480.1 131.6C497.5 133.4 515.9 137.2 535.9 143.6C539.8 144.8 544 149.4 544 156.4zM96 240L96 173.5C96.1 173.4 96.3 173.2 96.7 172.9C97.9 172.1 99.6 171.8 101.1 172.2C121.7 178.4 141.1 182.2 159.5 184.1C155.5 215.6 128.6 239.9 96 239.9zM64 173.5L64 483.6C64 503 75.8 520.9 94.3 526.9C188.3 556.9 253.1 535.3 317.6 513.8C380 493 442 472.3 529.7 498.5C551.9 505.1 575.9 489.7 575.9 466.5L575.9 156.4C575.9 137 564.1 119.1 545.6 113.1C451.6 83.1 386.8 104.7 322.3 126.2C259.9 147 197.9 167.7 110.2 141.5C88 134.9 63.9 150.3 63.9 173.5zM276.1 256.2C288.2 240.4 303.9 232 320 232C336.1 232 351.8 240.4 363.9 256.2C376 272 384 294.5 384 320C384 345.5 376 368 363.9 383.8C351.8 399.6 336.1 408 320 408C303.9 408 288.2 399.6 276.1 383.8C264 368 256 345.5 256 320C256 294.5 264 272 276.1 256.2zM250.7 236.7C233.9 258.6 224 288.1 224 320C224 351.9 233.9 381.4 250.7 403.3C267.6 425.2 291.9 440 320 440C348.1 440 372.4 425.2 389.3 403.3C406.1 381.4 416 351.9 416 320C416 288.1 406.1 258.6 389.3 236.7C372.4 214.8 348.1 200 320 200C291.9 200 267.6 214.8 250.7 236.7zM304 272C295.2 272 288 279.2 288 288C288 296.8 295.2 304 304 304L304 336C295.2 336 288 343.2 288 352C288 360.8 295.2 368 304 368L336 368C344.8 368 352 360.8 352 352C352 343.2 344.8 336 336 336L336 288C336 279.2 328.8 272 320 272L304 272z"/>
  </symbol>
  <symbol id="moped" viewBox="0 0 640 640">
    <path fill="currentColor" opacity=".4" d="M64 384L64 416L244.1 416C241 412.2 238.2 408.2 235.7 403.9C228.2 391 224 376 224 360L224 288L160 288C107 288 64 331 64 384zM448.7 187.3L454.7 214.7L512 233.8L512 166.2L448.7 187.3z"/>
  <path fill="currentColor" d="M320 112C320 103.2 327.2 96 336 96L416 96C423.5 96 430 101.2 431.6 108.6L441.9 155.8L501.9 135.8C522.6 128.9 544 144.3 544 166.2L544 233.8C544 255.6 522.6 271.1 501.9 264.2L462.6 251.1L465.3 263.7C470.3 286.7 464.9 310.6 450.7 329.3L386.3 413.5C369.7 435.3 343.8 448 316.4 448L247.6 448C247.8 450.6 248 453.3 248 456C248 504.6 208.6 544 160 544C111.4 544 72 504.6 72 456C72 453.3 72.1 450.6 72.4 448L64 448C46.3 448 32 433.7 32 416L32 384C32 313.3 89.3 256 160 256L224 256C241.7 256 256 270.3 256 288L256 360C256 367.7 257.6 375.1 260.4 381.8C268.9 401.9 288.8 416 312 416L316.4 416C333.8 416 350.3 407.9 360.9 394L425.3 309.8C433.9 298.6 437.1 284.2 434.1 270.4L403.1 128L336 128C327.2 128 320 120.8 320 112zM454.7 214.7L512 233.8L512 166.2L448.7 187.3L454.7 214.7zM244.1 416C241 412.2 238.2 408.2 235.7 403.9C228.2 391 224 376 224 360L224 288L160 288C107 288 64 331 64 384L64 416L244.1 416zM112 192L240 192C248.8 192 256 199.2 256 208C256 216.8 248.8 224 240 224L112 224C103.2 224 96 216.8 96 208C96 199.2 103.2 192 112 192zM104 456C104 486.9 129.1 512 160 512C190.9 512 216 486.9 216 456C216 453.3 215.8 450.6 215.4 448L104.6 448C104.2 450.6 104 453.3 104 456zM568 456C568 425.1 542.9 400 512 400C481.1 400 456 425.1 456 456C456 486.9 481.1 512 512 512C542.9 512 568 486.9 568 456zM424 456C424 407.4 463.4 368 512 368C560.6 368 600 407.4 600 456C600 504.6 560.6 544 512 544C463.4 544 424 504.6 424 456z"/>
  </symbol>
  <symbol id="nfc-signal" viewBox="0 0 640 640">
    <path fill="currentColor" opacity=".4" d="M96 160C96 142.3 110.3 128 128 128L448 128C465.7 128 480 142.3 480 160L480 323.5C457 332.6 435.5 344.7 416 359.3L416 224C416 206.3 401.7 192 384 192L304 192C286.3 192 272 206.3 272 224L272 274.7C253.4 281.3 240 299.1 240 320C240 346.5 261.5 368 288 368C314.5 368 336 346.5 336 320C336 299.1 322.6 281.3 304 274.7L304 224L384 224L384 387.3C375.1 396.3 366.9 405.9 359.3 416L192 416L192 224L208 224C216.8 224 224 216.8 224 208C224 199.2 216.8 192 208 192L192 192C174.3 192 160 206.3 160 224L160 416C160 433.7 174.3 448 192 448L338.6 448C327.6 468 318.9 489.4 313 512L128 512C110.3 512 96 497.7 96 480L96 160z"/>
  <path fill="currentColor" d="M448 128L128 128C110.3 128 96 142.3 96 160L96 480C96 497.7 110.3 512 128 512L313 512C310.3 522.4 308.1 533.1 306.6 544L128 544C92.7 544 64 515.3 64 480L64 160C64 124.7 92.7 96 128 96L448 96C483.3 96 512 124.7 512 160L512 313C501.1 315.9 490.4 319.4 480 323.5L480 160C480 142.3 465.7 128 448 128zM416 224L416 359.3C404.6 367.8 393.9 377.1 384 387.2L384 223.9L304 223.9L304 274.6C322.6 281.2 336 299 336 319.9C336 346.4 314.5 367.9 288 367.9C261.5 367.9 240 346.4 240 319.9C240 299 253.4 281.2 272 274.6L272 223.9C272 206.2 286.3 191.9 304 191.9L384 191.9C401.7 191.9 416 206.2 416 223.9zM338.6 448L192 448C174.3 448 160 433.7 160 416L160 224C160 206.3 174.3 192 192 192L208 192C216.8 192 224 199.2 224 208C224 216.8 216.8 224 208 224L192 224L192 416L359.3 416C351.7 426.2 344.8 436.8 338.6 448zM288 304C279.2 304 272 311.2 272 320C272 328.8 279.2 336 288 336C296.8 336 304 328.8 304 320C304 311.2 296.8 304 288 304zM592 352C600.8 352 608 359.2 608 368C608 376.8 600.8 384 592 384C477.1 384 384 477.1 384 592C384 600.8 376.8 608 368 608C359.2 608 352 600.8 352 592C352 459.5 459.5 352 592 352zM576 544C593.7 544 608 558.3 608 576C608 593.7 593.7 608 576 608C558.3 608 544 593.7 544 576C544 558.3 558.3 544 576 544zM608 464C608 472.8 600.8 480 592 480C530.1 480 480 530.1 480 592C480 600.8 472.8 608 464 608C455.2 608 448 600.8 448 592C448 512.5 512.5 448 592 448C600.8 448 608 455.2 608 464z"/>
  </symbol>
  <symbol id="person-walking" viewBox="0 0 640 640">
    <path fill="currentColor" opacity=".4" d="M272 213.9L272 328.5C272 346.7 282.3 363.3 298.5 371.4L336 390.1L336 213.3C326.1 209.8 315.6 208 304.8 208C293.5 208 282.4 210 272 213.9zM296 88C296 101.3 306.7 112 320 112C333.3 112 344 101.3 344 88C344 74.7 333.3 64 320 64C306.7 64 296 74.7 296 88z"/>
  <path fill="currentColor" d="M296 88C296 74.7 306.7 64 320 64C333.3 64 344 74.7 344 88C344 101.3 333.3 112 320 112C306.7 112 296 101.3 296 88zM376 88C376 57.1 350.9 32 320 32C289.1 32 264 57.1 264 88C264 118.9 289.1 144 320 144C350.9 144 376 118.9 376 88zM304.8 208C315.6 208 326.1 209.8 336 213.3L336 390.1L298.5 371.4C282.2 363.3 272 346.6 272 328.5L272 213.9C282.4 210 293.5 208 304.8 208zM235 238.9C236.6 237.1 238.3 235.4 240 233.8L240 328.5C240 358.8 257.1 386.5 284.2 400.1L377.7 446.8C392.3 454.1 402.1 468.2 403.9 484.4L416.1 593.8C417.1 602.6 425 608.9 433.8 607.9C442.6 606.9 448.9 599 447.9 590.2L435.7 480.8C432.7 453.8 416.2 430.2 392 418.1L368 406.1L368 232.3C372.5 236.3 376.6 240.8 380.3 245.8L400 272C415.1 292.1 438.8 304 464 304L496 304C504.8 304 512 296.8 512 288C512 279.2 504.8 272 496 272L464 272C448.9 272 434.7 264.9 425.6 252.8L405.9 226.5C382 194.7 344.6 176 304.8 176C269.2 176 235.2 191 211.3 217.4L180.8 250.9C167.4 265.7 160 284.8 160 304.7L160 368C160 376.8 167.2 384 176 384C184.8 384 192 376.8 192 368L192 304.7C192 292.8 196.5 281.2 204.5 272.4L235 238.9zM260.8 463C258.8 468.9 255.7 474.3 251.7 479.1L163.9 581.6C158.1 588.3 158.9 598.4 165.6 604.2C172.3 610 182.4 609.2 188.2 602.5L276 499.9C282.7 492 287.9 483 291.2 473.1L295.8 459.3L266.9 444.8L260.9 462.9z"/>
  </symbol>
  <symbol id="square-parking" viewBox="0 0 640 640">
    <path fill="currentColor" opacity=".4" d="M128 160L128 480C128 497.7 142.3 512 160 512L480 512C497.7 512 512 497.7 512 480L512 160C512 142.3 497.7 128 480 128L160 128C142.3 128 128 142.3 128 160zM224 216C224 202.7 234.7 192 248 192L336 192C389 192 432 235 432 288C432 341 389 384 336 384L256 384L256 432C256 440.8 248.8 448 240 448C231.2 448 224 440.8 224 432L224 216zM256 224L256 352L336 352C371.3 352 400 323.3 400 288C400 252.7 371.3 224 336 224L256 224z"/>
  <path fill="currentColor" d="M160 128C142.3 128 128 142.3 128 160L128 480C128 497.7 142.3 512 160 512L480 512C497.7 512 512 497.7 512 480L512 160C512 142.3 497.7 128 480 128L160 128zM96 160C96 124.7 124.7 96 160 96L480 96C515.3 96 544 124.7 544 160L544 480C544 515.3 515.3 544 480 544L160 544C124.7 544 96 515.3 96 480L96 160zM256 352L336 352C371.3 352 400 323.3 400 288C400 252.7 371.3 224 336 224L256 224L256 352zM336 384L256 384L256 432C256 440.8 248.8 448 240 448C231.2 448 224 440.8 224 432L224 216C224 202.7 234.7 192 248 192L336 192C389 192 432 235 432 288C432 341 389 384 336 384z"/>
  </symbol>
  <symbol id="taxi-bus" viewBox="0 0 640 640">
    <path fill="currentColor" opacity=".4" d="M64 304L222 304C219.8 312.9 217.6 321.8 215.3 330.6C191.3 351.1 176 381.7 176 415.8L176 448L96 448C78.3 448 64 433.7 64 416L64 304zM66 144C73.1 116.4 98.2 96 128 96L320 96C338.2 96 354.6 103.6 366.3 115.8C349.6 120.9 335 130.8 324.1 144L66 144zM104 384C104 397.3 114.7 408 128 408C141.3 408 152 397.3 152 384C152 370.7 141.3 360 128 360C114.7 360 104 370.7 104 384z"/>
  <path fill="currentColor" d="M128 96L320 96C338.2 96 354.6 103.6 366.3 115.8C374.4 113.3 383.1 112 392 112L403.2 112C386.6 83.3 355.5 64 320 64L128 64C75 64 32 107 32 160L32 416C32 439.7 44.9 460.4 64 471.4L64 528C64 536.8 71.2 544 80 544C88.8 544 96 536.8 96 528L96 480L176 480L176 448L96 448C78.3 448 64 433.7 64 416L64 304L222 304L230 272L64 272L64 176L307.3 176C310.7 164.1 316.5 153.3 324.1 144L66 144C73.1 116.4 98.2 96 128 96zM128 408C141.3 408 152 397.3 152 384C152 370.7 141.3 360 128 360C114.7 360 104 370.7 104 384C104 397.3 114.7 408 128 408zM440 192C444.4 192 448 195.6 448 200L448 224L384 224L384 200C384 195.6 387.6 192 392 192L440 192zM480 224L480 200C480 177.9 462.1 160 440 160L392 160C369.9 160 352 177.9 352 200L352 224L341.5 224C312.1 224 286.5 244 279.4 272.5L257.6 359.7C237.6 370.5 224 391.7 224 416L224 560C224 568.8 231.2 576 240 576C248.8 576 256 568.8 256 560L256 544L576 544L576 560C576 568.8 583.2 576 592 576C600.8 576 608 568.8 608 560L608 416C608 391.7 594.4 370.5 574.4 359.7L552.6 272.5C545.5 244 519.9 224 490.5 224L480 224zM352 256L490.5 256C505.2 256 518 266 521.5 280.2L539.4 352L292.4 352L310.3 280.2C313.9 266 326.7 256 341.3 256L351.8 256zM576 416L576 512L256 512L256 416C256 398.3 270.3 384 288 384L544 384C561.7 384 576 398.3 576 416zM320 472C333.3 472 344 461.3 344 448C344 434.7 333.3 424 320 424C306.7 424 296 434.7 296 448C296 461.3 306.7 472 320 472zM536 448C536 434.7 525.3 424 512 424C498.7 424 488 434.7 488 448C488 461.3 498.7 472 512 472C525.3 472 536 461.3 536 448z"/>
  </symbol>
  <symbol id="user-hair-long" viewBox="0 0 640 640">
    <path fill="currentColor" opacity=".4" d="M112 576C120.8 576 128 568.8 128 560C128 480.5 192.5 416 272 416L368 416C447.5 416 512 480.5 512 560C512 568.8 519.2 576 528 576L112 576zM180 304L192 288C197.2 281 201.9 273.7 205.9 266C213.3 280.5 223.3 293.4 235.4 304L180 304zM229.5 160C242.7 122.7 278.2 96 320 96C340.4 96 359.2 102.3 374.8 113.1L336.2 143.1C322.1 154.1 304.9 160 287.1 160L229.5 160zM404.7 304C416.8 293.4 426.8 280.5 434.2 266C438.2 273.7 442.8 281 448.1 288L460.1 304L404.8 304z"/>
  <path fill="currentColor" d="M416 192C416 171 409.3 151.6 397.8 135.8L355.8 168.5C336.2 183.7 312 192 287.1 192L224 192L224 208C224 261 267 304 320 304C373 304 416 261 416 208L416 192zM287.1 160C304.9 160 322.2 154.1 336.2 143.1L374.8 113.1C359.2 102.3 340.4 96 320 96C278.2 96 242.6 122.7 229.5 160L287.1 160zM434.1 266C426.7 280.5 416.7 293.4 404.6 304L459.9 304L447.9 288C442.7 281 438 273.7 434 266zM320 336L172 336C156.5 336 144 323.5 144 308C144 301.9 146 296 149.6 291.2L166.4 268.8C183 246.6 192 219.7 192 192C192 121.3 249.3 64 320 64C390.7 64 448 121.3 448 192C448 219.7 457 246.6 473.6 268.8L490.4 291.2C494 296 496 301.9 496 308C496 323.5 483.5 336 468 336L320 336zM235.3 304C223.2 293.4 213.2 280.5 205.8 266C201.8 273.7 197.2 281 191.9 288L179.9 304L235.2 304zM128 560C128 568.8 120.8 576 112 576C103.2 576 96 568.8 96 560C96 462.8 174.8 384 272 384L368 384C465.2 384 544 462.8 544 560C544 568.8 536.8 576 528 576C519.2 576 512 568.8 512 560C512 480.5 447.5 416 368 416L272 416C192.5 416 128 480.5 128 560z"/>
  </symbol>
  <symbol id="wheelchair-move" viewBox="0 0 640 640">
    <path fill="currentColor" opacity=".4" d="M128 416C128 486.7 185.3 544 256 544C326.7 544 384 486.7 384 416C384 345.3 326.7 288 256 288C185.3 288 128 345.3 128 416zM315.3 267.3C337.4 276.1 357.1 289.7 373 306.8L420.3 255.2C426.7 248.2 425.7 237.3 418.1 231.6L379.7 202.8L315.2 267.3zM440 120C440 133.3 450.7 144 464 144C477.3 144 488 133.3 488 120C488 106.7 477.3 96 464 96C450.7 96 440 106.7 440 120z"/>
  <path fill="currentColor" d="M440 120C440 106.7 450.7 96 464 96C477.3 96 488 106.7 488 120C488 133.3 477.3 144 464 144C450.7 144 440 133.3 440 120zM520 120C520 89.1 494.9 64 464 64C433.1 64 408 89.1 408 120C408 150.9 433.1 176 464 176C494.9 176 520 150.9 520 120zM277.9 160.8C289.2 149.5 307 148.3 319.7 157.8L353.9 183.5L279.6 257.8C271.9 256.6 264 256 256 256C167.6 256 96 327.6 96 416C96 504.4 167.6 576 256 576C344.4 576 416 504.4 416 416C416 405 414.9 394.3 412.8 384L500.1 384L472.4 508.5C470.5 517.1 475.9 525.7 484.5 527.6C493.1 529.5 501.7 524.1 503.6 515.5L531.3 391C535.7 371 520.5 352.1 500.1 352.1L402.7 352.1C399.8 345.4 396.4 339 392.7 332.9L444 277C463.2 256.1 460.1 223.2 437.4 206.2L338.9 132.2C313.4 113.1 277.8 115.6 255.2 138.1L196.6 196.7C190.4 202.9 190.4 213.1 196.6 219.3C202.8 225.5 213 225.5 219.2 219.3L277.8 160.7zM373 306.9C357 289.8 337.4 276.2 315.3 267.4L379.8 202.9L418.2 231.7C425.8 237.4 426.8 248.3 420.4 255.3L373 306.9zM256 288C326.7 288 384 345.3 384 416C384 486.7 326.7 544 256 544C185.3 544 128 486.7 128 416C128 345.3 185.3 288 256 288z"/>
  </symbol>
  <symbol id="wifi" viewBox="0 0 640 640">
    <path fill="currentColor" opacity=".4" d="M296 488C296 501.3 306.7 512 320 512C333.3 512 344 501.3 344 488C344 474.7 333.3 464 320 464C306.7 464 296 474.7 296 488z"/>
  <path fill="currentColor" d="M59.3 236.2C126 169.4 218.1 128 320 128C421.9 128 514 169.4 580.7 236.2C586.9 242.5 597.1 242.5 603.3 236.2C609.5 229.9 609.6 219.8 603.3 213.6C530.9 141 430.7 96 320 96C209.3 96 109.1 141 36.7 213.6C30.5 219.9 30.5 230 36.7 236.2C42.9 242.4 53.1 242.4 59.3 236.2zM320 304C379.4 304 432.5 330.9 467.7 373.3C473.3 380.1 483.4 381 490.2 375.4C497 369.8 497.9 359.7 492.3 352.9C451.2 303.5 389.3 272 320 272C250.7 272 188.8 303.5 147.7 352.9C142 359.7 143 369.8 149.8 375.4C156.6 381 166.7 380.1 172.3 373.3C207.5 330.9 260.6 304 320 304zM320 464C333.3 464 344 474.7 344 488C344 501.3 333.3 512 320 512C306.7 512 296 501.3 296 488C296 474.7 306.7 464 320 464zM320 544C350.9 544 376 518.9 376 488C376 457.1 350.9 432 320 432C289.1 432 264 457.1 264 488C264 518.9 289.1 544 320 544z"/>
  </symbol>
</svg>
