<svg xmlns="http://www.w3.org/2000/svg" style="display:none">
  <symbol id="bag-shopping" viewBox="0 0 640 640">
    <path fill="currentColor" d="M256 128L256 192L384 192L384 128C384 92.7 355.3 64 320 64C284.7 64 256 92.7 256 128zM224 224L144 224C135.2 224 128 231.2 128 240L128 448C128 483.3 156.7 512 192 512L448 512C483.3 512 512 483.3 512 448L512 240C512 231.2 504.8 224 496 224L416 224L416 304C416 312.8 408.8 320 400 320C391.2 320 384 312.8 384 304L384 224L256 224L256 304C256 312.8 248.8 320 240 320C231.2 320 224 312.8 224 304L224 224zM224 192L224 128C224 75 267 32 320 32C373 32 416 75 416 128L416 192L496 192C522.5 192 544 213.5 544 240L544 448C544 501 501 544 448 544L192 544C139 544 96 501 96 448L96 240C96 213.5 117.5 192 144 192L224 192z"/>
  </symbol>
  <symbol id="check" viewBox="0 0 640 640">
    <path fill="currentColor" d="M537.4 131.1C544.5 136.3 546.1 146.3 540.9 153.5L260.9 537.5C258.1 541.3 253.9 543.7 249.2 544C244.5 544.3 240 542.7 236.6 539.4L100.6 403.4C94.4 397.2 94.4 387 100.6 380.8C106.8 374.6 117 374.6 123.2 380.8L246 503.6L515 134.7C520.2 127.6 530.2 126 537.4 131.2z"/>
  </symbol>
  <symbol id="grip-lines" viewBox="0 0 640 640">
    <path fill="currentColor" d="M544 240C544 231.2 536.8 224 528 224L112 224C103.2 224 96 231.2 96 240C96 248.8 103.2 256 112 256L528 256C536.8 256 544 248.8 544 240zM544 400C544 391.2 536.8 384 528 384L112 384C103.2 384 96 391.2 96 400C96 408.8 103.2 416 112 416L528 416C536.8 416 544 408.8 544 400z"/>
  </symbol>
  <symbol id="user" viewBox="0 0 640 640">
    <path fill="currentColor" d="M224 192C224 139 267 96 320 96C373 96 416 139 416 192C416 245 373 288 320 288C267 288 224 245 224 192zM448 192C448 121.3 390.7 64 320 64C249.3 64 192 121.3 192 192C192 262.7 249.3 320 320 320C390.7 320 448 262.7 448 192zM128 544C128 464.5 192.5 400 272 400L368 400C447.5 400 512 464.5 512 544L512 560C512 568.8 519.2 576 528 576C536.8 576 544 568.8 544 560L544 544C544 446.8 465.2 368 368 368L272 368C174.8 368 96 446.8 96 544L96 560C96 568.8 103.2 576 112 576C120.8 576 128 568.8 128 560L128 544z"/>
  </symbol>
</svg>
