<svg width="155" height="155" viewBox="0 0 155 155" fill="none" xmlns="http://www.w3.org/2000/svg">
<g clip-path="url(#clip0_338_149)">
<path d="M77.5 155C120.302 155 155 120.302 155 77.5C155 34.6979 120.302 0 77.5 0C34.6979 0 0 34.6979 0 77.5C0 120.302 34.6979 155 77.5 155Z" fill="url(#paint0_linear_338_149)"/>
<path d="M77.5 155C120.302 155 155 120.302 155 77.5C155 34.6979 120.302 0 77.5 0C34.6979 0 0 34.6979 0 77.5C0 120.302 34.6979 155 77.5 155Z" fill="url(#paint1_linear_338_149)" fill-opacity="0.8"/>
<mask id="mask0_338_149" style="mask-type:luminance" maskUnits="userSpaceOnUse" x="52" y="62" width="90" height="52">
<path d="M52.0622 62.7171H141.594V113.496H52.0622V62.7171Z" fill="white"/>
</mask>
<g mask="url(#mask0_338_149)">
<mask id="mask1_338_149" style="mask-type:luminance" maskUnits="userSpaceOnUse" x="-6" y="-3" width="147" height="145">
<path d="M52.3428 -2.14014L140.804 74.8333L82.9106 141.366L-5.54556 64.3981L52.3428 -2.14014Z" fill="white"/>
</mask>
<g mask="url(#mask1_338_149)">
<mask id="mask2_338_149" style="mask-type:luminance" maskUnits="userSpaceOnUse" x="-6" y="-3" width="147" height="145">
<path d="M140.699 74.7437L52.2373 -2.2243L-5.65643 64.3086L82.8051 141.282L140.699 74.7437Z" fill="white"/>
</mask>
<g mask="url(#mask2_338_149)">
<path d="M52.9977 113.229C79.0915 81.7687 101.135 83.3135 101.135 83.3135C84.7441 81.4656 66.4328 92.5788 53.7072 105.064C83.0229 35.16 140.681 74.7264 140.703 74.7465C133.724 76.3646 122.58 90.4373 116.452 96.1486C108.831 103.248 98.4117 106.933 88.2224 106.594C81.8907 106.38 65.9076 104.177 52.999 113.228" fill="white"/>
</g>
</g>
</g>
<mask id="mask3_338_149" style="mask-type:luminance" maskUnits="userSpaceOnUse" x="24" y="40" width="38" height="67">
<path d="M24 40H61.4163V106.815H24V40Z" fill="white"/>
</mask>
<g mask="url(#mask3_338_149)">
<mask id="mask4_338_149" style="mask-type:luminance" maskUnits="userSpaceOnUse" x="-6" y="-3" width="147" height="145">
<path d="M52.3428 -2.14014L140.804 74.8333L82.9106 141.366L-5.54556 64.3981L52.3428 -2.14014Z" fill="white"/>
</mask>
<g mask="url(#mask4_338_149)">
<mask id="mask5_338_149" style="mask-type:luminance" maskUnits="userSpaceOnUse" x="-6" y="-3" width="147" height="145">
<path d="M140.699 74.7437L52.2373 -2.2243L-5.65644 64.3086L82.8051 141.282L140.699 74.7437Z" fill="white"/>
</mask>
<g mask="url(#mask5_338_149)">
<path d="M45.6614 105.545C34.8979 76.7682 44.1997 59.0569 44.1997 59.0569C34.0261 72.738 34.7621 88.9513 38.1498 101.917C3.96462 53.4605 48.2607 39.9987 48.2607 39.9987C47.3003 45.8658 57.3486 65.0903 59.0451 71.4845C64.3538 91.4822 52.0087 101.729 45.6607 105.544" fill="white"/>
</g>
</g>
</g>
</g>
<defs>
<linearGradient id="paint0_linear_338_149" x1="77.5" y1="102.042" x2="-0.645832" y2="-1.29167" gradientUnits="userSpaceOnUse">
<stop stop-color="#1A3C33"/>
<stop offset="1" stop-color="#1E4D42"/>
</linearGradient>
<linearGradient id="paint1_linear_338_149" x1="77" y1="-55.5" x2="78" y2="210.5" gradientUnits="userSpaceOnUse">
<stop offset="0.35" stop-color="#2B6E5E"/>
<stop offset="1" stop-color="#1E4D42" stop-opacity="0"/>
</linearGradient>
<clipPath id="clip0_338_149">
<rect width="155" height="155" fill="white"/>
</clipPath>
</defs>
</svg>
