<svg width="360" height="175" viewBox="0 0 360 175" fill="none" xmlns="http://www.w3.org/2000/svg">
<path d="M14.2743 62.5703C23.1233 62.5703 29.3619 59.5141 29.3619 52.6574C29.3619 47.8557 26.6781 44.6159 18.3271 42.3722C13.4625 41.0618 12.2198 39.819 12.2198 37.759C12.2198 36.5115 13.4625 35.6411 15.2082 35.6411C17.6404 35.6411 19.2604 36.7001 20.3194 38.6923C21.6298 41.1874 22.9403 41.6855 24.5602 41.6855C26.741 41.6855 27.8 40.0656 27.8 38.3199C27.8 36.6371 27.0553 35.2059 25.8077 34.0211C24.6859 32.9621 23.124 32.1497 21.3832 31.526C19.0767 30.7136 16.3301 30.2784 13.5883 30.2784C7.22958 30.2784 0.933253 33.5231 0.933253 39.1322C0.933253 44.6158 3.73784 47.609 11.1556 49.7269C16.0202 51.1003 17.5143 52.5315 17.5143 54.5286C17.5143 56.2114 16.1458 57.2076 13.3412 57.2076C11.0346 57.2076 9.03753 56.0229 7.91575 53.9048C6.48449 51.1631 5.17405 50.5392 3.49125 50.5392C1.24756 50.5392 0 52.0963 0 54.2143C0 56.0857 0.812372 57.6427 2.18081 58.8275C3.30265 59.8236 4.7388 60.6359 6.35872 61.2597C8.79095 62.1301 11.6583 62.5703 14.2743 62.5703Z" fill="black"/>
<path d="M46.9933 62.5703C55.6586 62.5703 59.8315 57.7057 60.9531 53.7164C61.2045 52.9089 61.0159 51.347 59.3331 51.347C58.9608 51.347 58.6465 51.4727 58.2741 51.845C57.1523 53.1555 54.5363 55.0268 50.8564 55.0268C45.9967 55.0268 43.3129 51.5355 43.3129 49.3547C43.3129 48.7309 43.6272 48.4795 44.6233 48.3586L55.4066 46.7968C59.333 46.2358 60.8901 45.0511 60.8901 41.439C60.8901 37.0097 56.4027 30.4042 47.2398 30.4042C38.265 30.4042 30.4117 36.6373 30.4117 46.362C30.4117 55.0902 36.7074 62.5703 46.9933 62.5703ZM43.7486 43.4942C42.443 43.7457 41.945 43.6828 41.945 41.1248C41.945 37.1983 43.2506 35.264 45.8086 35.264C48.3617 35.264 50.1702 38.5716 50.1702 40.6895C50.1702 41.8114 49.6093 42.3723 48.2408 42.6237L43.7486 43.4942Z" fill="black"/>
<path d="M69.9229 62.2559H73.7913C80.6482 62.2559 81.6443 61.3855 81.6443 59.7028C81.6443 58.5809 80.9577 58.0828 80.1453 57.58C77.6551 56.0859 77.5293 54.2773 77.5293 50.5394V20.3075C77.5293 18.3732 76.6589 17.8123 74.536 17.8123C71.92 17.8123 67.805 19.1857 64.749 20.3703C63.0033 21.0522 61.6978 21.6131 61.6978 23.0493C61.6978 24.2968 63.0663 24.6692 64.3767 24.9787C65.75 25.293 65.9966 26.6663 65.9966 28.4699V50.6023C65.9966 54.1516 65.9338 56.2744 63.3177 57.6429C62.5053 58.0829 61.9444 58.6438 61.9444 59.7029C61.9444 61.3857 63.3176 62.2559 69.9229 62.2559Z" fill="black"/>
<path d="M98.9678 62.5703C107.633 62.5703 111.806 57.7057 112.928 53.7164C113.179 52.9089 112.99 51.347 111.308 51.347C110.935 51.347 110.621 51.4727 110.249 51.845C109.127 53.1555 106.511 55.0268 102.831 55.0268C97.9712 55.0268 95.2874 51.5355 95.2874 49.3547C95.2874 48.7309 95.6018 48.4795 96.5979 48.3586L107.381 46.7968C111.308 46.2358 112.865 45.0511 112.865 41.439C112.865 37.0097 108.377 30.4042 99.2143 30.4042C90.2395 30.4042 82.3863 36.6373 82.3863 46.362C82.3863 55.0902 88.682 62.5703 98.9678 62.5703ZM95.7231 43.4942C94.4175 43.7457 93.9195 43.6828 93.9195 41.1248C93.9195 37.1983 95.2251 35.264 97.7831 35.264C100.336 35.264 102.145 38.5716 102.145 40.6895C102.145 41.8114 101.584 42.3723 100.215 42.6237L95.7231 43.4942Z" fill="black"/>
<path d="M130.882 62.5703C139.296 62.5703 143.657 58.02 144.717 53.7164C144.968 52.5946 144.596 51.347 143.097 51.347C142.787 51.347 142.347 51.5356 141.849 52.0336C140.665 53.3441 137.923 55.0269 134.683 55.0269C128.759 55.0269 126.018 49.6014 126.018 42.2468C126.018 37.5709 128.015 35.2643 130.321 35.2643C132.686 35.2643 134.059 36.7633 135.181 39.6307C136.24 42.3097 137.613 43.7458 140.481 43.7458C142.913 43.7458 143.909 41.8115 143.909 39.8193C143.909 34.3938 137.115 30.4044 130.259 30.4044C121.903 30.4044 114.176 37.0726 114.176 46.5503C114.176 55.8975 120.906 62.5703 130.882 62.5703Z" fill="black"/>
<path d="M160.535 62.5074C167.082 62.5074 171.134 59.577 172.193 54.0935C172.503 52.4688 170.699 51.6613 169.514 52.9088C168.015 54.4658 166.086 54.8382 164.964 54.8382C162.532 54.8382 161.158 53.0925 161.158 50.1042V37.6336C161.158 36.3909 161.971 35.9508 162.904 35.9508H168.267C169.887 35.9508 171.071 34.8918 171.071 32.8368C171.071 31.0911 170.573 31.0283 169.326 31.0283H162.532C161.284 31.0283 161.158 30.7769 161.158 27.7885V24.418C161.158 22.6144 160.849 21.7391 159.292 21.7391C157.169 21.7391 155.051 22.6772 153.054 24.1086C151.125 25.5448 149.316 27.3484 147.885 29.1568L146.7 30.6558C145.699 31.8985 145.327 33.0205 145.327 33.8328C145.327 34.8289 145.888 35.9507 147.198 35.9507H148.257C149.316 35.9507 149.688 36.5745 149.688 37.5125V51.845C149.688 59.6399 153.929 62.5074 160.535 62.5074Z" fill="black"/>
<path d="M189.457 62.5703C198.122 62.5703 202.295 57.7057 203.417 53.7164C203.668 52.9089 203.48 51.347 201.797 51.347C201.425 51.347 201.11 51.4727 200.738 51.845C199.616 53.1555 197 55.0268 193.32 55.0268C188.46 55.0268 185.777 51.5355 185.777 49.3547C185.777 48.7309 186.091 48.4795 187.087 48.3586L197.87 46.7968C201.797 46.2358 203.354 45.0511 203.354 41.439C203.354 37.0097 198.866 30.4042 189.703 30.4042C180.729 30.4042 172.875 36.6373 172.875 46.362C172.875 55.0902 179.171 62.5703 189.457 62.5703ZM186.212 43.4942C184.907 43.7457 184.409 43.6828 184.409 41.1248C184.409 37.1983 185.714 35.264 188.272 35.264C190.825 35.264 192.634 38.5716 192.634 40.6895C192.634 41.8114 192.073 42.3723 190.705 42.6237L186.212 43.4942Z" fill="black"/>
<path d="M216.307 62.5703C223.725 62.5703 226.031 56.2116 226.655 56.2116C226.969 56.2116 227.032 57.082 227.032 59.3256V59.7028C227.032 61.6322 227.903 62.1931 230.021 62.1931C232.642 62.1931 236.757 60.6989 239.808 59.577C241.554 58.9532 242.864 58.3923 242.864 56.961C242.864 55.5248 241.491 55.2733 240.185 55.0268C238.875 54.7753 238.56 53.344 238.56 51.5355V20.307C238.56 18.3728 237.69 17.8119 235.572 17.8119C232.951 17.8119 228.836 19.2481 225.785 20.4279C224.039 21.1146 222.729 21.7384 222.729 23.0488C222.729 24.3593 224.102 24.543 225.408 24.9782C226.781 25.4183 227.032 26.6658 227.032 28.4695V30.0942C227.032 31.5255 227.032 32.7103 226.534 32.7103C225.659 32.7103 224.286 30.3408 219.489 30.3408C210.263 30.3408 204.654 37.8843 204.654 46.9844C204.654 56.022 209.266 62.5703 216.307 62.5703ZM222.482 55.0896C218.802 55.0896 216.621 49.9156 216.621 42.2464C216.621 37.1982 218.991 35.143 221.36 35.143C224.847 35.143 227.032 39.0695 227.032 46.7967V48.668C227.032 52.846 224.789 55.0896 222.482 55.0896Z" fill="black"/>
<path d="M46.1168 115.312H49.9853C56.8421 115.312 57.8382 114.442 57.8382 112.759C57.8382 111.637 57.1516 111.139 56.3393 110.636C53.849 109.142 53.7232 107.334 53.7232 103.596V73.3639C53.7232 71.4297 52.8528 70.8688 50.73 70.8688C48.1139 70.8688 43.9989 72.2421 40.9429 73.4268C39.1972 74.1086 37.8917 74.6695 37.8917 76.1057C37.8917 77.3533 39.2602 77.7256 40.5707 78.0351C41.944 78.3494 42.1906 79.7227 42.1906 81.5263V103.659C42.1906 107.208 42.1277 109.331 39.5116 110.699C38.6993 111.139 38.1383 111.7 38.1383 112.759C38.1383 114.442 39.5115 115.312 46.1168 115.312Z" fill="black"/>
<path d="M75.1629 115.627C83.8282 115.627 88.0012 110.762 89.1227 106.773C89.3742 105.965 89.1856 104.403 87.5028 104.403C87.1305 104.403 86.8162 104.529 86.4438 104.901C85.322 106.212 82.706 108.083 79.0261 108.083C74.1663 108.083 71.4826 104.592 71.4826 102.411C71.4826 101.787 71.7969 101.536 72.793 101.415L83.5762 99.8532C87.5027 99.2923 89.0598 98.1075 89.0598 94.4954C89.0598 90.0661 84.5724 83.4607 75.4094 83.4607C66.4347 83.4607 58.5814 89.6937 58.5814 99.4184C58.5814 108.147 64.8771 115.627 75.1629 115.627ZM71.9183 96.5506C70.6127 96.8021 70.1146 96.7392 70.1146 94.1812C70.1146 90.2547 71.4203 88.3205 73.9783 88.3205C76.5314 88.3205 78.3399 91.628 78.3399 93.7459C78.3399 94.8678 77.779 95.4287 76.4105 95.6802L71.9183 96.5506Z" fill="black"/>
<path d="M100.656 115.627C110.128 115.627 111.004 110.453 111.874 110.453C112.125 110.453 112.372 110.762 112.498 111.139C113.494 113.692 115.365 115.375 119.355 115.375C123.842 115.375 127.087 111.821 127.087 108.833C127.087 107.396 126.274 107.087 125.65 107.087C124.964 107.087 124.654 107.648 123.47 107.648C122.536 107.648 121.971 107.271 121.661 104.964L120.23 94.2437C119.355 87.5755 116.985 83.3347 107.696 83.3347C99.4081 83.3347 92.3623 86.9517 92.3623 92.1885C92.3623 94.4322 94.1708 95.6169 95.7907 95.6169C98.5953 95.6169 100.157 94.3694 100.781 91.8114C101.405 89.384 103.146 88.3201 104.954 88.3201C107.512 88.3201 108.262 89.882 108.571 92.3143L108.697 93.3733C108.943 95.3656 108.073 95.8007 104.209 96.115C96.1049 96.7388 90.0552 100.477 90.0552 106.647C90.0552 111.26 92.614 115.627 100.656 115.627ZM105.955 109.394C103.46 109.394 101.714 107.895 101.714 104.718C101.714 101.913 102.962 99.7902 106.516 99.7902C108.881 99.7902 109.693 100.167 109.944 102.034L110.002 102.474C110.626 106.836 108.571 109.394 105.955 109.394Z" fill="black"/>
<path d="M139.105 115.312C145.962 115.312 146.958 114.442 146.958 112.759C146.958 111.637 146.277 111.076 145.464 110.636C142.969 109.268 142.848 107.334 142.848 103.596V91.1302C142.848 89.5055 143.719 89.0074 144.84 89.0074H147.084C148.458 89.0074 149.516 87.4504 149.516 85.5162C149.516 84.0849 148.641 84.0849 147.645 84.0849H141.847C140.416 81.4641 138.109 79.7233 138.109 76.9138C138.109 75.231 139.357 74.0463 140.977 74.0463C143.032 74.0463 144.217 75.2939 144.966 77.1024C145.9 79.2832 146.896 80.5308 149.454 80.5308C151.886 80.5308 152.945 78.7224 152.945 77.2281C152.945 72.4264 147.273 69.2495 140.977 69.2495C133.622 69.2495 129.255 72.6778 129.255 77.0396C129.255 80.5308 130.314 82.0878 130.938 84.0849H128.385C127.573 84.0849 126.204 85.2068 126.204 87.3877C126.204 88.2629 126.765 89.0076 127.51 89.0076H129.381C129.942 89.0076 131.315 89.1333 131.315 91.0047V103.66C131.315 107.209 131.253 109.453 128.632 110.7C127.824 111.077 127.263 111.701 127.263 112.76C127.263 114.443 128.632 115.313 135.242 115.313L139.105 115.312Z" fill="black"/>
<path d="M164.524 115.627C173.373 115.627 179.612 112.571 179.612 105.714C179.612 100.912 176.928 97.6723 168.577 95.4286C163.713 94.1181 162.47 92.8754 162.47 90.8154C162.47 89.5679 163.713 88.6975 165.458 88.6975C167.891 88.6975 169.51 89.7565 170.57 91.7487C171.88 94.2438 173.19 94.7419 174.81 94.7419C176.991 94.7419 178.05 93.122 178.05 91.3763C178.05 89.6935 177.305 88.2622 176.058 87.0774C174.936 86.0185 173.374 85.2061 171.633 84.5823C169.327 83.77 166.58 83.3348 163.838 83.3348C157.48 83.3348 151.183 86.5794 151.183 92.1886C151.183 97.6721 153.988 100.665 161.406 102.783C166.27 104.157 167.764 105.588 167.764 107.585C167.764 109.268 166.396 110.264 163.591 110.264C161.285 110.264 159.288 109.079 158.166 106.961C156.735 104.22 155.424 103.596 153.741 103.596C151.498 103.596 150.25 105.153 150.25 107.271C150.25 109.142 151.062 110.699 152.431 111.884C153.553 112.88 154.989 113.692 156.609 114.316C159.041 115.186 161.908 115.627 164.524 115.627Z" fill="black"/>
<path d="M187.582 115.564C191.383 115.564 194.251 113.069 194.56 109.515C194.874 105.714 192.442 103.098 188.641 103.098C184.962 103.098 182.22 105.714 181.91 109.515C181.596 113.069 183.903 115.564 187.582 115.564Z" fill="black"/>
<path d="M213.759 115.627C222.173 115.627 226.535 111.076 227.594 106.773C227.846 105.651 227.473 104.403 225.974 104.403C225.665 104.403 225.225 104.592 224.727 105.09C223.542 106.4 220.8 108.083 217.56 108.083C211.637 108.083 208.895 102.658 208.895 95.3032C208.895 90.6273 210.892 88.3207 213.199 88.3207C215.563 88.3207 216.937 89.8197 218.059 92.6871C219.118 95.3661 220.491 96.8022 223.358 96.8022C225.79 96.8022 226.787 94.8679 226.787 92.8757C226.787 87.4502 219.993 83.4608 213.136 83.4608C204.78 83.4608 197.054 90.129 197.054 99.6067C197.054 108.954 203.784 115.627 213.759 115.627Z" fill="black"/>
<path d="M247.23 115.627C258.013 115.627 265.431 108.891 265.431 99.4807C265.431 90.0659 258.013 83.3348 247.23 83.3348C236.384 83.3348 228.903 90.0659 228.903 99.4807C228.903 108.833 236.383 115.627 247.23 115.627ZM248.226 110.762C243.487 110.762 241.06 100.854 241.06 94.9937C241.06 90.69 243.178 88.3207 245.982 88.3207C250.784 88.3207 253.274 98.3593 253.274 103.969C253.274 108.393 251.219 110.762 248.226 110.762Z" fill="black"/>
<path d="M274.399 115.129H278.268C284.438 115.129 285.062 114.19 285.062 112.822C285.062 111.947 284.684 111.076 283.94 110.578C282.194 109.452 282.068 107.087 282.068 103.47V98.9198C282.068 92.9962 285.062 91.1877 286.865 91.1877C288.925 91.1877 290.797 92.2515 290.797 96.9227V103.47C290.797 106.71 290.734 109.394 288.925 110.636C288.301 111.076 287.929 111.758 287.929 112.759C287.929 114.316 288.8 115.129 291.919 115.129H301.454C304.196 115.129 305.255 114.442 305.255 112.822C305.255 111.947 304.945 111.512 304.568 111.197C302.325 109.64 302.325 106.961 302.325 103.407V98.8569C302.325 93.5572 304.82 91.1877 306.875 91.1877C308.998 91.1877 310.429 92.8125 310.806 96.6132L311.488 103.218C312.049 108.707 311.614 109.331 309.684 110.453C308.872 110.951 308.311 111.574 308.311 112.696C308.311 114.442 309.805 115.066 315.042 115.066H321.773C326.261 115.066 327.136 114.065 327.136 112.696C327.136 111.512 326.575 110.951 325.7 110.327C323.77 109.016 323.582 108.518 323.021 103.407L322.025 94.6161C321.028 85.8927 316.662 83.3347 311.739 83.3347C303.824 83.3347 302.639 89.6306 301.889 89.6306C301.643 89.6306 301.517 89.5677 301.082 88.6973C299.457 85.2689 296.652 83.3347 292.852 83.3347C284.873 83.3347 282.876 89.6306 282.441 89.6306C282.194 89.6306 282.068 89.3211 282.068 88.383V86.2651C282.068 84.3309 281.193 83.7119 279.138 83.7119C276.396 83.7119 272.281 85.1432 269.042 86.328C267.233 87.0146 266.237 87.6384 266.237 89.0697C266.237 90.3801 267.668 90.6896 268.853 90.941C270.347 91.2505 270.536 92.498 270.536 94.4951V103.533C270.536 107.208 270.473 109.205 267.92 110.699C267.044 111.197 266.484 111.7 266.484 112.759C266.484 114.442 267.794 115.129 274.399 115.129Z" fill="black"/>
<mask id="mask0_252_179" style="mask-type:luminance" maskUnits="userSpaceOnUse" x="277" y="21" width="83" height="48">
<path d="M277.061 21.0443H360V68.0845H277.061V21.0443Z" fill="white"/>
</mask>
<g mask="url(#mask0_252_179)">
<mask id="mask1_252_179" style="mask-type:luminance" maskUnits="userSpaceOnUse" x="223" y="-40" width="137" height="134">
<path d="M277.321 -39.0372L359.268 32.2683L305.638 93.9021L223.695 22.6016L277.321 -39.0372Z" fill="white"/>
</mask>
<g mask="url(#mask1_252_179)">
<mask id="mask2_252_179" style="mask-type:luminance" maskUnits="userSpaceOnUse" x="223" y="-40" width="137" height="134">
<path d="M359.171 32.1855L277.223 -39.1151L223.592 22.5187L305.54 93.8242L359.171 32.1855Z" fill="white"/>
</mask>
<g mask="url(#mask2_252_179)">
<path d="M277.927 67.837C302.1 38.6931 322.52 40.1241 322.52 40.1241C307.336 38.4123 290.373 48.7072 278.584 60.2734C305.742 -4.48362 359.154 32.1693 359.174 32.1879C352.709 33.6869 342.386 46.7233 336.709 52.0141C329.649 58.5905 319.997 62.0043 310.558 61.69C304.693 61.4918 289.887 59.4512 277.928 67.836" fill="#21453A"/>
</g>
</g>
</g>
<mask id="mask3_252_179" style="mask-type:luminance" maskUnits="userSpaceOnUse" x="251" y="0" width="35" height="62">
<path d="M251.065 0H285.726V61.895H251.065V0Z" fill="white"/>
</mask>
<g mask="url(#mask3_252_179)">
<mask id="mask4_252_179" style="mask-type:luminance" maskUnits="userSpaceOnUse" x="223" y="-40" width="137" height="134">
<path d="M277.321 -39.0372L359.268 32.2683L305.638 93.9021L223.695 22.6016L277.321 -39.0372Z" fill="white"/>
</mask>
<g mask="url(#mask4_252_179)">
<mask id="mask5_252_179" style="mask-type:luminance" maskUnits="userSpaceOnUse" x="223" y="-40" width="137" height="134">
<path d="M359.171 32.1855L277.223 -39.1151L223.592 22.5187L305.54 93.8242L359.171 32.1855Z" fill="white"/>
</mask>
<g mask="url(#mask5_252_179)">
<path d="M271.131 60.719C261.16 34.0608 269.777 17.6537 269.777 17.6537C260.353 30.3273 261.034 45.3468 264.173 57.3581C232.505 12.4694 273.539 -0.0012207 273.539 -0.0012207C272.649 5.4339 281.958 23.2428 283.529 29.1662C288.447 47.6914 277.011 57.1836 271.131 60.7178" fill="#326757"/>
</g>
</g>
</g>
<path d="M50.254 165.927C49.054 165.927 47.9873 165.652 47.054 165.102C46.1207 164.552 45.3873 163.786 44.854 162.802C44.3373 161.819 44.079 160.677 44.079 159.377C44.079 158.044 44.3373 156.886 44.854 155.902C45.3873 154.902 46.1207 154.127 47.054 153.577C47.9873 153.011 49.0707 152.727 50.304 152.727C51.5373 152.727 52.5957 153.002 53.479 153.552C54.3623 154.102 55.0457 154.836 55.529 155.752C56.0123 156.652 56.254 157.652 56.254 158.752C56.254 158.919 56.2457 159.102 56.229 159.302C56.229 159.486 56.2207 159.694 56.204 159.927H45.904V158.152H53.754C53.704 157.102 53.354 156.286 52.704 155.702C52.054 155.102 51.2457 154.802 50.279 154.802C49.5957 154.802 48.9707 154.961 48.404 155.277C47.8373 155.577 47.379 156.027 47.029 156.627C46.6957 157.211 46.529 157.952 46.529 158.852V159.552C46.529 160.486 46.6957 161.277 47.029 161.927C47.379 162.561 47.8373 163.044 48.404 163.377C48.9707 163.694 49.5873 163.852 50.254 163.852C51.054 163.852 51.7123 163.677 52.229 163.327C52.7457 162.977 53.129 162.502 53.379 161.902H55.879C55.6623 162.669 55.2957 163.361 54.779 163.977C54.2623 164.577 53.6207 165.052 52.854 165.402C52.104 165.752 51.2373 165.927 50.254 165.927ZM57.1479 165.627L61.4979 159.327L57.1479 153.027H59.8479L63.1479 157.927L66.4729 153.027H69.1479L64.7979 159.327L69.1479 165.627H66.4729L63.1479 160.702L59.8479 165.627H57.1479ZM76.5753 165.927C75.3586 165.927 74.2753 165.652 73.3253 165.102C72.3753 164.536 71.6253 163.761 71.0753 162.777C70.542 161.794 70.2753 160.652 70.2753 159.352C70.2753 158.036 70.542 156.886 71.0753 155.902C71.6253 154.902 72.3753 154.127 73.3253 153.577C74.2753 153.011 75.3586 152.727 76.5753 152.727C78.1086 152.727 79.392 153.127 80.4253 153.927C81.4586 154.727 82.117 155.811 82.4003 157.177H79.8003C79.6336 156.444 79.2503 155.877 78.6503 155.477C78.067 155.077 77.367 154.877 76.5503 154.877C75.8836 154.877 75.267 155.052 74.7003 155.402C74.1336 155.736 73.6753 156.236 73.3253 156.902C72.992 157.552 72.8253 158.361 72.8253 159.327C72.8253 160.044 72.9253 160.686 73.1253 161.252C73.3253 161.802 73.592 162.269 73.9253 162.652C74.2753 163.036 74.6753 163.327 75.1253 163.527C75.5753 163.711 76.0503 163.802 76.5503 163.802C77.1003 163.802 77.592 163.719 78.0253 163.552C78.4753 163.369 78.8503 163.102 79.1503 162.752C79.467 162.402 79.6836 161.986 79.8003 161.502H82.4003C82.117 162.836 81.4586 163.911 80.4253 164.727C79.392 165.527 78.1086 165.927 76.5753 165.927ZM85.3255 165.627V147.627H87.8255V165.627H85.3255ZM95.8831 165.927C94.8998 165.927 94.0414 165.727 93.3081 165.327C92.5914 164.927 92.0331 164.327 91.6331 163.527C91.2498 162.727 91.0581 161.719 91.0581 160.502V153.027H93.5581V160.227C93.5581 161.411 93.8164 162.302 94.3331 162.902C94.8498 163.502 95.5914 163.802 96.5581 163.802C97.2081 163.802 97.7914 163.644 98.3081 163.327C98.8414 163.011 99.2581 162.552 99.5581 161.952C99.8581 161.352 100.008 160.619 100.008 159.752V153.027H102.508V165.627H100.283L100.108 163.477C99.7248 164.244 99.1664 164.844 98.4331 165.277C97.6998 165.711 96.8498 165.927 95.8831 165.927ZM110.806 165.927C109.739 165.927 108.806 165.752 108.006 165.402C107.206 165.052 106.573 164.561 106.106 163.927C105.639 163.294 105.356 162.552 105.256 161.702H107.806C107.889 162.102 108.048 162.469 108.281 162.802C108.531 163.136 108.864 163.402 109.281 163.602C109.714 163.802 110.223 163.902 110.806 163.902C111.356 163.902 111.806 163.827 112.156 163.677C112.523 163.511 112.789 163.294 112.956 163.027C113.123 162.744 113.206 162.444 113.206 162.127C113.206 161.661 113.089 161.311 112.856 161.077C112.639 160.827 112.306 160.636 111.856 160.502C111.423 160.352 110.898 160.219 110.281 160.102C109.698 160.002 109.131 159.869 108.581 159.702C108.048 159.519 107.564 159.294 107.131 159.027C106.714 158.761 106.381 158.427 106.131 158.027C105.881 157.611 105.756 157.102 105.756 156.502C105.756 155.786 105.948 155.144 106.331 154.577C106.714 153.994 107.256 153.544 107.956 153.227C108.673 152.894 109.514 152.727 110.481 152.727C111.881 152.727 113.006 153.061 113.856 153.727C114.706 154.394 115.206 155.336 115.356 156.552H112.931C112.864 155.986 112.614 155.552 112.181 155.252C111.748 154.936 111.173 154.777 110.456 154.777C109.739 154.777 109.189 154.919 108.806 155.202C108.423 155.486 108.231 155.861 108.231 156.327C108.231 156.627 108.339 156.894 108.556 157.127C108.773 157.361 109.089 157.561 109.506 157.727C109.939 157.877 110.464 158.019 111.081 158.152C111.964 158.319 112.756 158.527 113.456 158.777C114.156 159.027 114.714 159.394 115.131 159.877C115.548 160.361 115.756 161.052 115.756 161.952C115.773 162.736 115.573 163.427 115.156 164.027C114.756 164.627 114.181 165.094 113.431 165.427C112.698 165.761 111.823 165.927 110.806 165.927ZM118.875 165.627V153.027H121.375V165.627H118.875ZM120.15 150.652C119.666 150.652 119.266 150.502 118.95 150.202C118.65 149.902 118.5 149.519 118.5 149.052C118.5 148.602 118.65 148.236 118.95 147.952C119.266 147.652 119.666 147.502 120.15 147.502C120.616 147.502 121.008 147.652 121.325 147.952C121.641 148.236 121.8 148.602 121.8 149.052C121.8 149.519 121.641 149.902 121.325 150.202C121.008 150.502 120.616 150.652 120.15 150.652ZM128.525 165.627L123.8 153.027H126.425L130 163.227L133.6 153.027H136.175L131.475 165.627H128.525ZM143.516 165.927C142.316 165.927 141.249 165.652 140.316 165.102C139.382 164.552 138.649 163.786 138.116 162.802C137.599 161.819 137.341 160.677 137.341 159.377C137.341 158.044 137.599 156.886 138.116 155.902C138.649 154.902 139.382 154.127 140.316 153.577C141.249 153.011 142.332 152.727 143.566 152.727C144.799 152.727 145.857 153.002 146.741 153.552C147.624 154.102 148.307 154.836 148.791 155.752C149.274 156.652 149.516 157.652 149.516 158.752C149.516 158.919 149.507 159.102 149.491 159.302C149.491 159.486 149.482 159.694 149.466 159.927H139.166V158.152H147.016C146.966 157.102 146.616 156.286 145.966 155.702C145.316 155.102 144.507 154.802 143.541 154.802C142.857 154.802 142.232 154.961 141.666 155.277C141.099 155.577 140.641 156.027 140.291 156.627C139.957 157.211 139.791 157.952 139.791 158.852V159.552C139.791 160.486 139.957 161.277 140.291 161.927C140.641 162.561 141.099 163.044 141.666 163.377C142.232 163.694 142.849 163.852 143.516 163.852C144.316 163.852 144.974 163.677 145.491 163.327C146.007 162.977 146.391 162.502 146.641 161.902H149.141C148.924 162.669 148.557 163.361 148.041 163.977C147.524 164.577 146.882 165.052 146.116 165.402C145.366 165.752 144.499 165.927 143.516 165.927ZM158.69 165.627V147.627H161.19V155.077C161.606 154.344 162.181 153.769 162.915 153.352C163.665 152.936 164.49 152.727 165.39 152.727C166.39 152.727 167.248 152.936 167.965 153.352C168.681 153.752 169.231 154.361 169.615 155.177C169.998 155.977 170.19 156.986 170.19 158.202V165.627H167.715V158.452C167.715 157.286 167.465 156.402 166.965 155.802C166.465 155.186 165.723 154.877 164.74 154.877C164.073 154.877 163.473 155.036 162.94 155.352C162.406 155.669 161.981 156.136 161.665 156.752C161.348 157.352 161.19 158.086 161.19 158.952V165.627H158.69ZM179.087 165.927C177.887 165.927 176.82 165.652 175.887 165.102C174.954 164.552 174.22 163.786 173.687 162.802C173.17 161.819 172.912 160.677 172.912 159.377C172.912 158.044 173.17 156.886 173.687 155.902C174.22 154.902 174.954 154.127 175.887 153.577C176.82 153.011 177.904 152.727 179.137 152.727C180.37 152.727 181.429 153.002 182.312 153.552C183.195 154.102 183.879 154.836 184.362 155.752C184.845 156.652 185.087 157.652 185.087 158.752C185.087 158.919 185.079 159.102 185.062 159.302C185.062 159.486 185.054 159.694 185.037 159.927H174.737V158.152H182.587C182.537 157.102 182.187 156.286 181.537 155.702C180.887 155.102 180.079 154.802 179.112 154.802C178.429 154.802 177.804 154.961 177.237 155.277C176.67 155.577 176.212 156.027 175.862 156.627C175.529 157.211 175.362 157.952 175.362 158.852V159.552C175.362 160.486 175.529 161.277 175.862 161.927C176.212 162.561 176.67 163.044 177.237 163.377C177.804 163.694 178.42 163.852 179.087 163.852C179.887 163.852 180.545 163.677 181.062 163.327C181.579 162.977 181.962 162.502 182.212 161.902H184.712C184.495 162.669 184.129 163.361 183.612 163.977C183.095 164.577 182.454 165.052 181.687 165.402C180.937 165.752 180.07 165.927 179.087 165.927ZM187.865 165.627V153.027H190.115L190.34 155.402C190.623 154.836 190.99 154.361 191.44 153.977C191.89 153.577 192.415 153.269 193.015 153.052C193.631 152.836 194.331 152.727 195.115 152.727V155.377H194.215C193.698 155.377 193.206 155.444 192.74 155.577C192.273 155.694 191.856 155.902 191.49 156.202C191.14 156.502 190.865 156.911 190.665 157.427C190.465 157.944 190.365 158.586 190.365 159.352V165.627H187.865ZM204.285 165.927C203.602 165.927 202.977 165.827 202.41 165.627C201.86 165.444 201.377 165.186 200.96 164.852C200.544 164.519 200.194 164.136 199.91 163.702L199.66 165.627H197.41V147.627H199.91V155.002C200.31 154.369 200.869 153.836 201.585 153.402C202.319 152.952 203.219 152.727 204.285 152.727C205.485 152.727 206.544 153.019 207.46 153.602C208.377 154.169 209.085 154.952 209.585 155.952C210.102 156.936 210.36 158.069 210.36 159.352C210.36 160.602 210.102 161.727 209.585 162.727C209.085 163.727 208.377 164.511 207.46 165.077C206.544 165.644 205.485 165.927 204.285 165.927ZM203.885 163.752C204.652 163.752 205.327 163.569 205.91 163.202C206.51 162.836 206.977 162.319 207.31 161.652C207.66 160.986 207.835 160.211 207.835 159.327C207.835 158.444 207.66 157.677 207.31 157.027C206.977 156.361 206.51 155.844 205.91 155.477C205.327 155.094 204.652 154.902 203.885 154.902C203.102 154.902 202.41 155.094 201.81 155.477C201.227 155.844 200.769 156.361 200.435 157.027C200.102 157.677 199.935 158.444 199.935 159.327C199.935 160.211 200.102 160.986 200.435 161.652C200.769 162.319 201.227 162.836 201.81 163.202C202.41 163.569 203.102 163.752 203.885 163.752ZM218.155 165.927C217.088 165.927 216.155 165.752 215.355 165.402C214.555 165.052 213.921 164.561 213.455 163.927C212.988 163.294 212.705 162.552 212.605 161.702H215.155C215.238 162.102 215.396 162.469 215.63 162.802C215.88 163.136 216.213 163.402 216.63 163.602C217.063 163.802 217.571 163.902 218.155 163.902C218.705 163.902 219.155 163.827 219.505 163.677C219.871 163.511 220.138 163.294 220.305 163.027C220.471 162.744 220.555 162.444 220.555 162.127C220.555 161.661 220.438 161.311 220.205 161.077C219.988 160.827 219.655 160.636 219.205 160.502C218.771 160.352 218.246 160.219 217.63 160.102C217.046 160.002 216.48 159.869 215.93 159.702C215.396 159.519 214.913 159.294 214.48 159.027C214.063 158.761 213.73 158.427 213.48 158.027C213.23 157.611 213.105 157.102 213.105 156.502C213.105 155.786 213.296 155.144 213.68 154.577C214.063 153.994 214.605 153.544 215.305 153.227C216.021 152.894 216.863 152.727 217.83 152.727C219.23 152.727 220.355 153.061 221.205 153.727C222.055 154.394 222.555 155.336 222.705 156.552H220.28C220.213 155.986 219.963 155.552 219.53 155.252C219.096 154.936 218.521 154.777 217.805 154.777C217.088 154.777 216.538 154.919 216.155 155.202C215.771 155.486 215.58 155.861 215.58 156.327C215.58 156.627 215.688 156.894 215.905 157.127C216.121 157.361 216.438 157.561 216.855 157.727C217.288 157.877 217.813 158.019 218.43 158.152C219.313 158.319 220.105 158.527 220.805 158.777C221.505 159.027 222.063 159.394 222.48 159.877C222.896 160.361 223.105 161.052 223.105 161.952C223.121 162.736 222.921 163.427 222.505 164.027C222.105 164.627 221.53 165.094 220.78 165.427C220.046 165.761 219.171 165.927 218.155 165.927ZM245.77 165.627L236.27 156.002C235.486 155.236 234.928 154.536 234.595 153.902C234.278 153.269 234.12 152.586 234.12 151.852C234.12 151.086 234.303 150.402 234.67 149.802C235.053 149.186 235.595 148.702 236.295 148.352C237.011 148.002 237.861 147.827 238.845 147.827C239.828 147.827 240.661 148.011 241.345 148.377C242.045 148.727 242.578 149.211 242.945 149.827C243.328 150.444 243.511 151.144 243.495 151.927H241.045C241.045 151.227 240.828 150.702 240.395 150.352C239.961 149.986 239.445 149.802 238.845 149.802C238.128 149.802 237.561 149.994 237.145 150.377C236.745 150.744 236.545 151.227 236.545 151.827C236.545 152.311 236.686 152.802 236.97 153.302C237.253 153.786 237.678 154.327 238.245 154.927L248.845 165.627H245.77ZM237.82 165.927C236.62 165.927 235.561 165.711 234.645 165.277C233.728 164.827 233.02 164.202 232.52 163.402C232.02 162.586 231.77 161.644 231.77 160.577C231.77 159.727 231.945 158.952 232.295 158.252C232.645 157.536 233.161 156.911 233.845 156.377C234.528 155.827 235.37 155.386 236.37 155.052L237.32 154.727L238.545 156.327L237.52 156.677C236.403 157.061 235.578 157.569 235.045 158.202C234.511 158.836 234.245 159.586 234.245 160.452C234.245 161.086 234.395 161.661 234.695 162.177C235.011 162.694 235.445 163.094 235.995 163.377C236.545 163.661 237.186 163.802 237.92 163.802C238.87 163.802 239.72 163.602 240.47 163.202C241.22 162.786 241.961 162.111 242.695 161.177C243.028 160.744 243.37 160.252 243.72 159.702C244.07 159.152 244.436 158.527 244.82 157.827L245.52 156.552H248.12L247.07 158.477C246.636 159.327 246.195 160.102 245.745 160.802C245.311 161.486 244.87 162.094 244.42 162.627C243.47 163.794 242.461 164.636 241.395 165.152C240.345 165.669 239.153 165.927 237.82 165.927ZM257.542 165.627V153.027H259.792L259.967 154.802C260.367 154.152 260.901 153.644 261.567 153.277C262.234 152.911 262.984 152.727 263.817 152.727C264.451 152.727 265.026 152.819 265.542 153.002C266.059 153.169 266.517 153.427 266.917 153.777C267.317 154.127 267.642 154.561 267.892 155.077C268.342 154.344 268.942 153.769 269.692 153.352C270.459 152.936 271.267 152.727 272.117 152.727C273.134 152.727 274.009 152.936 274.742 153.352C275.476 153.752 276.034 154.361 276.417 155.177C276.801 155.977 276.992 156.977 276.992 158.177V165.627H274.517V158.427C274.517 157.261 274.276 156.377 273.792 155.777C273.326 155.177 272.634 154.877 271.717 154.877C271.101 154.877 270.551 155.036 270.067 155.352C269.584 155.669 269.201 156.127 268.917 156.727C268.651 157.327 268.517 158.061 268.517 158.927V165.627H266.017V158.427C266.017 157.261 265.776 156.377 265.292 155.777C264.826 155.177 264.134 154.877 263.217 154.877C262.634 154.877 262.101 155.036 261.617 155.352C261.134 155.669 260.751 156.127 260.467 156.727C260.184 157.327 260.042 158.061 260.042 158.927V165.627H257.542ZM285.973 165.927C284.79 165.927 283.723 165.652 282.773 165.102C281.84 164.552 281.098 163.786 280.548 162.802C280.015 161.802 279.748 160.652 279.748 159.352C279.748 158.019 280.023 156.861 280.573 155.877C281.123 154.877 281.873 154.102 282.823 153.552C283.773 153.002 284.84 152.727 286.023 152.727C287.223 152.727 288.29 153.002 289.223 153.552C290.156 154.102 290.89 154.869 291.423 155.852C291.973 156.836 292.248 157.994 292.248 159.327C292.248 160.661 291.973 161.819 291.423 162.802C290.89 163.786 290.148 164.552 289.198 165.102C288.248 165.652 287.173 165.927 285.973 165.927ZM285.973 163.777C286.656 163.777 287.273 163.611 287.823 163.277C288.39 162.944 288.84 162.452 289.173 161.802C289.523 161.136 289.698 160.311 289.698 159.327C289.698 158.344 289.531 157.527 289.198 156.877C288.865 156.211 288.415 155.711 287.848 155.377C287.298 155.044 286.69 154.877 286.023 154.877C285.356 154.877 284.74 155.044 284.173 155.377C283.606 155.711 283.148 156.211 282.798 156.877C282.465 157.527 282.298 158.344 282.298 159.327C282.298 160.311 282.465 161.136 282.798 161.802C283.148 162.452 283.598 162.944 284.148 163.277C284.715 163.611 285.323 163.777 285.973 163.777ZM295.189 165.627V153.027H297.439L297.664 155.402C297.947 154.836 298.314 154.361 298.764 153.977C299.214 153.577 299.739 153.269 300.339 153.052C300.955 152.836 301.655 152.727 302.439 152.727V155.377H301.539C301.022 155.377 300.53 155.444 300.064 155.577C299.597 155.694 299.18 155.902 298.814 156.202C298.464 156.502 298.189 156.911 297.989 157.427C297.789 157.944 297.689 158.586 297.689 159.352V165.627H295.189ZM310.068 165.927C308.868 165.927 307.802 165.652 306.868 165.102C305.935 164.552 305.202 163.786 304.668 162.802C304.152 161.819 303.893 160.677 303.893 159.377C303.893 158.044 304.152 156.886 304.668 155.902C305.202 154.902 305.935 154.127 306.868 153.577C307.802 153.011 308.885 152.727 310.118 152.727C311.352 152.727 312.41 153.002 313.293 153.552C314.177 154.102 314.86 154.836 315.343 155.752C315.827 156.652 316.068 157.652 316.068 158.752C316.068 158.919 316.06 159.102 316.043 159.302C316.043 159.486 316.035 159.694 316.018 159.927H305.718V158.152H313.568C313.518 157.102 313.168 156.286 312.518 155.702C311.868 155.102 311.06 154.802 310.093 154.802C309.41 154.802 308.785 154.961 308.218 155.277C307.652 155.577 307.193 156.027 306.843 156.627C306.51 157.211 306.343 157.952 306.343 158.852V159.552C306.343 160.486 306.51 161.277 306.843 161.927C307.193 162.561 307.652 163.044 308.218 163.377C308.785 163.694 309.402 163.852 310.068 163.852C310.868 163.852 311.527 163.677 312.043 163.327C312.56 162.977 312.943 162.502 313.193 161.902H315.693C315.477 162.669 315.11 163.361 314.593 163.977C314.077 164.577 313.435 165.052 312.668 165.402C311.918 165.752 311.052 165.927 310.068 165.927Z" fill="#B8923A"/>
</svg>
